<svg width="601" height="333" viewBox="0 0 601 333" fill="none" xmlns="http://www.w3.org/2000/svg">
<rect x="212.868" y="9.54785" width="175.264" height="153.064" rx="23.3686" fill="#FFE8B4"/>
<rect x="212.868" y="9.54785" width="175.264" height="153.064" rx="23.3686" stroke="#59391D" stroke-width="10.9053"/>
<path d="M388.911 29.695C388.911 43.1868 369.73 54.122 346.069 54.122C322.407 54.122 303.226 43.1868 303.226 29.695C303.226 16.2032 322.407 5.26807 346.069 5.26807C369.73 5.26807 388.911 16.2032 388.911 29.695Z" fill="#FFE8B4" stroke="#59391D" stroke-width="10.2822" stroke-linecap="round" stroke-linejoin="round"/>
<path d="M346.069 20.9583C358.921 15.2058 367.49 24.4717 367.49 28.8075C367.49 41.7131 324.647 41.0413 324.647 25.1435C324.647 15.4378 333.216 5.26807 346.069 5.26807" fill="#FFE8B4"/>
<path d="M346.069 20.9583C358.921 15.2058 367.49 24.4717 367.49 28.8075C367.49 41.7131 324.647 41.0413 324.647 25.1435C324.647 15.4378 333.216 5.26807 346.069 5.26807" stroke="#59391D" stroke-width="10.2822" stroke-linecap="round" stroke-linejoin="round"/>
<rect x="212.868" y="9.54785" width="175.264" height="153.064" rx="23.3686" fill="#FFE8B4"/>
<rect x="212.868" y="9.54785" width="175.264" height="153.064" rx="23.3686" stroke="#59391D" stroke-width="10.9053"/>
<path d="M388.911 29.695C388.911 43.1868 369.73 54.122 346.069 54.122C322.407 54.122 303.226 43.1868 303.226 29.695C303.226 16.2032 322.407 5.26807 346.069 5.26807C369.73 5.26807 388.911 16.2032 388.911 29.695Z" fill="#FFE8B4" stroke="#59391D" stroke-width="10.2822" stroke-linecap="round" stroke-linejoin="round"/>
<path d="M346.069 20.9583C358.921 15.2058 367.49 24.4717 367.49 28.8075C367.49 41.7131 324.647 41.0413 324.647 25.1435C324.647 15.4378 333.216 5.26807 346.069 5.26807" fill="#FFE8B4"/>
<path d="M346.069 20.9583C358.921 15.2058 367.49 24.4717 367.49 28.8075C367.49 41.7131 324.647 41.0413 324.647 25.1435C324.647 15.4378 333.216 5.26807 346.069 5.26807" stroke="#59391D" stroke-width="10.2822" stroke-linecap="round" stroke-linejoin="round"/>
<mask id="path-9-outside-1_2376_1881" maskUnits="userSpaceOnUse" x="234.9" y="114.165" width="32" height="31" fill="black">
<rect fill="white" x="234.9" y="114.165" width="32" height="31"/>
<path d="M241.295 124.376V119.371C239.842 119.694 238.422 119.953 237.163 120.146C237.098 120.146 237.001 120.146 236.937 120.146C236.355 120.146 235.968 119.759 235.936 119.178C235.903 119.081 235.903 118.984 235.903 118.919C235.903 118.371 236.194 117.983 236.84 117.919C239.907 117.499 244.136 116.433 246.654 115.239C246.848 115.11 247.042 115.078 247.236 115.078C247.688 115.078 248.043 115.336 248.236 115.788C248.301 115.949 248.333 116.143 248.333 116.304C248.333 116.789 248.043 117.208 247.591 117.434C246.525 117.886 245.137 118.371 243.62 118.79V124.376H248.204C248.785 124.376 249.108 124.892 249.108 125.506C249.108 126.184 248.818 126.603 248.236 126.603H243.62V131.769H245.46C247.236 131.769 248.075 132.447 248.075 134.255V141.422C248.075 143.295 247.203 144.005 245.363 144.005H239.455C237.615 144.005 236.743 143.295 236.743 141.422V134.255C236.743 132.447 237.582 131.769 239.358 131.769H241.295V126.603H236.452C235.871 126.603 235.548 126.151 235.548 125.473C235.548 124.828 235.871 124.376 236.452 124.376H241.295ZM239.132 134.739V140.97C239.132 141.616 239.423 141.81 240.068 141.81H244.911C245.524 141.81 245.686 141.616 245.686 140.97V134.739C245.686 134.061 245.524 133.9 244.911 133.9H240.068C239.423 133.9 239.132 134.061 239.132 134.739ZM250.948 123.31H248.979C248.43 123.31 248.075 122.826 248.075 122.18C248.075 121.502 248.398 121.083 248.947 121.083H250.948V116.111C250.948 115.497 251.433 115.207 252.175 115.207C252.918 115.207 253.402 115.497 253.402 116.111V121.083H260.44V116.111C260.44 115.497 260.925 115.207 261.667 115.207C262.41 115.207 262.894 115.497 262.894 116.111V121.083H264.767C265.348 121.083 265.671 121.535 265.671 122.213C265.671 122.858 265.348 123.31 264.767 123.31H262.894V141.39C262.894 143.263 262.022 143.973 260.182 143.973H253.628C251.82 143.973 250.948 143.263 250.948 141.39V123.31ZM253.402 132.931V140.906C253.402 141.552 253.693 141.745 254.338 141.745H259.472C260.118 141.745 260.44 141.552 260.44 140.906V132.931H253.402ZM260.44 130.736V123.31H253.402V130.736H260.44Z"/>
</mask>
<path d="M241.295 124.376V119.371C239.842 119.694 238.422 119.953 237.163 120.146C237.098 120.146 237.001 120.146 236.937 120.146C236.355 120.146 235.968 119.759 235.936 119.178C235.903 119.081 235.903 118.984 235.903 118.919C235.903 118.371 236.194 117.983 236.84 117.919C239.907 117.499 244.136 116.433 246.654 115.239C246.848 115.11 247.042 115.078 247.236 115.078C247.688 115.078 248.043 115.336 248.236 115.788C248.301 115.949 248.333 116.143 248.333 116.304C248.333 116.789 248.043 117.208 247.591 117.434C246.525 117.886 245.137 118.371 243.62 118.79V124.376H248.204C248.785 124.376 249.108 124.892 249.108 125.506C249.108 126.184 248.818 126.603 248.236 126.603H243.62V131.769H245.46C247.236 131.769 248.075 132.447 248.075 134.255V141.422C248.075 143.295 247.203 144.005 245.363 144.005H239.455C237.615 144.005 236.743 143.295 236.743 141.422V134.255C236.743 132.447 237.582 131.769 239.358 131.769H241.295V126.603H236.452C235.871 126.603 235.548 126.151 235.548 125.473C235.548 124.828 235.871 124.376 236.452 124.376H241.295ZM239.132 134.739V140.97C239.132 141.616 239.423 141.81 240.068 141.81H244.911C245.524 141.81 245.686 141.616 245.686 140.97V134.739C245.686 134.061 245.524 133.9 244.911 133.9H240.068C239.423 133.9 239.132 134.061 239.132 134.739ZM250.948 123.31H248.979C248.43 123.31 248.075 122.826 248.075 122.18C248.075 121.502 248.398 121.083 248.947 121.083H250.948V116.111C250.948 115.497 251.433 115.207 252.175 115.207C252.918 115.207 253.402 115.497 253.402 116.111V121.083H260.44V116.111C260.44 115.497 260.925 115.207 261.667 115.207C262.41 115.207 262.894 115.497 262.894 116.111V121.083H264.767C265.348 121.083 265.671 121.535 265.671 122.213C265.671 122.858 265.348 123.31 264.767 123.31H262.894V141.39C262.894 143.263 262.022 143.973 260.182 143.973H253.628C251.82 143.973 250.948 143.263 250.948 141.39V123.31ZM253.402 132.931V140.906C253.402 141.552 253.693 141.745 254.338 141.745H259.472C260.118 141.745 260.44 141.552 260.44 140.906V132.931H253.402ZM260.44 130.736V123.31H253.402V130.736H260.44Z" fill="#59391D"/>
<path d="M241.295 124.376V124.952H241.872V124.376H241.295ZM241.295 119.371H241.872V118.653L241.17 118.809L241.295 119.371ZM237.163 120.146V120.723H237.207L237.25 120.716L237.163 120.146ZM235.936 119.178L236.511 119.146L236.507 119.069L236.483 118.995L235.936 119.178ZM236.84 117.919L236.897 118.492L236.907 118.491L236.918 118.49L236.84 117.919ZM246.654 115.239L246.902 115.76L246.939 115.742L246.974 115.719L246.654 115.239ZM248.236 115.788L248.772 115.574L248.766 115.561L248.236 115.788ZM247.591 117.434L247.816 117.965L247.832 117.958L247.849 117.95L247.591 117.434ZM243.62 118.79L243.466 118.235L243.043 118.352V118.79H243.62ZM243.62 124.376H243.043V124.952H243.62V124.376ZM243.62 126.603V126.027H243.043V126.603H243.62ZM243.62 131.769H243.043V132.346H243.62V131.769ZM241.295 131.769V132.346H241.872V131.769H241.295ZM241.295 126.603H241.872V126.027H241.295V126.603ZM250.948 123.31H251.525V122.734H250.948V123.31ZM250.948 121.083V121.659H251.525V121.083H250.948ZM253.402 121.083H252.826V121.659H253.402V121.083ZM260.44 121.083V121.659H261.017V121.083H260.44ZM262.894 121.083H262.318V121.659H262.894V121.083ZM262.894 123.31V122.734H262.318V123.31H262.894ZM253.402 132.931V132.355H252.826V132.931H253.402ZM260.44 132.931H261.017V132.355H260.44V132.931ZM260.44 130.736V131.312H261.017V130.736H260.44ZM260.44 123.31H261.017V122.734H260.44V123.31ZM253.402 123.31V122.734H252.826V123.31H253.402ZM253.402 130.736H252.826V131.312H253.402V130.736ZM241.872 124.376V119.371H240.719V124.376H241.872ZM241.17 118.809C239.731 119.128 238.323 119.385 237.075 119.577L237.25 120.716C238.521 120.521 239.954 120.26 241.42 119.934L241.17 118.809ZM237.163 119.57C237.162 119.57 237.162 119.57 237.162 119.57C237.162 119.57 237.162 119.57 237.162 119.57C237.162 119.57 237.162 119.57 237.161 119.57C237.161 119.57 237.161 119.57 237.161 119.57C237.161 119.57 237.161 119.57 237.161 119.57C237.161 119.57 237.16 119.57 237.16 119.57C237.16 119.57 237.16 119.57 237.16 119.57C237.16 119.57 237.16 119.57 237.159 119.57C237.159 119.57 237.159 119.57 237.159 119.57C237.159 119.57 237.159 119.57 237.159 119.57C237.159 119.57 237.158 119.57 237.158 119.57C237.158 119.57 237.158 119.57 237.158 119.57C237.158 119.57 237.158 119.57 237.158 119.57C237.157 119.57 237.157 119.57 237.157 119.57C237.157 119.57 237.157 119.57 237.157 119.57C237.157 119.57 237.157 119.57 237.156 119.57C237.156 119.57 237.156 119.57 237.156 119.57C237.156 119.57 237.156 119.57 237.156 119.57C237.155 119.57 237.155 119.57 237.155 119.57C237.155 119.57 237.155 119.57 237.155 119.57C237.155 119.57 237.155 119.57 237.154 119.57C237.154 119.57 237.154 119.57 237.154 119.57C237.154 119.57 237.154 119.57 237.154 119.57C237.154 119.57 237.153 119.57 237.153 119.57C237.153 119.57 237.153 119.57 237.153 119.57C237.153 119.57 237.153 119.57 237.152 119.57C237.152 119.57 237.152 119.57 237.152 119.57C237.152 119.57 237.152 119.57 237.152 119.57C237.152 119.57 237.151 119.57 237.151 119.57C237.151 119.57 237.151 119.57 237.151 119.57C237.151 119.57 237.151 119.57 237.15 119.57C237.15 119.57 237.15 119.57 237.15 119.57C237.15 119.57 237.15 119.57 237.15 119.57C237.15 119.57 237.149 119.57 237.149 119.57C237.149 119.57 237.149 119.57 237.149 119.57C237.149 119.57 237.149 119.57 237.148 119.57C237.148 119.57 237.148 119.57 237.148 119.57C237.148 119.57 237.148 119.57 237.148 119.57C237.148 119.57 237.147 119.57 237.147 119.57C237.147 119.57 237.147 119.57 237.147 119.57C237.147 119.57 237.147 119.57 237.146 119.57C237.146 119.57 237.146 119.57 237.146 119.57C237.146 119.57 237.146 119.57 237.146 119.57C237.145 119.57 237.145 119.57 237.145 119.57C237.145 119.57 237.145 119.57 237.145 119.57C237.145 119.57 237.145 119.57 237.144 119.57C237.144 119.57 237.144 119.57 237.144 119.57C237.144 119.57 237.144 119.57 237.144 119.57C237.143 119.57 237.143 119.57 237.143 119.57C237.143 119.57 237.143 119.57 237.143 119.57C237.143 119.57 237.142 119.57 237.142 119.57C237.142 119.57 237.142 119.57 237.142 119.57C237.142 119.57 237.142 119.57 237.142 119.57C237.141 119.57 237.141 119.57 237.141 119.57C237.141 119.57 237.141 119.57 237.141 119.57C237.141 119.57 237.14 119.57 237.14 119.57C237.14 119.57 237.14 119.57 237.14 119.57C237.14 119.57 237.14 119.57 237.139 119.57C237.139 119.57 237.139 119.57 237.139 119.57C237.139 119.57 237.139 119.57 237.139 119.57C237.138 119.57 237.138 119.57 237.138 119.57C237.138 119.57 237.138 119.57 237.138 119.57C237.138 119.57 237.137 119.57 237.137 119.57C237.137 119.57 237.137 119.57 237.137 119.57C237.137 119.57 237.137 119.57 237.137 119.57C237.136 119.57 237.136 119.57 237.136 119.57C237.136 119.57 237.136 119.57 237.136 119.57C237.136 119.57 237.135 119.57 237.135 119.57C237.135 119.57 237.135 119.57 237.135 119.57C237.135 119.57 237.135 119.57 237.134 119.57C237.134 119.57 237.134 119.57 237.134 119.57C237.134 119.57 237.134 119.57 237.134 119.57C237.133 119.57 237.133 119.57 237.133 119.57C237.133 119.57 237.133 119.57 237.133 119.57C237.133 119.57 237.132 119.57 237.132 119.57C237.132 119.57 237.132 119.57 237.132 119.57C237.132 119.57 237.132 119.57 237.131 119.57C237.131 119.57 237.131 119.57 237.131 119.57C237.131 119.57 237.131 119.57 237.131 119.57C237.13 119.57 237.13 119.57 237.13 119.57C237.13 119.57 237.13 119.57 237.13 119.57C237.13 119.57 237.129 119.57 237.129 119.57C237.129 119.57 237.129 119.57 237.129 119.57C237.129 119.57 237.129 119.57 237.128 119.57C237.128 119.57 237.128 119.57 237.128 119.57C237.128 119.57 237.128 119.57 237.128 119.57C237.127 119.57 237.127 119.57 237.127 119.57C237.127 119.57 237.127 119.57 237.127 119.57C237.127 119.57 237.126 119.57 237.126 119.57C237.126 119.57 237.126 119.57 237.126 119.57C237.126 119.57 237.126 119.57 237.125 119.57C237.125 119.57 237.125 119.57 237.125 119.57C237.125 119.57 237.125 119.57 237.125 119.57C237.124 119.57 237.124 119.57 237.124 119.57C237.124 119.57 237.124 119.57 237.124 119.57C237.124 119.57 237.123 119.57 237.123 119.57C237.123 119.57 237.123 119.57 237.123 119.57C237.123 119.57 237.123 119.57 237.122 119.57C237.122 119.57 237.122 119.57 237.122 119.57C237.122 119.57 237.122 119.57 237.121 119.57C237.121 119.57 237.121 119.57 237.121 119.57C237.121 119.57 237.121 119.57 237.121 119.57C237.12 119.57 237.12 119.57 237.12 119.57C237.12 119.57 237.12 119.57 237.12 119.57C237.12 119.57 237.119 119.57 237.119 119.57C237.119 119.57 237.119 119.57 237.119 119.57C237.119 119.57 237.119 119.57 237.118 119.57C237.118 119.57 237.118 119.57 237.118 119.57C237.118 119.57 237.118 119.57 237.118 119.57C237.117 119.57 237.117 119.57 237.117 119.57C237.117 119.57 237.117 119.57 237.117 119.57C237.117 119.57 237.116 119.57 237.116 119.57C237.116 119.57 237.116 119.57 237.116 119.57C237.116 119.57 237.115 119.57 237.115 119.57C237.115 119.57 237.115 119.57 237.115 119.57C237.115 119.57 237.115 119.57 237.114 119.57C237.114 119.57 237.114 119.57 237.114 119.57C237.114 119.57 237.114 119.57 237.114 119.57C237.113 119.57 237.113 119.57 237.113 119.57C237.113 119.57 237.113 119.57 237.113 119.57C237.113 119.57 237.112 119.57 237.112 119.57C237.112 119.57 237.112 119.57 237.112 119.57C237.112 119.57 237.111 119.57 237.111 119.57C237.111 119.57 237.111 119.57 237.111 119.57C237.111 119.57 237.111 119.57 237.11 119.57C237.11 119.57 237.11 119.57 237.11 119.57C237.11 119.57 237.11 119.57 237.11 119.57C237.109 119.57 237.109 119.57 237.109 119.57C237.109 119.57 237.109 119.57 237.109 119.57C237.108 119.57 237.108 119.57 237.108 119.57C237.108 119.57 237.108 119.57 237.108 119.57C237.108 119.57 237.107 119.57 237.107 119.57C237.107 119.57 237.107 119.57 237.107 119.57C237.107 119.57 237.107 119.57 237.106 119.57C237.106 119.57 237.106 119.57 237.106 119.57C237.106 119.57 237.106 119.57 237.105 119.57C237.105 119.57 237.105 119.57 237.105 119.57C237.105 119.57 237.105 119.57 237.105 119.57C237.104 119.57 237.104 119.57 237.104 119.57C237.104 119.57 237.104 119.57 237.104 119.57C237.103 119.57 237.103 119.57 237.103 119.57C237.103 119.57 237.103 119.57 237.103 119.57C237.103 119.57 237.102 119.57 237.102 119.57C237.102 119.57 237.102 119.57 237.102 119.57C237.102 119.57 237.102 119.57 237.101 119.57C237.101 119.57 237.101 119.57 237.101 119.57C237.101 119.57 237.101 119.57 237.1 119.57C237.1 119.57 237.1 119.57 237.1 119.57C237.1 119.57 237.1 119.57 237.1 119.57C237.099 119.57 237.099 119.57 237.099 119.57C237.099 119.57 237.099 119.57 237.099 119.57C237.098 119.57 237.098 119.57 237.098 119.57C237.098 119.57 237.098 119.57 237.098 119.57C237.098 119.57 237.097 119.57 237.097 119.57C237.097 119.57 237.097 119.57 237.097 119.57C237.097 119.57 237.097 119.57 237.096 119.57C237.096 119.57 237.096 119.57 237.096 119.57C237.096 119.57 237.096 119.57 237.095 119.57C237.095 119.57 237.095 119.57 237.095 119.57C237.095 119.57 237.095 119.57 237.095 119.57C237.094 119.57 237.094 119.57 237.094 119.57C237.094 119.57 237.094 119.57 237.094 119.57C237.093 119.57 237.093 119.57 237.093 119.57C237.093 119.57 237.093 119.57 237.093 119.57C237.093 119.57 237.092 119.57 237.092 119.57C237.092 119.57 237.092 119.57 237.092 119.57C237.092 119.57 237.091 119.57 237.091 119.57C237.091 119.57 237.091 119.57 237.091 119.57C237.091 119.57 237.091 119.57 237.09 119.57C237.09 119.57 237.09 119.57 237.09 119.57C237.09 119.57 237.09 119.57 237.089 119.57C237.089 119.57 237.089 119.57 237.089 119.57C237.089 119.57 237.089 119.57 237.089 119.57C237.088 119.57 237.088 119.57 237.088 119.57C237.088 119.57 237.088 119.57 237.088 119.57C237.087 119.57 237.087 119.57 237.087 119.57C237.087 119.57 237.087 119.57 237.087 119.57C237.087 119.57 237.086 119.57 237.086 119.57C237.086 119.57 237.086 119.57 237.086 119.57C237.086 119.57 237.085 119.57 237.085 119.57C237.085 119.57 237.085 119.57 237.085 119.57C237.085 119.57 237.084 119.57 237.084 119.57C237.084 119.57 237.084 119.57 237.084 119.57C237.084 119.57 237.084 119.57 237.083 119.57C237.083 119.57 237.083 119.57 237.083 119.57C237.083 119.57 237.083 119.57 237.082 119.57C237.082 119.57 237.082 119.57 237.082 119.57C237.082 119.57 237.082 119.57 237.082 119.57C237.081 119.57 237.081 119.57 237.081 119.57C237.081 119.57 237.081 119.57 237.081 119.57C237.08 119.57 237.08 119.57 237.08 119.57C237.08 119.57 237.08 119.57 237.08 119.57C237.08 119.57 237.079 119.57 237.079 119.57C237.079 119.57 237.079 119.57 237.079 119.57C237.079 119.57 237.078 119.57 237.078 119.57C237.078 119.57 237.078 119.57 237.078 119.57C237.078 119.57 237.078 119.57 237.077 119.57C237.077 119.57 237.077 119.57 237.077 119.57C237.077 119.57 237.077 119.57 237.076 119.57C237.076 119.57 237.076 119.57 237.076 119.57C237.076 119.57 237.076 119.57 237.075 119.57C237.075 119.57 237.075 119.57 237.075 119.57C237.075 119.57 237.075 119.57 237.075 119.57C237.074 119.57 237.074 119.57 237.074 119.57C237.074 119.57 237.074 119.57 237.074 119.57C237.073 119.57 237.073 119.57 237.073 119.57C237.073 119.57 237.073 119.57 237.073 119.57C237.073 119.57 237.072 119.57 237.072 119.57C237.072 119.57 237.072 119.57 237.072 119.57C237.072 119.57 237.071 119.57 237.071 119.57C237.071 119.57 237.071 119.57 237.071 119.57C237.071 119.57 237.07 119.57 237.07 119.57C237.07 119.57 237.07 119.57 237.07 119.57C237.07 119.57 237.07 119.57 237.069 119.57C237.069 119.57 237.069 119.57 237.069 119.57C237.069 119.57 237.069 119.57 237.068 119.57C237.068 119.57 237.068 119.57 237.068 119.57C237.068 119.57 237.068 119.57 237.067 119.57C237.067 119.57 237.067 119.57 237.067 119.57C237.067 119.57 237.067 119.57 237.067 119.57C237.066 119.57 237.066 119.57 237.066 119.57C237.066 119.57 237.066 119.57 237.066 119.57C237.065 119.57 237.065 119.57 237.065 119.57C237.065 119.57 237.065 119.57 237.065 119.57C237.065 119.57 237.064 119.57 237.064 119.57C237.064 119.57 237.064 119.57 237.064 119.57C237.064 119.57 237.063 119.57 237.063 119.57C237.063 119.57 237.063 119.57 237.063 119.57C237.063 119.57 237.062 119.57 237.062 119.57C237.062 119.57 237.062 119.57 237.062 119.57C237.062 119.57 237.062 119.57 237.061 119.57C237.061 119.57 237.061 119.57 237.061 119.57C237.061 119.57 237.061 119.57 237.06 119.57C237.06 119.57 237.06 119.57 237.06 119.57C237.06 119.57 237.06 119.57 237.059 119.57C237.059 119.57 237.059 119.57 237.059 119.57C237.059 119.57 237.059 119.57 237.059 119.57C237.058 119.57 237.058 119.57 237.058 119.57C237.058 119.57 237.058 119.57 237.058 119.57C237.057 119.57 237.057 119.57 237.057 119.57C237.057 119.57 237.057 119.57 237.057 119.57C237.056 119.57 237.056 119.57 237.056 119.57C237.056 119.57 237.056 119.57 237.056 119.57C237.056 119.57 237.055 119.57 237.055 119.57C237.055 119.57 237.055 119.57 237.055 119.57C237.055 119.57 237.054 119.57 237.054 119.57C237.054 119.57 237.054 119.57 237.054 119.57C237.054 119.57 237.053 119.57 237.053 119.57C237.053 119.57 237.053 119.57 237.053 119.57C237.053 119.57 237.053 119.57 237.052 119.57C237.052 119.57 237.052 119.57 237.052 119.57C237.052 119.57 237.052 119.57 237.051 119.57C237.051 119.57 237.051 119.57 237.051 119.57C237.051 119.57 237.051 119.57 237.05 119.57C237.05 119.57 237.05 119.57 237.05 119.57C237.05 119.57 237.05 119.57 237.05 119.57C237.049 119.57 237.049 119.57 237.049 119.57C237.049 119.57 237.049 119.57 237.049 119.57C237.048 119.57 237.048 119.57 237.048 119.57C237.048 119.57 237.048 119.57 237.048 119.57C237.047 119.57 237.047 119.57 237.047 119.57C237.047 119.57 237.047 119.57 237.047 119.57C237.047 119.57 237.046 119.57 237.046 119.57C237.046 119.57 237.046 119.57 237.046 119.57C237.046 119.57 237.045 119.57 237.045 119.57C237.045 119.57 237.045 119.57 237.045 119.57C237.045 119.57 237.044 119.57 237.044 119.57C237.044 119.57 237.044 119.57 237.044 119.57C237.044 119.57 237.044 119.57 237.043 119.57C237.043 119.57 237.043 119.57 237.043 119.57C237.043 119.57 237.043 119.57 237.042 119.57C237.042 119.57 237.042 119.57 237.042 119.57C237.042 119.57 237.042 119.57 237.042 119.57C237.041 119.57 237.041 119.57 237.041 119.57C237.041 119.57 237.041 119.57 237.041 119.57C237.04 119.57 237.04 119.57 237.04 119.57C237.04 119.57 237.04 119.57 237.04 119.57C237.039 119.57 237.039 119.57 237.039 119.57C237.039 119.57 237.039 119.57 237.039 119.57C237.039 119.57 237.038 119.57 237.038 119.57C237.038 119.57 237.038 119.57 237.038 119.57C237.038 119.57 237.037 119.57 237.037 119.57C237.037 119.57 237.037 119.57 237.037 119.57C237.037 119.57 237.036 119.57 237.036 119.57C237.036 119.57 237.036 119.57 237.036 119.57C237.036 119.57 237.036 119.57 237.035 119.57C237.035 119.57 237.035 119.57 237.035 119.57C237.035 119.57 237.035 119.57 237.034 119.57C237.034 119.57 237.034 119.57 237.034 119.57C237.034 119.57 237.034 119.57 237.033 119.57C237.033 119.57 237.033 119.57 237.033 119.57C237.033 119.57 237.033 119.57 237.033 119.57C237.032 119.57 237.032 119.57 237.032 119.57C237.032 119.57 237.032 119.57 237.032 119.57C237.031 119.57 237.031 119.57 237.031 119.57C237.031 119.57 237.031 119.57 237.031 119.57C237.03 119.57 237.03 119.57 237.03 119.57C237.03 119.57 237.03 119.57 237.03 119.57C237.03 119.57 237.029 119.57 237.029 119.57C237.029 119.57 237.029 119.57 237.029 119.57C237.029 119.57 237.028 119.57 237.028 119.57C237.028 119.57 237.028 119.57 237.028 119.57C237.028 119.57 237.028 119.57 237.027 119.57C237.027 119.57 237.027 119.57 237.027 119.57C237.027 119.57 237.027 119.57 237.026 119.57C237.026 119.57 237.026 119.57 237.026 119.57C237.026 119.57 237.026 119.57 237.025 119.57C237.025 119.57 237.025 119.57 237.025 119.57C237.025 119.57 237.025 119.57 237.025 119.57C237.024 119.57 237.024 119.57 237.024 119.57C237.024 119.57 237.024 119.57 237.024 119.57C237.023 119.57 237.023 119.57 237.023 119.57C237.023 119.57 237.023 119.57 237.023 119.57C237.023 119.57 237.022 119.57 237.022 119.57C237.022 119.57 237.022 119.57 237.022 119.57C237.022 119.57 237.021 119.57 237.021 119.57C237.021 119.57 237.021 119.57 237.021 119.57C237.021 119.57 237.02 119.57 237.02 119.57C237.02 119.57 237.02 119.57 237.02 119.57C237.02 119.57 237.02 119.57 237.019 119.57C237.019 119.57 237.019 119.57 237.019 119.57C237.019 119.57 237.019 119.57 237.018 119.57C237.018 119.57 237.018 119.57 237.018 119.57C237.018 119.57 237.018 119.57 237.018 119.57C237.017 119.57 237.017 119.57 237.017 119.57C237.017 119.57 237.017 119.57 237.017 119.57C237.016 119.57 237.016 119.57 237.016 119.57C237.016 119.57 237.016 119.57 237.016 119.57C237.016 119.57 237.015 119.57 237.015 119.57C237.015 119.57 237.015 119.57 237.015 119.57C237.015 119.57 237.014 119.57 237.014 119.57C237.014 119.57 237.014 119.57 237.014 119.57C237.014 119.57 237.014 119.57 237.013 119.57C237.013 119.57 237.013 119.57 237.013 119.57C237.013 119.57 237.013 119.57 237.012 119.57C237.012 119.57 237.012 119.57 237.012 119.57C237.012 119.57 237.012 119.57 237.011 119.57C237.011 119.57 237.011 119.57 237.011 119.57C237.011 119.57 237.011 119.57 237.011 119.57C237.01 119.57 237.01 119.57 237.01 119.57C237.01 119.57 237.01 119.57 237.01 119.57C237.009 119.57 237.009 119.57 237.009 119.57C237.009 119.57 237.009 119.57 237.009 119.57C237.009 119.57 237.008 119.57 237.008 119.57C237.008 119.57 237.008 119.57 237.008 119.57C237.008 119.57 237.007 119.57 237.007 119.57C237.007 119.57 237.007 119.57 237.007 119.57C237.007 119.57 237.007 119.57 237.006 119.57C237.006 119.57 237.006 119.57 237.006 119.57C237.006 119.57 237.006 119.57 237.005 119.57C237.005 119.57 237.005 119.57 237.005 119.57C237.005 119.57 237.005 119.57 237.005 119.57C237.004 119.57 237.004 119.57 237.004 119.57C237.004 119.57 237.004 119.57 237.004 119.57C237.003 119.57 237.003 119.57 237.003 119.57C237.003 119.57 237.003 119.57 237.003 119.57C237.003 119.57 237.002 119.57 237.002 119.57C237.002 119.57 237.002 119.57 237.002 119.57C237.002 119.57 237.002 119.57 237.001 119.57C237.001 119.57 237.001 119.57 237.001 119.57C237.001 119.57 237.001 119.57 237 119.57C237 119.57 237 119.57 237 119.57C237 119.57 237 119.57 237 119.57C236.999 119.57 236.999 119.57 236.999 119.57C236.999 119.57 236.999 119.57 236.999 119.57C236.998 119.57 236.998 119.57 236.998 119.57C236.998 119.57 236.998 119.57 236.998 119.57C236.998 119.57 236.997 119.57 236.997 119.57C236.997 119.57 236.997 119.57 236.997 119.57C236.997 119.57 236.996 119.57 236.996 119.57C236.996 119.57 236.996 119.57 236.996 119.57C236.996 119.57 236.996 119.57 236.995 119.57C236.995 119.57 236.995 119.57 236.995 119.57C236.995 119.57 236.995 119.57 236.995 119.57C236.994 119.57 236.994 119.57 236.994 119.57C236.994 119.57 236.994 119.57 236.994 119.57C236.993 119.57 236.993 119.57 236.993 119.57C236.993 119.57 236.993 119.57 236.993 119.57C236.993 119.57 236.992 119.57 236.992 119.57C236.992 119.57 236.992 119.57 236.992 119.57C236.992 119.57 236.992 119.57 236.991 119.57C236.991 119.57 236.991 119.57 236.991 119.57C236.991 119.57 236.991 119.57 236.99 119.57C236.99 119.57 236.99 119.57 236.99 119.57C236.99 119.57 236.99 119.57 236.99 119.57C236.989 119.57 236.989 119.57 236.989 119.57C236.989 119.57 236.989 119.57 236.989 119.57C236.989 119.57 236.988 119.57 236.988 119.57C236.988 119.57 236.988 119.57 236.988 119.57C236.988 119.57 236.987 119.57 236.987 119.57C236.987 119.57 236.987 119.57 236.987 119.57C236.987 119.57 236.987 119.57 236.986 119.57C236.986 119.57 236.986 119.57 236.986 119.57C236.986 119.57 236.986 119.57 236.986 119.57C236.985 119.57 236.985 119.57 236.985 119.57C236.985 119.57 236.985 119.57 236.985 119.57C236.985 119.57 236.984 119.57 236.984 119.57C236.984 119.57 236.984 119.57 236.984 119.57C236.984 119.57 236.983 119.57 236.983 119.57C236.983 119.57 236.983 119.57 236.983 119.57C236.983 119.57 236.983 119.57 236.982 119.57C236.982 119.57 236.982 119.57 236.982 119.57C236.982 119.57 236.982 119.57 236.982 119.57C236.981 119.57 236.981 119.57 236.981 119.57C236.981 119.57 236.981 119.57 236.981 119.57C236.981 119.57 236.98 119.57 236.98 119.57C236.98 119.57 236.98 119.57 236.98 119.57C236.98 119.57 236.979 119.57 236.979 119.57C236.979 119.57 236.979 119.57 236.979 119.57C236.979 119.57 236.979 119.57 236.978 119.57C236.978 119.57 236.978 119.57 236.978 119.57C236.978 119.57 236.978 119.57 236.978 119.57C236.977 119.57 236.977 119.57 236.977 119.57C236.977 119.57 236.977 119.57 236.977 119.57C236.977 119.57 236.976 119.57 236.976 119.57C236.976 119.57 236.976 119.57 236.976 119.57C236.976 119.57 236.976 119.57 236.975 119.57C236.975 119.57 236.975 119.57 236.975 119.57C236.975 119.57 236.975 119.57 236.975 119.57C236.974 119.57 236.974 119.57 236.974 119.57C236.974 119.57 236.974 119.57 236.974 119.57C236.974 119.57 236.973 119.57 236.973 119.57C236.973 119.57 236.973 119.57 236.973 119.57C236.973 119.57 236.973 119.57 236.972 119.57C236.972 119.57 236.972 119.57 236.972 119.57C236.972 119.57 236.972 119.57 236.972 119.57C236.971 119.57 236.971 119.57 236.971 119.57C236.971 119.57 236.971 119.57 236.971 119.57C236.971 119.57 236.97 119.57 236.97 119.57C236.97 119.57 236.97 119.57 236.97 119.57C236.97 119.57 236.969 119.57 236.969 119.57C236.969 119.57 236.969 119.57 236.969 119.57C236.969 119.57 236.969 119.57 236.969 119.57C236.968 119.57 236.968 119.57 236.968 119.57C236.968 119.57 236.968 119.57 236.968 119.57C236.968 119.57 236.967 119.57 236.967 119.57C236.967 119.57 236.967 119.57 236.967 119.57C236.967 119.57 236.967 119.57 236.966 119.57C236.966 119.57 236.966 119.57 236.966 119.57C236.966 119.57 236.966 119.57 236.966 119.57C236.965 119.57 236.965 119.57 236.965 119.57C236.965 119.57 236.965 119.57 236.965 119.57C236.965 119.57 236.964 119.57 236.964 119.57C236.964 119.57 236.964 119.57 236.964 119.57C236.964 119.57 236.964 119.57 236.963 119.57C236.963 119.57 236.963 119.57 236.963 119.57C236.963 119.57 236.963 119.57 236.963 119.57C236.962 119.57 236.962 119.57 236.962 119.57C236.962 119.57 236.962 119.57 236.962 119.57C236.962 119.57 236.961 119.57 236.961 119.57C236.961 119.57 236.961 119.57 236.961 119.57C236.961 119.57 236.961 119.57 236.96 119.57C236.96 119.57 236.96 119.57 236.96 119.57C236.96 119.57 236.96 119.57 236.96 119.57C236.959 119.57 236.959 119.57 236.959 119.57C236.959 119.57 236.959 119.57 236.959 119.57C236.959 119.57 236.959 119.57 236.958 119.57C236.958 119.57 236.958 119.57 236.958 119.57C236.958 119.57 236.958 119.57 236.958 119.57C236.957 119.57 236.957 119.57 236.957 119.57C236.957 119.57 236.957 119.57 236.957 119.57C236.957 119.57 236.956 119.57 236.956 119.57C236.956 119.57 236.956 119.57 236.956 119.57C236.956 119.57 236.956 119.57 236.956 119.57C236.955 119.57 236.955 119.57 236.955 119.57C236.955 119.57 236.955 119.57 236.955 119.57C236.955 119.57 236.954 119.57 236.954 119.57C236.954 119.57 236.954 119.57 236.954 119.57C236.954 119.57 236.954 119.57 236.953 119.57C236.953 119.57 236.953 119.57 236.953 119.57C236.953 119.57 236.953 119.57 236.953 119.57C236.953 119.57 236.952 119.57 236.952 119.57C236.952 119.57 236.952 119.57 236.952 119.57C236.952 119.57 236.952 119.57 236.951 119.57C236.951 119.57 236.951 119.57 236.951 119.57C236.951 119.57 236.951 119.57 236.951 119.57C236.95 119.57 236.95 119.57 236.95 119.57C236.95 119.57 236.95 119.57 236.95 119.57C236.95 119.57 236.95 119.57 236.949 119.57C236.949 119.57 236.949 119.57 236.949 119.57C236.949 119.57 236.949 119.57 236.949 119.57C236.948 119.57 236.948 119.57 236.948 119.57C236.948 119.57 236.948 119.57 236.948 119.57C236.948 119.57 236.948 119.57 236.947 119.57C236.947 119.57 236.947 119.57 236.947 119.57C236.947 119.57 236.947 119.57 236.947 119.57C236.946 119.57 236.946 119.57 236.946 119.57C236.946 119.57 236.946 119.57 236.946 119.57C236.946 119.57 236.946 119.57 236.945 119.57C236.945 119.57 236.945 119.57 236.945 119.57C236.945 119.57 236.945 119.57 236.945 119.57C236.945 119.57 236.944 119.57 236.944 119.57C236.944 119.57 236.944 119.57 236.944 119.57C236.944 119.57 236.944 119.57 236.943 119.57C236.943 119.57 236.943 119.57 236.943 119.57C236.943 119.57 236.943 119.57 236.943 119.57C236.943 119.57 236.942 119.57 236.942 119.57C236.942 119.57 236.942 119.57 236.942 119.57C236.942 119.57 236.942 119.57 236.942 119.57C236.941 119.57 236.941 119.57 236.941 119.57C236.941 119.57 236.941 119.57 236.941 119.57C236.941 119.57 236.94 119.57 236.94 119.57C236.94 119.57 236.94 119.57 236.94 119.57C236.94 119.57 236.94 119.57 236.94 119.57C236.939 119.57 236.939 119.57 236.939 119.57C236.939 119.57 236.939 119.57 236.939 119.57C236.939 119.57 236.939 119.57 236.938 119.57C236.938 119.57 236.938 119.57 236.938 119.57C236.938 119.57 236.938 119.57 236.938 119.57C236.938 119.57 236.937 119.57 236.937 119.57C236.937 119.57 236.937 119.57 236.937 119.57C236.937 119.57 236.937 119.57 236.937 119.57V120.723C236.937 120.723 236.937 120.723 236.937 120.723C236.937 120.723 236.937 120.723 236.937 120.723C236.937 120.723 236.938 120.723 236.938 120.723C236.938 120.723 236.938 120.723 236.938 120.723C236.938 120.723 236.938 120.723 236.938 120.723C236.939 120.723 236.939 120.723 236.939 120.723C236.939 120.723 236.939 120.723 236.939 120.723C236.939 120.723 236.939 120.723 236.94 120.723C236.94 120.723 236.94 120.723 236.94 120.723C236.94 120.723 236.94 120.723 236.94 120.723C236.94 120.723 236.941 120.723 236.941 120.723C236.941 120.723 236.941 120.723 236.941 120.723C236.941 120.723 236.941 120.723 236.942 120.723C236.942 120.723 236.942 120.723 236.942 120.723C236.942 120.723 236.942 120.723 236.942 120.723C236.942 120.723 236.943 120.723 236.943 120.723C236.943 120.723 236.943 120.723 236.943 120.723C236.943 120.723 236.943 120.723 236.943 120.723C236.944 120.723 236.944 120.723 236.944 120.723C236.944 120.723 236.944 120.723 236.944 120.723C236.944 120.723 236.945 120.723 236.945 120.723C236.945 120.723 236.945 120.723 236.945 120.723C236.945 120.723 236.945 120.723 236.945 120.723C236.946 120.723 236.946 120.723 236.946 120.723C236.946 120.723 236.946 120.723 236.946 120.723C236.946 120.723 236.946 120.723 236.947 120.723C236.947 120.723 236.947 120.723 236.947 120.723C236.947 120.723 236.947 120.723 236.947 120.723C236.948 120.723 236.948 120.723 236.948 120.723C236.948 120.723 236.948 120.723 236.948 120.723C236.948 120.723 236.948 120.723 236.949 120.723C236.949 120.723 236.949 120.723 236.949 120.723C236.949 120.723 236.949 120.723 236.949 120.723C236.95 120.723 236.95 120.723 236.95 120.723C236.95 120.723 236.95 120.723 236.95 120.723C236.95 120.723 236.95 120.723 236.951 120.723C236.951 120.723 236.951 120.723 236.951 120.723C236.951 120.723 236.951 120.723 236.951 120.723C236.952 120.723 236.952 120.723 236.952 120.723C236.952 120.723 236.952 120.723 236.952 120.723C236.952 120.723 236.953 120.723 236.953 120.723C236.953 120.723 236.953 120.723 236.953 120.723C236.953 120.723 236.953 120.723 236.953 120.723C236.954 120.723 236.954 120.723 236.954 120.723C236.954 120.723 236.954 120.723 236.954 120.723C236.954 120.723 236.955 120.723 236.955 120.723C236.955 120.723 236.955 120.723 236.955 120.723C236.955 120.723 236.955 120.723 236.956 120.723C236.956 120.723 236.956 120.723 236.956 120.723C236.956 120.723 236.956 120.723 236.956 120.723C236.956 120.723 236.957 120.723 236.957 120.723C236.957 120.723 236.957 120.723 236.957 120.723C236.957 120.723 236.957 120.723 236.958 120.723C236.958 120.723 236.958 120.723 236.958 120.723C236.958 120.723 236.958 120.723 236.958 120.723C236.959 120.723 236.959 120.723 236.959 120.723C236.959 120.723 236.959 120.723 236.959 120.723C236.959 120.723 236.959 120.723 236.96 120.723C236.96 120.723 236.96 120.723 236.96 120.723C236.96 120.723 236.96 120.723 236.96 120.723C236.961 120.723 236.961 120.723 236.961 120.723C236.961 120.723 236.961 120.723 236.961 120.723C236.961 120.723 236.962 120.723 236.962 120.723C236.962 120.723 236.962 120.723 236.962 120.723C236.962 120.723 236.962 120.723 236.963 120.723C236.963 120.723 236.963 120.723 236.963 120.723C236.963 120.723 236.963 120.723 236.963 120.723C236.964 120.723 236.964 120.723 236.964 120.723C236.964 120.723 236.964 120.723 236.964 120.723C236.964 120.723 236.965 120.723 236.965 120.723C236.965 120.723 236.965 120.723 236.965 120.723C236.965 120.723 236.965 120.723 236.966 120.723C236.966 120.723 236.966 120.723 236.966 120.723C236.966 120.723 236.966 120.723 236.966 120.723C236.967 120.723 236.967 120.723 236.967 120.723C236.967 120.723 236.967 120.723 236.967 120.723C236.967 120.723 236.968 120.723 236.968 120.723C236.968 120.723 236.968 120.723 236.968 120.723C236.968 120.723 236.968 120.723 236.969 120.723C236.969 120.723 236.969 120.723 236.969 120.723C236.969 120.723 236.969 120.723 236.969 120.723C236.969 120.723 236.97 120.723 236.97 120.723C236.97 120.723 236.97 120.723 236.97 120.723C236.97 120.723 236.971 120.723 236.971 120.723C236.971 120.723 236.971 120.723 236.971 120.723C236.971 120.723 236.971 120.723 236.972 120.723C236.972 120.723 236.972 120.723 236.972 120.723C236.972 120.723 236.972 120.723 236.972 120.723C236.973 120.723 236.973 120.723 236.973 120.723C236.973 120.723 236.973 120.723 236.973 120.723C236.973 120.723 236.974 120.723 236.974 120.723C236.974 120.723 236.974 120.723 236.974 120.723C236.974 120.723 236.974 120.723 236.975 120.723C236.975 120.723 236.975 120.723 236.975 120.723C236.975 120.723 236.975 120.723 236.975 120.723C236.976 120.723 236.976 120.723 236.976 120.723C236.976 120.723 236.976 120.723 236.976 120.723C236.976 120.723 236.977 120.723 236.977 120.723C236.977 120.723 236.977 120.723 236.977 120.723C236.977 120.723 236.977 120.723 236.978 120.723C236.978 120.723 236.978 120.723 236.978 120.723C236.978 120.723 236.978 120.723 236.978 120.723C236.979 120.723 236.979 120.723 236.979 120.723C236.979 120.723 236.979 120.723 236.979 120.723C236.979 120.723 236.98 120.723 236.98 120.723C236.98 120.723 236.98 120.723 236.98 120.723C236.98 120.723 236.981 120.723 236.981 120.723C236.981 120.723 236.981 120.723 236.981 120.723C236.981 120.723 236.981 120.723 236.982 120.723C236.982 120.723 236.982 120.723 236.982 120.723C236.982 120.723 236.982 120.723 236.982 120.723C236.983 120.723 236.983 120.723 236.983 120.723C236.983 120.723 236.983 120.723 236.983 120.723C236.983 120.723 236.984 120.723 236.984 120.723C236.984 120.723 236.984 120.723 236.984 120.723C236.984 120.723 236.985 120.723 236.985 120.723C236.985 120.723 236.985 120.723 236.985 120.723C236.985 120.723 236.985 120.723 236.986 120.723C236.986 120.723 236.986 120.723 236.986 120.723C236.986 120.723 236.986 120.723 236.986 120.723C236.987 120.723 236.987 120.723 236.987 120.723C236.987 120.723 236.987 120.723 236.987 120.723C236.987 120.723 236.988 120.723 236.988 120.723C236.988 120.723 236.988 120.723 236.988 120.723C236.988 120.723 236.989 120.723 236.989 120.723C236.989 120.723 236.989 120.723 236.989 120.723C236.989 120.723 236.989 120.723 236.99 120.723C236.99 120.723 236.99 120.723 236.99 120.723C236.99 120.723 236.99 120.723 236.99 120.723C236.991 120.723 236.991 120.723 236.991 120.723C236.991 120.723 236.991 120.723 236.991 120.723C236.992 120.723 236.992 120.723 236.992 120.723C236.992 120.723 236.992 120.723 236.992 120.723C236.992 120.723 236.993 120.723 236.993 120.723C236.993 120.723 236.993 120.723 236.993 120.723C236.993 120.723 236.993 120.723 236.994 120.723C236.994 120.723 236.994 120.723 236.994 120.723C236.994 120.723 236.994 120.723 236.995 120.723C236.995 120.723 236.995 120.723 236.995 120.723C236.995 120.723 236.995 120.723 236.995 120.723C236.996 120.723 236.996 120.723 236.996 120.723C236.996 120.723 236.996 120.723 236.996 120.723C236.996 120.723 236.997 120.723 236.997 120.723C236.997 120.723 236.997 120.723 236.997 120.723C236.997 120.723 236.998 120.723 236.998 120.723C236.998 120.723 236.998 120.723 236.998 120.723C236.998 120.723 236.998 120.723 236.999 120.723C236.999 120.723 236.999 120.723 236.999 120.723C236.999 120.723 236.999 120.723 237 120.723C237 120.723 237 120.723 237 120.723C237 120.723 237 120.723 237 120.723C237.001 120.723 237.001 120.723 237.001 120.723C237.001 120.723 237.001 120.723 237.001 120.723C237.002 120.723 237.002 120.723 237.002 120.723C237.002 120.723 237.002 120.723 237.002 120.723C237.002 120.723 237.003 120.723 237.003 120.723C237.003 120.723 237.003 120.723 237.003 120.723C237.003 120.723 237.003 120.723 237.004 120.723C237.004 120.723 237.004 120.723 237.004 120.723C237.004 120.723 237.004 120.723 237.005 120.723C237.005 120.723 237.005 120.723 237.005 120.723C237.005 120.723 237.005 120.723 237.005 120.723C237.006 120.723 237.006 120.723 237.006 120.723C237.006 120.723 237.006 120.723 237.006 120.723C237.007 120.723 237.007 120.723 237.007 120.723C237.007 120.723 237.007 120.723 237.007 120.723C237.007 120.723 237.008 120.723 237.008 120.723C237.008 120.723 237.008 120.723 237.008 120.723C237.008 120.723 237.009 120.723 237.009 120.723C237.009 120.723 237.009 120.723 237.009 120.723C237.009 120.723 237.009 120.723 237.01 120.723C237.01 120.723 237.01 120.723 237.01 120.723C237.01 120.723 237.01 120.723 237.011 120.723C237.011 120.723 237.011 120.723 237.011 120.723C237.011 120.723 237.011 120.723 237.011 120.723C237.012 120.723 237.012 120.723 237.012 120.723C237.012 120.723 237.012 120.723 237.012 120.723C237.013 120.723 237.013 120.723 237.013 120.723C237.013 120.723 237.013 120.723 237.013 120.723C237.014 120.723 237.014 120.723 237.014 120.723C237.014 120.723 237.014 120.723 237.014 120.723C237.014 120.723 237.015 120.723 237.015 120.723C237.015 120.723 237.015 120.723 237.015 120.723C237.015 120.723 237.016 120.723 237.016 120.723C237.016 120.723 237.016 120.723 237.016 120.723C237.016 120.723 237.016 120.723 237.017 120.723C237.017 120.723 237.017 120.723 237.017 120.723C237.017 120.723 237.017 120.723 237.018 120.723C237.018 120.723 237.018 120.723 237.018 120.723C237.018 120.723 237.018 120.723 237.018 120.723C237.019 120.723 237.019 120.723 237.019 120.723C237.019 120.723 237.019 120.723 237.019 120.723C237.02 120.723 237.02 120.723 237.02 120.723C237.02 120.723 237.02 120.723 237.02 120.723C237.02 120.723 237.021 120.723 237.021 120.723C237.021 120.723 237.021 120.723 237.021 120.723C237.021 120.723 237.022 120.723 237.022 120.723C237.022 120.723 237.022 120.723 237.022 120.723C237.022 120.723 237.023 120.723 237.023 120.723C237.023 120.723 237.023 120.723 237.023 120.723C237.023 120.723 237.023 120.723 237.024 120.723C237.024 120.723 237.024 120.723 237.024 120.723C237.024 120.723 237.024 120.723 237.025 120.723C237.025 120.723 237.025 120.723 237.025 120.723C237.025 120.723 237.025 120.723 237.025 120.723C237.026 120.723 237.026 120.723 237.026 120.723C237.026 120.723 237.026 120.723 237.026 120.723C237.027 120.723 237.027 120.723 237.027 120.723C237.027 120.723 237.027 120.723 237.027 120.723C237.028 120.723 237.028 120.723 237.028 120.723C237.028 120.723 237.028 120.723 237.028 120.723C237.028 120.723 237.029 120.723 237.029 120.723C237.029 120.723 237.029 120.723 237.029 120.723C237.029 120.723 237.03 120.723 237.03 120.723C237.03 120.723 237.03 120.723 237.03 120.723C237.03 120.723 237.03 120.723 237.031 120.723C237.031 120.723 237.031 120.723 237.031 120.723C237.031 120.723 237.031 120.723 237.032 120.723C237.032 120.723 237.032 120.723 237.032 120.723C237.032 120.723 237.032 120.723 237.033 120.723C237.033 120.723 237.033 120.723 237.033 120.723C237.033 120.723 237.033 120.723 237.033 120.723C237.034 120.723 237.034 120.723 237.034 120.723C237.034 120.723 237.034 120.723 237.034 120.723C237.035 120.723 237.035 120.723 237.035 120.723C237.035 120.723 237.035 120.723 237.035 120.723C237.036 120.723 237.036 120.723 237.036 120.723C237.036 120.723 237.036 120.723 237.036 120.723C237.036 120.723 237.037 120.723 237.037 120.723C237.037 120.723 237.037 120.723 237.037 120.723C237.037 120.723 237.038 120.723 237.038 120.723C237.038 120.723 237.038 120.723 237.038 120.723C237.038 120.723 237.039 120.723 237.039 120.723C237.039 120.723 237.039 120.723 237.039 120.723C237.039 120.723 237.039 120.723 237.04 120.723C237.04 120.723 237.04 120.723 237.04 120.723C237.04 120.723 237.04 120.723 237.041 120.723C237.041 120.723 237.041 120.723 237.041 120.723C237.041 120.723 237.041 120.723 237.042 120.723C237.042 120.723 237.042 120.723 237.042 120.723C237.042 120.723 237.042 120.723 237.042 120.723C237.043 120.723 237.043 120.723 237.043 120.723C237.043 120.723 237.043 120.723 237.043 120.723C237.044 120.723 237.044 120.723 237.044 120.723C237.044 120.723 237.044 120.723 237.044 120.723C237.044 120.723 237.045 120.723 237.045 120.723C237.045 120.723 237.045 120.723 237.045 120.723C237.045 120.723 237.046 120.723 237.046 120.723C237.046 120.723 237.046 120.723 237.046 120.723C237.046 120.723 237.047 120.723 237.047 120.723C237.047 120.723 237.047 120.723 237.047 120.723C237.047 120.723 237.047 120.723 237.048 120.723C237.048 120.723 237.048 120.723 237.048 120.723C237.048 120.723 237.048 120.723 237.049 120.723C237.049 120.723 237.049 120.723 237.049 120.723C237.049 120.723 237.049 120.723 237.05 120.723C237.05 120.723 237.05 120.723 237.05 120.723C237.05 120.723 237.05 120.723 237.05 120.723C237.051 120.723 237.051 120.723 237.051 120.723C237.051 120.723 237.051 120.723 237.051 120.723C237.052 120.723 237.052 120.723 237.052 120.723C237.052 120.723 237.052 120.723 237.052 120.723C237.053 120.723 237.053 120.723 237.053 120.723C237.053 120.723 237.053 120.723 237.053 120.723C237.053 120.723 237.054 120.723 237.054 120.723C237.054 120.723 237.054 120.723 237.054 120.723C237.054 120.723 237.055 120.723 237.055 120.723C237.055 120.723 237.055 120.723 237.055 120.723C237.055 120.723 237.056 120.723 237.056 120.723C237.056 120.723 237.056 120.723 237.056 120.723C237.056 120.723 237.056 120.723 237.057 120.723C237.057 120.723 237.057 120.723 237.057 120.723C237.057 120.723 237.057 120.723 237.058 120.723C237.058 120.723 237.058 120.723 237.058 120.723C237.058 120.723 237.058 120.723 237.059 120.723C237.059 120.723 237.059 120.723 237.059 120.723C237.059 120.723 237.059 120.723 237.059 120.723C237.06 120.723 237.06 120.723 237.06 120.723C237.06 120.723 237.06 120.723 237.06 120.723C237.061 120.723 237.061 120.723 237.061 120.723C237.061 120.723 237.061 120.723 237.061 120.723C237.062 120.723 237.062 120.723 237.062 120.723C237.062 120.723 237.062 120.723 237.062 120.723C237.062 120.723 237.063 120.723 237.063 120.723C237.063 120.723 237.063 120.723 237.063 120.723C237.063 120.723 237.064 120.723 237.064 120.723C237.064 120.723 237.064 120.723 237.064 120.723C237.064 120.723 237.065 120.723 237.065 120.723C237.065 120.723 237.065 120.723 237.065 120.723C237.065 120.723 237.065 120.723 237.066 120.723C237.066 120.723 237.066 120.723 237.066 120.723C237.066 120.723 237.066 120.723 237.067 120.723C237.067 120.723 237.067 120.723 237.067 120.723C237.067 120.723 237.067 120.723 237.067 120.723C237.068 120.723 237.068 120.723 237.068 120.723C237.068 120.723 237.068 120.723 237.068 120.723C237.069 120.723 237.069 120.723 237.069 120.723C237.069 120.723 237.069 120.723 237.069 120.723C237.07 120.723 237.07 120.723 237.07 120.723C237.07 120.723 237.07 120.723 237.07 120.723C237.07 120.723 237.071 120.723 237.071 120.723C237.071 120.723 237.071 120.723 237.071 120.723C237.071 120.723 237.072 120.723 237.072 120.723C237.072 120.723 237.072 120.723 237.072 120.723C237.072 120.723 237.073 120.723 237.073 120.723C237.073 120.723 237.073 120.723 237.073 120.723C237.073 120.723 237.073 120.723 237.074 120.723C237.074 120.723 237.074 120.723 237.074 120.723C237.074 120.723 237.074 120.723 237.075 120.723C237.075 120.723 237.075 120.723 237.075 120.723C237.075 120.723 237.075 120.723 237.075 120.723C237.076 120.723 237.076 120.723 237.076 120.723C237.076 120.723 237.076 120.723 237.076 120.723C237.077 120.723 237.077 120.723 237.077 120.723C237.077 120.723 237.077 120.723 237.077 120.723C237.078 120.723 237.078 120.723 237.078 120.723C237.078 120.723 237.078 120.723 237.078 120.723C237.078 120.723 237.079 120.723 237.079 120.723C237.079 120.723 237.079 120.723 237.079 120.723C237.079 120.723 237.08 120.723 237.08 120.723C237.08 120.723 237.08 120.723 237.08 120.723C237.08 120.723 237.08 120.723 237.081 120.723C237.081 120.723 237.081 120.723 237.081 120.723C237.081 120.723 237.081 120.723 237.082 120.723C237.082 120.723 237.082 120.723 237.082 120.723C237.082 120.723 237.082 120.723 237.082 120.723C237.083 120.723 237.083 120.723 237.083 120.723C237.083 120.723 237.083 120.723 237.083 120.723C237.084 120.723 237.084 120.723 237.084 120.723C237.084 120.723 237.084 120.723 237.084 120.723C237.084 120.723 237.085 120.723 237.085 120.723C237.085 120.723 237.085 120.723 237.085 120.723C237.085 120.723 237.086 120.723 237.086 120.723C237.086 120.723 237.086 120.723 237.086 120.723C237.086 120.723 237.087 120.723 237.087 120.723C237.087 120.723 237.087 120.723 237.087 120.723C237.087 120.723 237.087 120.723 237.088 120.723C237.088 120.723 237.088 120.723 237.088 120.723C237.088 120.723 237.088 120.723 237.089 120.723C237.089 120.723 237.089 120.723 237.089 120.723C237.089 120.723 237.089 120.723 237.089 120.723C237.09 120.723 237.09 120.723 237.09 120.723C237.09 120.723 237.09 120.723 237.09 120.723C237.091 120.723 237.091 120.723 237.091 120.723C237.091 120.723 237.091 120.723 237.091 120.723C237.091 120.723 237.092 120.723 237.092 120.723C237.092 120.723 237.092 120.723 237.092 120.723C237.092 120.723 237.093 120.723 237.093 120.723C237.093 120.723 237.093 120.723 237.093 120.723C237.093 120.723 237.093 120.723 237.094 120.723C237.094 120.723 237.094 120.723 237.094 120.723C237.094 120.723 237.094 120.723 237.095 120.723C237.095 120.723 237.095 120.723 237.095 120.723C237.095 120.723 237.095 120.723 237.095 120.723C237.096 120.723 237.096 120.723 237.096 120.723C237.096 120.723 237.096 120.723 237.096 120.723C237.097 120.723 237.097 120.723 237.097 120.723C237.097 120.723 237.097 120.723 237.097 120.723C237.097 120.723 237.098 120.723 237.098 120.723C237.098 120.723 237.098 120.723 237.098 120.723C237.098 120.723 237.098 120.723 237.099 120.723C237.099 120.723 237.099 120.723 237.099 120.723C237.099 120.723 237.099 120.723 237.1 120.723C237.1 120.723 237.1 120.723 237.1 120.723C237.1 120.723 237.1 120.723 237.1 120.723C237.101 120.723 237.101 120.723 237.101 120.723C237.101 120.723 237.101 120.723 237.101 120.723C237.102 120.723 237.102 120.723 237.102 120.723C237.102 120.723 237.102 120.723 237.102 120.723C237.102 120.723 237.103 120.723 237.103 120.723C237.103 120.723 237.103 120.723 237.103 120.723C237.103 120.723 237.103 120.723 237.104 120.723C237.104 120.723 237.104 120.723 237.104 120.723C237.104 120.723 237.104 120.723 237.105 120.723C237.105 120.723 237.105 120.723 237.105 120.723C237.105 120.723 237.105 120.723 237.105 120.723C237.106 120.723 237.106 120.723 237.106 120.723C237.106 120.723 237.106 120.723 237.106 120.723C237.107 120.723 237.107 120.723 237.107 120.723C237.107 120.723 237.107 120.723 237.107 120.723C237.107 120.723 237.108 120.723 237.108 120.723C237.108 120.723 237.108 120.723 237.108 120.723C237.108 120.723 237.108 120.723 237.109 120.723C237.109 120.723 237.109 120.723 237.109 120.723C237.109 120.723 237.109 120.723 237.11 120.723C237.11 120.723 237.11 120.723 237.11 120.723C237.11 120.723 237.11 120.723 237.11 120.723C237.111 120.723 237.111 120.723 237.111 120.723C237.111 120.723 237.111 120.723 237.111 120.723C237.111 120.723 237.112 120.723 237.112 120.723C237.112 120.723 237.112 120.723 237.112 120.723C237.112 120.723 237.113 120.723 237.113 120.723C237.113 120.723 237.113 120.723 237.113 120.723C237.113 120.723 237.113 120.723 237.114 120.723C237.114 120.723 237.114 120.723 237.114 120.723C237.114 120.723 237.114 120.723 237.114 120.723C237.115 120.723 237.115 120.723 237.115 120.723C237.115 120.723 237.115 120.723 237.115 120.723C237.115 120.723 237.116 120.723 237.116 120.723C237.116 120.723 237.116 120.723 237.116 120.723C237.116 120.723 237.117 120.723 237.117 120.723C237.117 120.723 237.117 120.723 237.117 120.723C237.117 120.723 237.117 120.723 237.118 120.723C237.118 120.723 237.118 120.723 237.118 120.723C237.118 120.723 237.118 120.723 237.118 120.723C237.119 120.723 237.119 120.723 237.119 120.723C237.119 120.723 237.119 120.723 237.119 120.723C237.119 120.723 237.12 120.723 237.12 120.723C237.12 120.723 237.12 120.723 237.12 120.723C237.12 120.723 237.12 120.723 237.121 120.723C237.121 120.723 237.121 120.723 237.121 120.723C237.121 120.723 237.121 120.723 237.121 120.723C237.122 120.723 237.122 120.723 237.122 120.723C237.122 120.723 237.122 120.723 237.122 120.723C237.123 120.723 237.123 120.723 237.123 120.723C237.123 120.723 237.123 120.723 237.123 120.723C237.123 120.723 237.124 120.723 237.124 120.723C237.124 120.723 237.124 120.723 237.124 120.723C237.124 120.723 237.124 120.723 237.125 120.723C237.125 120.723 237.125 120.723 237.125 120.723C237.125 120.723 237.125 120.723 237.125 120.723C237.126 120.723 237.126 120.723 237.126 120.723C237.126 120.723 237.126 120.723 237.126 120.723C237.126 120.723 237.127 120.723 237.127 120.723C237.127 120.723 237.127 120.723 237.127 120.723C237.127 120.723 237.127 120.723 237.128 120.723C237.128 120.723 237.128 120.723 237.128 120.723C237.128 120.723 237.128 120.723 237.128 120.723C237.129 120.723 237.129 120.723 237.129 120.723C237.129 120.723 237.129 120.723 237.129 120.723C237.129 120.723 237.13 120.723 237.13 120.723C237.13 120.723 237.13 120.723 237.13 120.723C237.13 120.723 237.13 120.723 237.131 120.723C237.131 120.723 237.131 120.723 237.131 120.723C237.131 120.723 237.131 120.723 237.131 120.723C237.132 120.723 237.132 120.723 237.132 120.723C237.132 120.723 237.132 120.723 237.132 120.723C237.132 120.723 237.133 120.723 237.133 120.723C237.133 120.723 237.133 120.723 237.133 120.723C237.133 120.723 237.133 120.723 237.134 120.723C237.134 120.723 237.134 120.723 237.134 120.723C237.134 120.723 237.134 120.723 237.134 120.723C237.135 120.723 237.135 120.723 237.135 120.723C237.135 120.723 237.135 120.723 237.135 120.723C237.135 120.723 237.136 120.723 237.136 120.723C237.136 120.723 237.136 120.723 237.136 120.723C237.136 120.723 237.136 120.723 237.137 120.723C237.137 120.723 237.137 120.723 237.137 120.723C237.137 120.723 237.137 120.723 237.137 120.723C237.137 120.723 237.138 120.723 237.138 120.723C237.138 120.723 237.138 120.723 237.138 120.723C237.138 120.723 237.138 120.723 237.139 120.723C237.139 120.723 237.139 120.723 237.139 120.723C237.139 120.723 237.139 120.723 237.139 120.723C237.14 120.723 237.14 120.723 237.14 120.723C237.14 120.723 237.14 120.723 237.14 120.723C237.14 120.723 237.141 120.723 237.141 120.723C237.141 120.723 237.141 120.723 237.141 120.723C237.141 120.723 237.141 120.723 237.142 120.723C237.142 120.723 237.142 120.723 237.142 120.723C237.142 120.723 237.142 120.723 237.142 120.723C237.142 120.723 237.143 120.723 237.143 120.723C237.143 120.723 237.143 120.723 237.143 120.723C237.143 120.723 237.143 120.723 237.144 120.723C237.144 120.723 237.144 120.723 237.144 120.723C237.144 120.723 237.144 120.723 237.144 120.723C237.145 120.723 237.145 120.723 237.145 120.723C237.145 120.723 237.145 120.723 237.145 120.723C237.145 120.723 237.145 120.723 237.146 120.723C237.146 120.723 237.146 120.723 237.146 120.723C237.146 120.723 237.146 120.723 237.146 120.723C237.147 120.723 237.147 120.723 237.147 120.723C237.147 120.723 237.147 120.723 237.147 120.723C237.147 120.723 237.148 120.723 237.148 120.723C237.148 120.723 237.148 120.723 237.148 120.723C237.148 120.723 237.148 120.723 237.148 120.723C237.149 120.723 237.149 120.723 237.149 120.723C237.149 120.723 237.149 120.723 237.149 120.723C237.149 120.723 237.15 120.723 237.15 120.723C237.15 120.723 237.15 120.723 237.15 120.723C237.15 120.723 237.15 120.723 237.15 120.723C237.151 120.723 237.151 120.723 237.151 120.723C237.151 120.723 237.151 120.723 237.151 120.723C237.151 120.723 237.152 120.723 237.152 120.723C237.152 120.723 237.152 120.723 237.152 120.723C237.152 120.723 237.152 120.723 237.152 120.723C237.153 120.723 237.153 120.723 237.153 120.723C237.153 120.723 237.153 120.723 237.153 120.723C237.153 120.723 237.154 120.723 237.154 120.723C237.154 120.723 237.154 120.723 237.154 120.723C237.154 120.723 237.154 120.723 237.154 120.723C237.155 120.723 237.155 120.723 237.155 120.723C237.155 120.723 237.155 120.723 237.155 120.723C237.155 120.723 237.155 120.723 237.156 120.723C237.156 120.723 237.156 120.723 237.156 120.723C237.156 120.723 237.156 120.723 237.156 120.723C237.157 120.723 237.157 120.723 237.157 120.723C237.157 120.723 237.157 120.723 237.157 120.723C237.157 120.723 237.157 120.723 237.158 120.723C237.158 120.723 237.158 120.723 237.158 120.723C237.158 120.723 237.158 120.723 237.158 120.723C237.158 120.723 237.159 120.723 237.159 120.723C237.159 120.723 237.159 120.723 237.159 120.723C237.159 120.723 237.159 120.723 237.159 120.723C237.16 120.723 237.16 120.723 237.16 120.723C237.16 120.723 237.16 120.723 237.16 120.723C237.16 120.723 237.161 120.723 237.161 120.723C237.161 120.723 237.161 120.723 237.161 120.723C237.161 120.723 237.161 120.723 237.161 120.723C237.162 120.723 237.162 120.723 237.162 120.723C237.162 120.723 237.162 120.723 237.162 120.723C237.162 120.723 237.162 120.723 237.163 120.723V119.57ZM236.937 119.57C236.779 119.57 236.687 119.52 236.633 119.468C236.578 119.413 236.521 119.315 236.511 119.146L235.36 119.21C235.383 119.622 235.536 120.008 235.827 120.292C236.121 120.579 236.513 120.723 236.937 120.723V119.57ZM236.483 118.995C236.484 119.001 236.483 118.998 236.482 118.984C236.48 118.969 236.48 118.953 236.48 118.919H235.327C235.327 118.98 235.323 119.164 235.389 119.36L236.483 118.995ZM236.48 118.919C236.48 118.745 236.525 118.66 236.561 118.619C236.596 118.581 236.68 118.514 236.897 118.492L236.782 117.345C236.353 117.388 235.97 117.547 235.697 117.856C235.427 118.162 235.327 118.545 235.327 118.919H236.48ZM236.918 118.49C240.019 118.065 244.312 116.988 246.902 115.76L246.407 114.718C243.961 115.879 239.794 116.932 236.762 117.347L236.918 118.49ZM246.974 115.719C247.043 115.673 247.113 115.654 247.236 115.654V114.501C246.971 114.501 246.653 114.547 246.335 114.759L246.974 115.719ZM247.236 115.654C247.424 115.654 247.59 115.742 247.707 116.015L248.766 115.561C248.496 114.929 247.952 114.501 247.236 114.501V115.654ZM247.701 116.002C247.736 116.088 247.757 116.208 247.757 116.304H248.91C248.91 116.078 248.867 115.811 248.772 115.574L247.701 116.002ZM247.757 116.304C247.757 116.54 247.618 116.776 247.333 116.919L247.849 117.95C248.467 117.641 248.91 117.037 248.91 116.304H247.757ZM247.366 116.904C246.327 117.344 244.963 117.821 243.466 118.235L243.773 119.346C245.311 118.921 246.724 118.428 247.816 117.965L247.366 116.904ZM243.043 118.79V124.376H244.196V118.79H243.043ZM243.62 124.952H248.204V123.799H243.62V124.952ZM248.204 124.952C248.302 124.952 248.361 124.986 248.412 125.055C248.475 125.139 248.532 125.292 248.532 125.506H249.685C249.685 125.106 249.58 124.694 249.336 124.366C249.081 124.023 248.688 123.799 248.204 123.799V124.952ZM248.532 125.506C248.532 125.774 248.472 125.906 248.433 125.958C248.411 125.986 248.373 126.027 248.236 126.027V127.18C248.681 127.18 249.079 127.011 249.348 126.659C249.599 126.332 249.685 125.915 249.685 125.506H248.532ZM248.236 126.027H243.62V127.18H248.236V126.027ZM243.043 126.603V131.769H244.196V126.603H243.043ZM243.62 132.346H245.46V131.193H243.62V132.346ZM245.46 132.346C246.295 132.346 246.771 132.509 247.044 132.759C247.306 132.999 247.499 133.428 247.499 134.255H248.652C248.652 133.274 248.425 132.46 247.823 131.909C247.233 131.368 246.401 131.193 245.46 131.193V132.346ZM247.499 134.255V141.422H248.652V134.255H247.499ZM247.499 141.422C247.499 142.281 247.298 142.735 247.019 142.992C246.729 143.258 246.229 143.429 245.363 143.429V144.582C246.338 144.582 247.193 144.397 247.799 143.841C248.416 143.274 248.652 142.436 248.652 141.422H247.499ZM245.363 143.429H239.455V144.582H245.363V143.429ZM239.455 143.429C238.589 143.429 238.089 143.258 237.799 142.992C237.52 142.735 237.319 142.281 237.319 141.422H236.166C236.166 142.436 236.402 143.274 237.019 143.841C237.625 144.397 238.48 144.582 239.455 144.582V143.429ZM237.319 141.422V134.255H236.166V141.422H237.319ZM237.319 134.255C237.319 133.428 237.512 132.999 237.774 132.759C238.047 132.509 238.523 132.346 239.358 132.346V131.193C238.417 131.193 237.585 131.368 236.995 131.909C236.393 132.46 236.166 133.274 236.166 134.255H237.319ZM239.358 132.346H241.295V131.193H239.358V132.346ZM241.872 131.769V126.603H240.719V131.769H241.872ZM241.295 126.027H236.452V127.18H241.295V126.027ZM236.452 126.027C236.328 126.027 236.275 125.987 236.238 125.939C236.187 125.873 236.125 125.729 236.125 125.473H234.972C234.972 125.895 235.071 126.317 235.327 126.646C235.596 126.994 235.995 127.18 236.452 127.18V126.027ZM236.125 125.473C236.125 125.239 236.184 125.104 236.234 125.04C236.272 124.993 236.327 124.952 236.452 124.952V123.799C235.996 123.799 235.6 123.985 235.33 124.325C235.074 124.648 234.972 125.062 234.972 125.473H236.125ZM236.452 124.952H241.295V123.799H236.452V124.952ZM238.555 134.739V140.97H239.708V134.739H238.555ZM238.555 140.97C238.555 141.364 238.643 141.784 238.987 142.073C239.304 142.341 239.718 142.386 240.068 142.386V141.233C239.932 141.233 239.842 141.223 239.784 141.209C239.728 141.196 239.72 141.184 239.729 141.191C239.767 141.223 239.708 141.223 239.708 140.97H238.555ZM240.068 142.386H244.911V141.233H240.068V142.386ZM244.911 142.386C245.239 142.386 245.661 142.345 245.956 142.019C246.234 141.713 246.262 141.295 246.262 140.97H245.109C245.109 141.113 245.1 141.198 245.089 141.246C245.079 141.291 245.074 141.275 245.101 141.245C245.131 141.212 245.157 141.208 245.136 141.214C245.106 141.222 245.04 141.233 244.911 141.233V142.386ZM246.262 140.97V134.739H245.109V140.97H246.262ZM246.262 134.739C246.262 134.408 246.237 133.979 245.95 133.672C245.649 133.35 245.218 133.323 244.911 133.323V134.476C245.046 134.476 245.116 134.486 245.149 134.495C245.174 134.501 245.143 134.497 245.108 134.459C245.075 134.424 245.078 134.403 245.088 134.448C245.1 134.498 245.109 134.587 245.109 134.739H246.262ZM244.911 133.323H240.068V134.476H244.911V133.323ZM240.068 133.323C239.735 133.323 239.316 133.356 238.994 133.619C238.638 133.908 238.555 134.339 238.555 134.739H239.708C239.708 134.462 239.771 134.473 239.722 134.512C239.709 134.523 239.714 134.512 239.772 134.499C239.833 134.486 239.926 134.476 240.068 134.476V133.323ZM250.948 122.734H248.979V123.887H250.948V122.734ZM248.979 122.734C248.892 122.734 248.83 122.702 248.776 122.633C248.713 122.553 248.652 122.403 248.652 122.18H247.499C247.499 122.604 247.615 123.019 247.867 123.342C248.127 123.676 248.517 123.887 248.979 123.887V122.734ZM248.652 122.18C248.652 121.925 248.713 121.791 248.758 121.734C248.789 121.694 248.834 121.659 248.947 121.659V120.506C248.51 120.506 248.119 120.681 247.852 121.021C247.598 121.343 247.499 121.758 247.499 122.18H248.652ZM248.947 121.659H250.948V120.506H248.947V121.659ZM251.525 121.083V116.111H250.372V121.083H251.525ZM251.525 116.111C251.525 116.034 251.54 115.992 251.551 115.969C251.562 115.948 251.579 115.925 251.613 115.901C251.693 115.846 251.866 115.783 252.175 115.783V114.63C251.742 114.63 251.302 114.713 250.953 114.956C250.574 115.22 250.372 115.629 250.372 116.111H251.525ZM252.175 115.783C252.485 115.783 252.658 115.846 252.737 115.901C252.772 115.925 252.789 115.948 252.8 115.969C252.811 115.992 252.826 116.034 252.826 116.111H253.979C253.979 115.629 253.776 115.22 253.397 114.956C253.049 114.713 252.608 114.63 252.175 114.63V115.783ZM252.826 116.111V121.083H253.979V116.111H252.826ZM253.402 121.659H260.44V120.506H253.402V121.659ZM261.017 121.083V116.111H259.864V121.083H261.017ZM261.017 116.111C261.017 116.034 261.032 115.992 261.043 115.969C261.054 115.948 261.071 115.925 261.105 115.901C261.185 115.846 261.357 115.783 261.667 115.783V114.63C261.234 114.63 260.794 114.713 260.445 114.956C260.066 115.22 259.864 115.629 259.864 116.111H261.017ZM261.667 115.783C261.977 115.783 262.15 115.846 262.229 115.901C262.264 115.925 262.281 115.948 262.292 115.969C262.303 115.992 262.318 116.034 262.318 116.111H263.471C263.471 115.629 263.268 115.22 262.889 114.956C262.541 114.713 262.1 114.63 261.667 114.63V115.783ZM262.318 116.111V121.083H263.471V116.111H262.318ZM262.894 121.659H264.767V120.506H262.894V121.659ZM264.767 121.659C264.891 121.659 264.944 121.699 264.981 121.747C265.032 121.813 265.094 121.957 265.094 122.213H266.247C266.247 121.791 266.148 121.369 265.892 121.04C265.622 120.692 265.223 120.506 264.767 120.506V121.659ZM265.094 122.213C265.094 122.447 265.035 122.582 264.985 122.646C264.947 122.693 264.892 122.734 264.767 122.734V123.887C265.223 123.887 265.619 123.702 265.889 123.361C266.145 123.038 266.247 122.624 266.247 122.213H265.094ZM264.767 122.734H262.894V123.887H264.767V122.734ZM262.318 123.31V141.39H263.471V123.31H262.318ZM262.318 141.39C262.318 142.249 262.117 142.703 261.838 142.959C261.548 143.226 261.048 143.397 260.182 143.397V144.55C261.157 144.55 262.012 144.365 262.618 143.808C263.235 143.241 263.471 142.404 263.471 141.39H262.318ZM260.182 143.397H253.628V144.55H260.182V143.397ZM253.628 143.397C252.781 143.397 252.289 143.227 252.002 142.961C251.726 142.704 251.525 142.249 251.525 141.39H250.372C250.372 142.404 250.607 143.24 251.218 143.807C251.82 144.364 252.668 144.55 253.628 144.55V143.397ZM251.525 141.39V123.31H250.372V141.39H251.525ZM252.826 132.931V140.906H253.979V132.931H252.826ZM252.826 140.906C252.826 141.3 252.913 141.719 253.257 142.009C253.575 142.276 253.988 142.322 254.338 142.322V141.169C254.202 141.169 254.112 141.158 254.054 141.144C253.999 141.131 253.991 141.119 254 141.127C254.037 141.158 253.979 141.158 253.979 140.906H252.826ZM254.338 142.322H259.472V141.169H254.338V142.322ZM259.472 142.322C259.824 142.322 260.237 142.275 260.558 142.018C260.913 141.735 261.017 141.317 261.017 140.906H259.864C259.864 141.141 259.807 141.143 259.838 141.118C259.841 141.115 259.826 141.129 259.765 141.144C259.701 141.158 259.608 141.169 259.472 141.169V142.322ZM261.017 140.906V132.931H259.864V140.906H261.017ZM260.44 132.355H253.402V133.508H260.44V132.355ZM261.017 130.736V123.31H259.864V130.736H261.017ZM260.44 122.734H253.402V123.887H260.44V122.734ZM252.826 123.31V130.736H253.979V123.31H252.826ZM253.402 131.312H260.44V130.159H253.402V131.312Z" fill="#59391D" mask="url(#path-9-outside-1_2376_1881)"/>
<ellipse cx="5.76527" cy="5.87352" rx="5.76527" ry="5.87352" transform="matrix(0.999947 -0.0103167 -0.0173517 0.999849 300.915 79.9226)" fill="#59391D"/>
<ellipse cx="5.76527" cy="5.87352" rx="5.76527" ry="5.87352" transform="matrix(0.999947 -0.0103167 -0.0173517 0.999849 353.286 80.8574)" fill="#59391D"/>
<path d="M311.404 110.149C318.018 113.538 325.121 115.103 332.184 114.713C339.423 114.312 346.403 111.869 352.582 107.591C353.771 106.768 354.019 104.927 353.216 103.444C352.31 101.77 350.451 101.209 349.127 102.092C343.803 105.645 337.835 107.674 331.658 108.015C325.525 108.355 319.361 107.021 313.61 104.131C312.071 103.357 310.348 103.94 309.729 105.598C309.113 107.247 309.834 109.344 311.404 110.149Z" fill="#59391D" stroke="#59391D" stroke-width="0.576527"/>
<path d="M53.2504 255.689C48.4648 255.689 44.1764 254.912 40.3853 253.358C36.5941 251.805 33.5487 249.505 31.2492 246.46C29.0117 243.414 27.8309 239.747 27.7066 235.459H44.6736C44.9222 237.883 45.7613 239.747 47.1907 241.053C48.6202 242.296 50.4847 242.917 52.7843 242.917C55.146 242.917 57.0105 242.389 58.3778 241.332C59.7451 240.214 60.4288 238.691 60.4288 236.764C60.4288 235.148 59.8694 233.812 58.7507 232.755C57.6942 231.699 56.3579 230.829 54.742 230.145C53.1883 229.461 50.9508 228.685 48.0298 227.814C43.8035 226.509 40.3542 225.204 37.6817 223.899C35.0093 222.594 32.7097 220.667 30.783 218.119C28.8564 215.571 27.893 212.246 27.893 208.144C27.893 202.053 30.0994 197.299 34.5121 193.88C38.9247 190.4 44.6736 188.66 51.7588 188.66C58.9682 188.66 64.7793 190.4 69.192 193.88C73.6047 197.299 75.9664 202.084 76.2771 208.237H59.0304C58.9061 206.124 58.1292 204.477 56.6997 203.296C55.2703 202.053 53.4369 201.432 51.1994 201.432C49.2728 201.432 47.719 201.96 46.5382 203.016C45.3573 204.011 44.7669 205.471 44.7669 207.398C44.7669 209.511 45.7613 211.158 47.7501 212.339C49.7389 213.52 52.8464 214.794 57.0727 216.161C61.2989 217.591 64.7172 218.958 67.3275 220.263C69.9999 221.568 72.2995 223.464 74.2262 225.95C76.1528 228.436 77.1162 231.637 77.1162 235.552C77.1162 239.281 76.1528 242.668 74.2262 245.714C72.3617 248.759 69.627 251.183 66.0223 252.985C62.4176 254.788 58.1603 255.689 53.2504 255.689ZM135.497 203.016V255.036H119.556V247.951C117.94 250.251 115.733 252.115 112.937 253.545C110.202 254.912 107.157 255.596 103.801 255.596C99.8229 255.596 96.3114 254.726 93.266 252.985C90.2207 251.183 87.859 248.604 86.1809 245.248C84.5028 241.892 83.6638 237.945 83.6638 233.408V203.016H99.5122V231.264C99.5122 234.744 100.413 237.448 102.216 239.374C104.018 241.301 106.442 242.264 109.487 242.264C112.595 242.264 115.05 241.301 116.852 239.374C118.654 237.448 119.556 234.744 119.556 231.264V203.016H135.497ZM163.915 202.271C167.582 202.271 170.783 203.016 173.517 204.508C176.314 206 178.458 207.957 179.95 210.381V203.016H195.891V254.943C195.891 259.729 194.928 264.048 193.001 267.902C191.137 271.817 188.247 274.925 184.331 277.224C180.478 279.524 175.661 280.673 169.881 280.673C162.175 280.673 155.929 278.84 151.143 275.173C146.358 271.568 143.623 266.659 142.939 260.443H158.694C159.192 262.432 160.372 263.986 162.237 265.105C164.101 266.286 166.401 266.876 169.136 266.876C172.43 266.876 175.04 265.913 176.967 263.986C178.955 262.122 179.95 259.107 179.95 254.943V247.578C178.396 250.002 176.252 251.991 173.517 253.545C170.783 255.036 167.582 255.782 163.915 255.782C159.627 255.782 155.742 254.695 152.262 252.519C148.781 250.282 146.016 247.143 143.965 243.103C141.976 239.002 140.982 234.278 140.982 228.933C140.982 223.588 141.976 218.896 143.965 214.856C146.016 210.816 148.781 207.709 152.262 205.534C155.742 203.358 159.627 202.271 163.915 202.271ZM179.95 229.026C179.95 225.049 178.831 221.91 176.594 219.611C174.418 217.311 171.746 216.161 168.576 216.161C165.407 216.161 162.703 217.311 160.466 219.611C158.29 221.848 157.203 224.956 157.203 228.933C157.203 232.911 158.29 236.081 160.466 238.442C162.703 240.742 165.407 241.892 168.576 241.892C171.746 241.892 174.418 240.742 176.594 238.442C178.831 236.143 179.95 233.004 179.95 229.026ZM201.458 228.933C201.458 223.588 202.452 218.896 204.441 214.856C206.492 210.816 209.258 207.709 212.738 205.534C216.219 203.358 220.103 202.271 224.392 202.271C228.058 202.271 231.259 203.016 233.994 204.508C236.791 206 238.935 207.957 240.426 210.381V203.016H256.368V255.036H240.426V247.672C238.873 250.095 236.697 252.053 233.901 253.545C231.166 255.036 227.965 255.782 224.298 255.782C220.072 255.782 216.219 254.695 212.738 252.519C209.258 250.282 206.492 247.143 204.441 243.103C202.452 239.002 201.458 234.278 201.458 228.933ZM240.426 229.026C240.426 225.049 239.308 221.91 237.07 219.611C234.895 217.311 232.222 216.161 229.053 216.161C225.883 216.161 223.18 217.311 220.942 219.611C218.767 221.848 217.679 224.956 217.679 228.933C217.679 232.911 218.767 236.081 220.942 238.442C223.18 240.742 225.883 241.892 229.053 241.892C232.222 241.892 234.895 240.742 237.07 238.442C239.308 236.143 240.426 233.004 240.426 229.026ZM281.046 211.686C282.91 208.828 285.241 206.59 288.038 204.974C290.834 203.296 293.942 202.457 297.36 202.457V219.331H292.979C289.001 219.331 286.018 220.201 284.029 221.941C282.04 223.619 281.046 226.603 281.046 230.891V255.036H265.104V203.016H281.046V211.686ZM309.641 255.782C306.844 255.782 304.545 254.974 302.743 253.358C301.002 251.68 300.132 249.629 300.132 247.205C300.132 244.719 301.002 242.637 302.743 240.959C304.545 239.281 306.844 238.442 309.641 238.442C312.376 238.442 314.613 239.281 316.353 240.959C318.156 242.637 319.057 244.719 319.057 247.205C319.057 249.629 318.156 251.68 316.353 253.358C314.613 254.974 312.376 255.782 309.641 255.782ZM372.776 189.592V202.364H355.436V255.036H339.495V202.364H322.155V189.592H372.776ZM401.659 255.782C396.563 255.782 391.964 254.695 387.862 252.519C383.822 250.344 380.621 247.237 378.26 243.197C375.96 239.157 374.81 234.434 374.81 229.026C374.81 223.681 375.991 218.989 378.353 214.949C380.715 210.847 383.946 207.709 388.048 205.534C392.15 203.358 396.749 202.271 401.846 202.271C406.942 202.271 411.541 203.358 415.643 205.534C419.745 207.709 422.977 210.847 425.339 214.949C427.7 218.989 428.881 223.681 428.881 229.026C428.881 234.371 427.669 239.095 425.245 243.197C422.884 247.237 419.621 250.344 415.457 252.519C411.355 254.695 406.756 255.782 401.659 255.782ZM401.659 241.985C404.705 241.985 407.284 240.866 409.397 238.629C411.572 236.391 412.66 233.191 412.66 229.026C412.66 224.862 411.603 221.662 409.49 219.424C407.439 217.187 404.891 216.068 401.846 216.068C398.738 216.068 396.159 217.187 394.108 219.424C392.057 221.599 391.032 224.8 391.032 229.026C391.032 233.191 392.026 236.391 394.015 238.629C396.066 240.866 398.614 241.985 401.659 241.985ZM450.483 210.381C452.037 207.957 454.181 206 456.916 204.508C459.65 203.016 462.851 202.271 466.518 202.271C470.806 202.271 474.691 203.358 478.171 205.534C481.652 207.709 484.386 210.816 486.375 214.856C488.426 218.896 489.452 223.588 489.452 228.933C489.452 234.278 488.426 239.002 486.375 243.103C484.386 247.143 481.652 250.282 478.171 252.519C474.691 254.695 470.806 255.782 466.518 255.782C462.913 255.782 459.713 255.036 456.916 253.545C454.181 252.053 452.037 250.126 450.483 247.765V279.834H434.542V203.016H450.483V210.381ZM473.23 228.933C473.23 224.956 472.112 221.848 469.874 219.611C467.699 217.311 464.995 216.161 461.764 216.161C458.594 216.161 455.89 217.311 453.653 219.611C451.478 221.91 450.39 225.049 450.39 229.026C450.39 233.004 451.478 236.143 453.653 238.442C455.89 240.742 458.594 241.892 461.764 241.892C464.933 241.892 467.637 240.742 469.874 238.442C472.112 236.081 473.23 232.911 473.23 228.933ZM503.036 197.609C500.239 197.609 497.939 196.801 496.137 195.186C494.397 193.507 493.527 191.457 493.527 189.033C493.527 186.547 494.397 184.496 496.137 182.88C497.939 181.202 500.239 180.363 503.036 180.363C505.77 180.363 508.008 181.202 509.748 182.88C511.55 184.496 512.451 186.547 512.451 189.033C512.451 191.457 511.55 193.507 509.748 195.186C508.008 196.801 505.77 197.609 503.036 197.609ZM510.96 203.016V255.036H495.018V203.016H510.96ZM516.546 228.933C516.546 223.588 517.54 218.896 519.529 214.856C521.58 210.816 524.346 207.709 527.826 205.534C531.307 203.358 535.191 202.271 539.479 202.271C543.146 202.271 546.347 203.016 549.082 204.508C551.878 206 554.023 207.957 555.514 210.381V203.016H571.456V255.036H555.514V247.672C553.961 250.095 551.785 252.053 548.988 253.545C546.254 255.036 543.053 255.782 539.386 255.782C535.16 255.782 531.307 254.695 527.826 252.519C524.346 250.282 521.58 247.143 519.529 243.103C517.54 239.002 516.546 234.278 516.546 228.933ZM555.514 229.026C555.514 225.049 554.396 221.91 552.158 219.611C549.983 217.311 547.31 216.161 544.141 216.161C540.971 216.161 538.268 217.311 536.03 219.611C533.855 221.848 532.767 224.956 532.767 228.933C532.767 232.911 533.855 236.081 536.03 238.442C538.268 240.742 540.971 241.892 544.141 241.892C547.31 241.892 549.983 240.742 552.158 238.442C554.396 236.143 555.514 233.004 555.514 229.026Z" fill="#59391D"/>
<path d="M150.113 293.682L140.679 311.853V322.19H136.002V311.853L126.527 293.682H131.736L138.341 307.669L144.945 293.682H150.113ZM162.807 322.559C160.674 322.559 158.746 322.081 157.024 321.123C155.301 320.139 153.947 318.772 152.963 317.022C151.978 315.244 151.486 313.193 151.486 310.869C151.486 308.572 151.992 306.534 153.004 304.757C154.015 302.979 155.396 301.612 157.147 300.655C158.897 299.698 160.852 299.219 163.012 299.219C165.173 299.219 167.128 299.698 168.878 300.655C170.628 301.612 172.009 302.979 173.021 304.757C174.033 306.534 174.539 308.572 174.539 310.869C174.539 313.166 174.019 315.203 172.98 316.98C171.941 318.758 170.519 320.139 168.714 321.123C166.937 322.081 164.968 322.559 162.807 322.559ZM162.807 318.498C164.011 318.498 165.132 318.211 166.171 317.637C167.237 317.063 168.099 316.201 168.755 315.053C169.411 313.904 169.74 312.509 169.74 310.869C169.74 309.228 169.425 307.847 168.796 306.726C168.167 305.577 167.333 304.716 166.294 304.141C165.255 303.567 164.134 303.28 162.93 303.28C161.727 303.28 160.606 303.567 159.567 304.141C158.555 304.716 157.748 305.577 157.147 306.726C156.545 307.847 156.244 309.228 156.244 310.869C156.244 313.302 156.859 315.189 158.09 316.529C159.348 317.842 160.92 318.498 162.807 318.498ZM198.81 299.588V322.19H194.134V319.524C193.395 320.453 192.424 321.192 191.221 321.739C190.045 322.258 188.787 322.518 187.447 322.518C185.67 322.518 184.07 322.149 182.648 321.411C181.253 320.672 180.146 319.578 179.326 318.129C178.533 316.68 178.136 314.93 178.136 312.879V299.588H182.771V312.181C182.771 314.205 183.277 315.764 184.289 316.857C185.301 317.924 186.682 318.457 188.432 318.457C190.182 318.457 191.563 317.924 192.575 316.857C193.614 315.764 194.134 314.205 194.134 312.181V299.588H198.81ZM208.835 302.87C209.519 301.721 210.421 300.833 211.543 300.204C212.691 299.547 214.045 299.219 215.604 299.219V304.059H214.414C212.582 304.059 211.187 304.524 210.23 305.454C209.3 306.384 208.835 307.997 208.835 310.294V322.19H204.159V299.588H208.835V302.87ZM238.31 322.477C236.396 322.477 234.673 322.149 233.142 321.493C231.61 320.809 230.407 319.852 229.532 318.621C228.657 317.391 228.219 315.955 228.219 314.314H233.224C233.333 315.545 233.812 316.557 234.659 317.35C235.534 318.143 236.751 318.539 238.31 318.539C239.923 318.539 241.181 318.156 242.084 317.391C242.986 316.598 243.437 315.586 243.437 314.355C243.437 313.398 243.15 312.619 242.576 312.017C242.029 311.416 241.332 310.951 240.484 310.623C239.664 310.294 238.515 309.939 237.038 309.556C235.179 309.064 233.661 308.572 232.485 308.079C231.337 307.56 230.352 306.767 229.532 305.7C228.711 304.634 228.301 303.212 228.301 301.434C228.301 299.793 228.711 298.358 229.532 297.127C230.352 295.897 231.501 294.953 232.977 294.297C234.454 293.641 236.163 293.312 238.105 293.312C240.867 293.312 243.123 294.01 244.873 295.404C246.651 296.772 247.635 298.659 247.826 301.065H242.658C242.576 300.026 242.084 299.137 241.181 298.399C240.279 297.66 239.089 297.291 237.613 297.291C236.273 297.291 235.179 297.633 234.331 298.317C233.483 299 233.06 299.985 233.06 301.27C233.06 302.145 233.319 302.87 233.839 303.444C234.386 303.991 235.069 304.429 235.89 304.757C236.71 305.085 237.831 305.44 239.253 305.823C241.14 306.343 242.672 306.862 243.848 307.382C245.051 307.902 246.063 308.708 246.883 309.802C247.731 310.869 248.155 312.304 248.155 314.109C248.155 315.558 247.758 316.926 246.965 318.211C246.199 319.496 245.064 320.535 243.56 321.329C242.084 322.094 240.334 322.477 238.31 322.477ZM283.206 299.588L276.192 322.19H271.27L266.716 305.495L262.163 322.19H257.241L250.186 299.588H254.944L259.661 317.76L264.46 299.588H269.342L273.936 317.678L278.612 299.588H283.206ZM306.595 310.335C306.595 311.183 306.541 311.949 306.431 312.632H289.162C289.299 314.437 289.969 315.887 291.172 316.98C292.375 318.074 293.852 318.621 295.602 318.621C298.118 318.621 299.895 317.568 300.935 315.463H305.98C305.296 317.541 304.052 319.25 302.247 320.59C300.47 321.903 298.255 322.559 295.602 322.559C293.442 322.559 291.5 322.081 289.777 321.123C288.082 320.139 286.742 318.772 285.757 317.022C284.8 315.244 284.322 313.193 284.322 310.869C284.322 308.544 284.787 306.507 285.716 304.757C286.674 302.979 288 301.612 289.695 300.655C291.418 299.698 293.387 299.219 295.602 299.219C297.735 299.219 299.636 299.684 301.304 300.614C302.972 301.544 304.271 302.856 305.201 304.552C306.13 306.22 306.595 308.148 306.595 310.335ZM301.714 308.859C301.687 307.136 301.071 305.755 299.868 304.716C298.665 303.677 297.174 303.157 295.397 303.157C293.784 303.157 292.403 303.677 291.254 304.716C290.105 305.728 289.422 307.109 289.203 308.859H301.714ZM331.091 310.335C331.091 311.183 331.037 311.949 330.927 312.632H313.658C313.795 314.437 314.465 315.887 315.668 316.98C316.871 318.074 318.348 318.621 320.098 318.621C322.614 318.621 324.392 317.568 325.431 315.463H330.476C329.792 317.541 328.548 319.25 326.743 320.59C324.966 321.903 322.751 322.559 320.098 322.559C317.938 322.559 315.996 322.081 314.274 321.123C312.578 320.139 311.238 318.772 310.254 317.022C309.297 315.244 308.818 313.193 308.818 310.869C308.818 308.544 309.283 306.507 310.213 304.757C311.17 302.979 312.496 301.612 314.191 300.655C315.914 299.698 317.883 299.219 320.098 299.219C322.231 299.219 324.132 299.684 325.8 300.614C327.468 301.544 328.767 302.856 329.697 304.552C330.627 306.22 331.091 308.148 331.091 310.335ZM326.21 308.859C326.183 307.136 325.567 305.755 324.364 304.716C323.161 303.677 321.671 303.157 319.893 303.157C318.28 303.157 316.899 303.677 315.75 304.716C314.602 305.728 313.918 307.109 313.699 308.859H326.21ZM340.328 303.403V315.914C340.328 316.762 340.52 317.377 340.903 317.76C341.313 318.115 341.997 318.293 342.954 318.293H345.825V322.19H342.133C340.028 322.19 338.414 321.698 337.293 320.713C336.172 319.729 335.611 318.129 335.611 315.914V303.403H332.945V299.588H335.611V293.969H340.328V299.588H345.825V303.403H340.328ZM379.782 301.885C379.044 300.463 378.018 299.397 376.706 298.686C375.393 297.948 373.875 297.578 372.153 297.578C370.266 297.578 368.584 298.002 367.107 298.85C365.631 299.698 364.468 300.901 363.621 302.46C362.8 304.018 362.39 305.823 362.39 307.874C362.39 309.925 362.8 311.744 363.621 313.33C364.468 314.889 365.631 316.092 367.107 316.939C368.584 317.787 370.266 318.211 372.153 318.211C374.696 318.211 376.76 317.5 378.347 316.078C379.933 314.656 380.903 312.728 381.259 310.294H370.553V306.562H386.263V310.212C385.962 312.427 385.169 314.465 383.884 316.324C382.626 318.184 380.972 319.674 378.921 320.795C376.897 321.889 374.641 322.436 372.153 322.436C369.473 322.436 367.025 321.821 364.81 320.59C362.595 319.332 360.831 317.596 359.519 315.381C358.233 313.166 357.591 310.664 357.591 307.874C357.591 305.085 358.233 302.583 359.519 300.368C360.831 298.153 362.595 296.43 364.81 295.199C367.053 293.941 369.5 293.312 372.153 293.312C375.188 293.312 377.882 294.064 380.233 295.568C382.613 297.045 384.335 299.151 385.402 301.885H379.782ZM410.524 299.588V322.19H405.847V319.524C405.109 320.453 404.138 321.192 402.935 321.739C401.759 322.258 400.501 322.518 399.161 322.518C397.384 322.518 395.784 322.149 394.362 321.411C392.967 320.672 391.86 319.578 391.039 318.129C390.246 316.68 389.85 314.93 389.85 312.879V299.588H394.485V312.181C394.485 314.205 394.991 315.764 396.003 316.857C397.015 317.924 398.396 318.457 400.146 318.457C401.896 318.457 403.277 317.924 404.289 316.857C405.328 315.764 405.847 314.205 405.847 312.181V299.588H410.524ZM418.252 296.594C417.404 296.594 416.693 296.307 416.119 295.733C415.545 295.158 415.258 294.447 415.258 293.6C415.258 292.752 415.545 292.041 416.119 291.467C416.693 290.892 417.404 290.605 418.252 290.605C419.073 290.605 419.77 290.892 420.344 291.467C420.918 292.041 421.206 292.752 421.206 293.6C421.206 294.447 420.918 295.158 420.344 295.733C419.77 296.307 419.073 296.594 418.252 296.594ZM420.549 299.588V322.19H415.873V299.588H420.549ZM424.31 310.787C424.31 308.517 424.774 306.507 425.704 304.757C426.661 303.007 427.947 301.653 429.56 300.696C431.201 299.711 433.019 299.219 435.016 299.219C436.492 299.219 437.942 299.547 439.364 300.204C440.813 300.833 441.962 301.68 442.809 302.747V291.836H447.527V322.19H442.809V318.785C442.044 319.879 440.977 320.782 439.61 321.493C438.27 322.204 436.725 322.559 434.975 322.559C433.006 322.559 431.201 322.067 429.56 321.082C427.947 320.071 426.661 318.676 425.704 316.898C424.774 315.094 424.31 313.056 424.31 310.787ZM442.809 310.869C442.809 309.31 442.481 307.956 441.825 306.808C441.196 305.659 440.362 304.784 439.323 304.182C438.284 303.581 437.162 303.28 435.959 303.28C434.756 303.28 433.635 303.581 432.596 304.182C431.556 304.757 430.709 305.618 430.052 306.767C429.423 307.888 429.109 309.228 429.109 310.787C429.109 312.345 429.423 313.713 430.052 314.889C430.709 316.064 431.556 316.967 432.596 317.596C433.662 318.197 434.783 318.498 435.959 318.498C437.162 318.498 438.284 318.197 439.323 317.596C440.362 316.994 441.196 316.119 441.825 314.971C442.481 313.795 442.809 312.427 442.809 310.869ZM473.563 310.335C473.563 311.183 473.508 311.949 473.399 312.632H456.13C456.266 314.437 456.936 315.887 458.14 316.98C459.343 318.074 460.82 318.621 462.57 318.621C465.086 318.621 466.863 317.568 467.902 315.463H472.948C472.264 317.541 471.02 319.25 469.215 320.59C467.437 321.903 465.222 322.559 462.57 322.559C460.409 322.559 458.468 322.081 456.745 321.123C455.049 320.139 453.71 318.772 452.725 317.022C451.768 315.244 451.289 313.193 451.289 310.869C451.289 308.544 451.754 306.507 452.684 304.757C453.641 302.979 454.967 301.612 456.663 300.655C458.386 299.698 460.355 299.219 462.57 299.219C464.703 299.219 466.603 299.684 468.271 300.614C469.939 301.544 471.238 302.856 472.168 304.552C473.098 306.22 473.563 308.148 473.563 310.335ZM468.682 308.859C468.654 307.136 468.039 305.755 466.836 304.716C465.632 303.677 464.142 303.157 462.365 303.157C460.751 303.157 459.37 303.677 458.222 304.716C457.073 305.728 456.389 307.109 456.171 308.859H468.682Z" fill="#59391D"/>
</svg>
