<svg width="601" height="303" viewBox="0 0 601 303" fill="none" xmlns="http://www.w3.org/2000/svg">
<rect x="212.868" y="9.54785" width="175.264" height="153.064" rx="23.3686" fill="#FFE8B4"/>
<rect x="212.868" y="9.54785" width="175.264" height="153.064" rx="23.3686" stroke="#59391D" stroke-width="10.9053"/>
<path d="M388.911 29.695C388.911 43.1868 369.73 54.122 346.069 54.122C322.407 54.122 303.226 43.1868 303.226 29.695C303.226 16.2032 322.407 5.26807 346.069 5.26807C369.73 5.26807 388.911 16.2032 388.911 29.695Z" fill="#FFE8B4" stroke="#59391D" stroke-width="10.2822" stroke-linecap="round" stroke-linejoin="round"/>
<path d="M346.069 20.9583C358.921 15.2058 367.49 24.4717 367.49 28.8075C367.49 41.7131 324.647 41.0413 324.647 25.1435C324.647 15.4378 333.216 5.26807 346.069 5.26807" fill="#FFE8B4"/>
<path d="M346.069 20.9583C358.921 15.2058 367.49 24.4717 367.49 28.8075C367.49 41.7131 324.647 41.0413 324.647 25.1435C324.647 15.4378 333.216 5.26807 346.069 5.26807" stroke="#59391D" stroke-width="10.2822" stroke-linecap="round" stroke-linejoin="round"/>
<rect x="212.868" y="9.54785" width="175.264" height="153.064" rx="23.3686" fill="#FFE8B4"/>
<rect x="212.868" y="9.54785" width="175.264" height="153.064" rx="23.3686" stroke="#59391D" stroke-width="10.9053"/>
<path d="M388.911 29.695C388.911 43.1868 369.73 54.122 346.069 54.122C322.407 54.122 303.226 43.1868 303.226 29.695C303.226 16.2032 322.407 5.26807 346.069 5.26807C369.73 5.26807 388.911 16.2032 388.911 29.695Z" fill="#FFE8B4" stroke="#59391D" stroke-width="10.2822" stroke-linecap="round" stroke-linejoin="round"/>
<path d="M346.069 20.9583C358.921 15.2058 367.49 24.4717 367.49 28.8075C367.49 41.7131 324.647 41.0413 324.647 25.1435C324.647 15.4378 333.216 5.26807 346.069 5.26807" fill="#FFE8B4"/>
<path d="M346.069 20.9583C358.921 15.2058 367.49 24.4717 367.49 28.8075C367.49 41.7131 324.647 41.0413 324.647 25.1435C324.647 15.4378 333.216 5.26807 346.069 5.26807" stroke="#59391D" stroke-width="10.2822" stroke-linecap="round" stroke-linejoin="round"/>
<mask id="path-9-outside-1_2376_1881" maskUnits="userSpaceOnUse" x="234.9" y="114.165" width="32" height="31" fill="black">
<rect fill="white" x="234.9" y="114.165" width="32" height="31"/>
<path d="M241.295 124.376V119.371C239.842 119.694 238.422 119.953 237.163 120.146C237.098 120.146 237.001 120.146 236.937 120.146C236.355 120.146 235.968 119.759 235.936 119.178C235.903 119.081 235.903 118.984 235.903 118.919C235.903 118.371 236.194 117.983 236.84 117.919C239.907 117.499 244.136 116.433 246.654 115.239C246.848 115.11 247.042 115.078 247.236 115.078C247.688 115.078 248.043 115.336 248.236 115.788C248.301 115.949 248.333 116.143 248.333 116.304C248.333 116.789 248.043 117.208 247.591 117.434C246.525 117.886 245.137 118.371 243.62 118.79V124.376H248.204C248.785 124.376 249.108 124.892 249.108 125.506C249.108 126.184 248.818 126.603 248.236 126.603H243.62V131.769H245.46C247.236 131.769 248.075 132.447 248.075 134.255V141.422C248.075 143.295 247.203 144.005 245.363 144.005H239.455C237.615 144.005 236.743 143.295 236.743 141.422V134.255C236.743 132.447 237.582 131.769 239.358 131.769H241.295V126.603H236.452C235.871 126.603 235.548 126.151 235.548 125.473C235.548 124.828 235.871 124.376 236.452 124.376H241.295ZM239.132 134.739V140.97C239.132 141.616 239.423 141.81 240.068 141.81H244.911C245.524 141.81 245.686 141.616 245.686 140.97V134.739C245.686 134.061 245.524 133.9 244.911 133.9H240.068C239.423 133.9 239.132 134.061 239.132 134.739ZM250.948 123.31H248.979C248.43 123.31 248.075 122.826 248.075 122.18C248.075 121.502 248.398 121.083 248.947 121.083H250.948V116.111C250.948 115.497 251.433 115.207 252.175 115.207C252.918 115.207 253.402 115.497 253.402 116.111V121.083H260.44V116.111C260.44 115.497 260.925 115.207 261.667 115.207C262.41 115.207 262.894 115.497 262.894 116.111V121.083H264.767C265.348 121.083 265.671 121.535 265.671 122.213C265.671 122.858 265.348 123.31 264.767 123.31H262.894V141.39C262.894 143.263 262.022 143.973 260.182 143.973H253.628C251.82 143.973 250.948 143.263 250.948 141.39V123.31ZM253.402 132.931V140.906C253.402 141.552 253.693 141.745 254.338 141.745H259.472C260.118 141.745 260.44 141.552 260.44 140.906V132.931H253.402ZM260.44 130.736V123.31H253.402V130.736H260.44Z"/>
</mask>
<path d="M241.295 124.376V119.371C239.842 119.694 238.422 119.953 237.163 120.146C237.098 120.146 237.001 120.146 236.937 120.146C236.355 120.146 235.968 119.759 235.936 119.178C235.903 119.081 235.903 118.984 235.903 118.919C235.903 118.371 236.194 117.983 236.84 117.919C239.907 117.499 244.136 116.433 246.654 115.239C246.848 115.11 247.042 115.078 247.236 115.078C247.688 115.078 248.043 115.336 248.236 115.788C248.301 115.949 248.333 116.143 248.333 116.304C248.333 116.789 248.043 117.208 247.591 117.434C246.525 117.886 245.137 118.371 243.62 118.79V124.376H248.204C248.785 124.376 249.108 124.892 249.108 125.506C249.108 126.184 248.818 126.603 248.236 126.603H243.62V131.769H245.46C247.236 131.769 248.075 132.447 248.075 134.255V141.422C248.075 143.295 247.203 144.005 245.363 144.005H239.455C237.615 144.005 236.743 143.295 236.743 141.422V134.255C236.743 132.447 237.582 131.769 239.358 131.769H241.295V126.603H236.452C235.871 126.603 235.548 126.151 235.548 125.473C235.548 124.828 235.871 124.376 236.452 124.376H241.295ZM239.132 134.739V140.97C239.132 141.616 239.423 141.81 240.068 141.81H244.911C245.524 141.81 245.686 141.616 245.686 140.97V134.739C245.686 134.061 245.524 133.9 244.911 133.9H240.068C239.423 133.9 239.132 134.061 239.132 134.739ZM250.948 123.31H248.979C248.43 123.31 248.075 122.826 248.075 122.18C248.075 121.502 248.398 121.083 248.947 121.083H250.948V116.111C250.948 115.497 251.433 115.207 252.175 115.207C252.918 115.207 253.402 115.497 253.402 116.111V121.083H260.44V116.111C260.44 115.497 260.925 115.207 261.667 115.207C262.41 115.207 262.894 115.497 262.894 116.111V121.083H264.767C265.348 121.083 265.671 121.535 265.671 122.213C265.671 122.858 265.348 123.31 264.767 123.31H262.894V141.39C262.894 143.263 262.022 143.973 260.182 143.973H253.628C251.82 143.973 250.948 143.263 250.948 141.39V123.31ZM253.402 132.931V140.906C253.402 141.552 253.693 141.745 254.338 141.745H259.472C260.118 141.745 260.44 141.552 260.44 140.906V132.931H253.402ZM260.44 130.736V123.31H253.402V130.736H260.44Z" fill="#59391D"/>
<path d="M241.295 124.376V124.952H241.872V124.376H241.295ZM241.295 119.371H241.872V118.653L241.17 118.809L241.295 119.371ZM237.163 120.146V120.723H237.207L237.25 120.716L237.163 120.146ZM235.936 119.178L236.511 119.146L236.507 119.069L236.483 118.995L235.936 119.178ZM236.84 117.919L236.897 118.492L236.907 118.491L236.918 118.49L236.84 117.919ZM246.654 115.239L246.902 115.76L246.939 115.742L246.974 115.719L246.654 115.239ZM248.236 115.788L248.772 115.574L248.766 115.561L248.236 115.788ZM247.591 117.434L247.816 117.965L247.832 117.958L247.849 117.95L247.591 117.434ZM243.62 118.79L243.466 118.235L243.043 118.352V118.79H243.62ZM243.62 124.376H243.043V124.952H243.62V124.376ZM243.62 126.603V126.027H243.043V126.603H243.62ZM243.62 131.769H243.043V132.346H243.62V131.769ZM241.295 131.769V132.346H241.872V131.769H241.295ZM241.295 126.603H241.872V126.027H241.295V126.603ZM250.948 123.31H251.525V122.734H250.948V123.31ZM250.948 121.083V121.659H251.525V121.083H250.948ZM253.402 121.083H252.826V121.659H253.402V121.083ZM260.44 121.083V121.659H261.017V121.083H260.44ZM262.894 121.083H262.318V121.659H262.894V121.083ZM262.894 123.31V122.734H262.318V123.31H262.894ZM253.402 132.931V132.355H252.826V132.931H253.402ZM260.44 132.931H261.017V132.355H260.44V132.931ZM260.44 130.736V131.312H261.017V130.736H260.44ZM260.44 123.31H261.017V122.734H260.44V123.31ZM253.402 123.31V122.734H252.826V123.31H253.402ZM253.402 130.736H252.826V131.312H253.402V130.736ZM241.872 124.376V119.371H240.719V124.376H241.872ZM241.17 118.809C239.731 119.128 238.323 119.385 237.075 119.577L237.25 120.716C238.521 120.521 239.954 120.26 241.42 119.934L241.17 118.809ZM237.163 119.57C237.162 119.57 237.162 119.57 237.162 119.57C237.162 119.57 237.162 119.57 237.162 119.57C237.162 119.57 237.162 119.57 237.161 119.57C237.161 119.57 237.161 119.57 237.161 119.57C237.161 119.57 237.161 119.57 237.161 119.57C237.161 119.57 237.16 119.57 237.16 119.57C237.16 119.57 237.16 119.57 237.16 119.57C237.16 119.57 237.16 119.57 237.159 119.57C237.159 119.57 237.159 119.57 237.159 119.57C237.159 119.57 237.159 119.57 237.159 119.57C237.159 119.57 237.158 119.57 237.158 119.57C237.158 119.57 237.158 119.57 237.158 119.57C237.158 119.57 237.158 119.57 237.158 119.57C237.157 119.57 237.157 119.57 237.157 119.57C237.157 119.57 237.157 119.57 237.157 119.57C237.157 119.57 237.157 119.57 237.156 119.57C237.156 119.57 237.156 119.57 237.156 119.57C237.156 119.57 237.156 119.57 237.156 119.57C237.155 119.57 237.155 119.57 237.155 119.57C237.155 119.57 237.155 119.57 237.155 119.57C237.155 119.57 237.155 119.57 237.154 119.57C237.154 119.57 237.154 119.57 237.154 119.57C237.154 119.57 237.154 119.57 237.154 119.57C237.154 119.57 237.153 119.57 237.153 119.57C237.153 119.57 237.153 119.57 237.153 119.57C237.153 119.57 237.153 119.57 237.152 119.57C237.152 119.57 237.152 119.57 237.152 119.57C237.152 119.57 237.152 119.57 237.152 119.57C237.152 119.57 237.151 119.57 237.151 119.57C237.151 119.57 237.151 119.57 237.151 119.57C237.151 119.57 237.151 119.57 237.15 119.57C237.15 119.57 237.15 119.57 237.15 119.57C237.15 119.57 237.15 119.57 237.15 119.57C237.15 119.57 237.149 119.57 237.149 119.57C237.149 119.57 237.149 119.57 237.149 119.57C237.149 119.57 237.149 119.57 237.148 119.57C237.148 119.57 237.148 119.57 237.148 119.57C237.148 119.57 237.148 119.57 237.148 119.57C237.148 119.57 237.147 119.57 237.147 119.57C237.147 119.57 237.147 119.57 237.147 119.57C237.147 119.57 237.147 119.57 237.146 119.57C237.146 119.57 237.146 119.57 237.146 119.57C237.146 119.57 237.146 119.57 237.146 119.57C237.145 119.57 237.145 119.57 237.145 119.57C237.145 119.57 237.145 119.57 237.145 119.57C237.145 119.57 237.145 119.57 237.144 119.57C237.144 119.57 237.144 119.57 237.144 119.57C237.144 119.57 237.144 119.57 237.144 119.57C237.143 119.57 237.143 119.57 237.143 119.57C237.143 119.57 237.143 119.57 237.143 119.57C237.143 119.57 237.142 119.57 237.142 119.57C237.142 119.57 237.142 119.57 237.142 119.57C237.142 119.57 237.142 119.57 237.142 119.57C237.141 119.57 237.141 119.57 237.141 119.57C237.141 119.57 237.141 119.57 237.141 119.57C237.141 119.57 237.14 119.57 237.14 119.57C237.14 119.57 237.14 119.57 237.14 119.57C237.14 119.57 237.14 119.57 237.139 119.57C237.139 119.57 237.139 119.57 237.139 119.57C237.139 119.57 237.139 119.57 237.139 119.57C237.138 119.57 237.138 119.57 237.138 119.57C237.138 119.57 237.138 119.57 237.138 119.57C237.138 119.57 237.137 119.57 237.137 119.57C237.137 119.57 237.137 119.57 237.137 119.57C237.137 119.57 237.137 119.57 237.137 119.57C237.136 119.57 237.136 119.57 237.136 119.57C237.136 119.57 237.136 119.57 237.136 119.57C237.136 119.57 237.135 119.57 237.135 119.57C237.135 119.57 237.135 119.57 237.135 119.57C237.135 119.57 237.135 119.57 237.134 119.57C237.134 119.57 237.134 119.57 237.134 119.57C237.134 119.57 237.134 119.57 237.134 119.57C237.133 119.57 237.133 119.57 237.133 119.57C237.133 119.57 237.133 119.57 237.133 119.57C237.133 119.57 237.132 119.57 237.132 119.57C237.132 119.57 237.132 119.57 237.132 119.57C237.132 119.57 237.132 119.57 237.131 119.57C237.131 119.57 237.131 119.57 237.131 119.57C237.131 119.57 237.131 119.57 237.131 119.57C237.13 119.57 237.13 119.57 237.13 119.57C237.13 119.57 237.13 119.57 237.13 119.57C237.13 119.57 237.129 119.57 237.129 119.57C237.129 119.57 237.129 119.57 237.129 119.57C237.129 119.57 237.129 119.57 237.128 119.57C237.128 119.57 237.128 119.57 237.128 119.57C237.128 119.57 237.128 119.57 237.128 119.57C237.127 119.57 237.127 119.57 237.127 119.57C237.127 119.57 237.127 119.57 237.127 119.57C237.127 119.57 237.126 119.57 237.126 119.57C237.126 119.57 237.126 119.57 237.126 119.57C237.126 119.57 237.126 119.57 237.125 119.57C237.125 119.57 237.125 119.57 237.125 119.57C237.125 119.57 237.125 119.57 237.125 119.57C237.124 119.57 237.124 119.57 237.124 119.57C237.124 119.57 237.124 119.57 237.124 119.57C237.124 119.57 237.123 119.57 237.123 119.57C237.123 119.57 237.123 119.57 237.123 119.57C237.123 119.57 237.123 119.57 237.122 119.57C237.122 119.57 237.122 119.57 237.122 119.57C237.122 119.57 237.122 119.57 237.121 119.57C237.121 119.57 237.121 119.57 237.121 119.57C237.121 119.57 237.121 119.57 237.121 119.57C237.12 119.57 237.12 119.57 237.12 119.57C237.12 119.57 237.12 119.57 237.12 119.57C237.12 119.57 237.119 119.57 237.119 119.57C237.119 119.57 237.119 119.57 237.119 119.57C237.119 119.57 237.119 119.57 237.118 119.57C237.118 119.57 237.118 119.57 237.118 119.57C237.118 119.57 237.118 119.57 237.118 119.57C237.117 119.57 237.117 119.57 237.117 119.57C237.117 119.57 237.117 119.57 237.117 119.57C237.117 119.57 237.116 119.57 237.116 119.57C237.116 119.57 237.116 119.57 237.116 119.57C237.116 119.57 237.115 119.57 237.115 119.57C237.115 119.57 237.115 119.57 237.115 119.57C237.115 119.57 237.115 119.57 237.114 119.57C237.114 119.57 237.114 119.57 237.114 119.57C237.114 119.57 237.114 119.57 237.114 119.57C237.113 119.57 237.113 119.57 237.113 119.57C237.113 119.57 237.113 119.57 237.113 119.57C237.113 119.57 237.112 119.57 237.112 119.57C237.112 119.57 237.112 119.57 237.112 119.57C237.112 119.57 237.111 119.57 237.111 119.57C237.111 119.57 237.111 119.57 237.111 119.57C237.111 119.57 237.111 119.57 237.11 119.57C237.11 119.57 237.11 119.57 237.11 119.57C237.11 119.57 237.11 119.57 237.11 119.57C237.109 119.57 237.109 119.57 237.109 119.57C237.109 119.57 237.109 119.57 237.109 119.57C237.108 119.57 237.108 119.57 237.108 119.57C237.108 119.57 237.108 119.57 237.108 119.57C237.108 119.57 237.107 119.57 237.107 119.57C237.107 119.57 237.107 119.57 237.107 119.57C237.107 119.57 237.107 119.57 237.106 119.57C237.106 119.57 237.106 119.57 237.106 119.57C237.106 119.57 237.106 119.57 237.105 119.57C237.105 119.57 237.105 119.57 237.105 119.57C237.105 119.57 237.105 119.57 237.105 119.57C237.104 119.57 237.104 119.57 237.104 119.57C237.104 119.57 237.104 119.57 237.104 119.57C237.103 119.57 237.103 119.57 237.103 119.57C237.103 119.57 237.103 119.57 237.103 119.57C237.103 119.57 237.102 119.57 237.102 119.57C237.102 119.57 237.102 119.57 237.102 119.57C237.102 119.57 237.102 119.57 237.101 119.57C237.101 119.57 237.101 119.57 237.101 119.57C237.101 119.57 237.101 119.57 237.1 119.57C237.1 119.57 237.1 119.57 237.1 119.57C237.1 119.57 237.1 119.57 237.1 119.57C237.099 119.57 237.099 119.57 237.099 119.57C237.099 119.57 237.099 119.57 237.099 119.57C237.098 119.57 237.098 119.57 237.098 119.57C237.098 119.57 237.098 119.57 237.098 119.57C237.098 119.57 237.097 119.57 237.097 119.57C237.097 119.57 237.097 119.57 237.097 119.57C237.097 119.57 237.097 119.57 237.096 119.57C237.096 119.57 237.096 119.57 237.096 119.57C237.096 119.57 237.096 119.57 237.095 119.57C237.095 119.57 237.095 119.57 237.095 119.57C237.095 119.57 237.095 119.57 237.095 119.57C237.094 119.57 237.094 119.57 237.094 119.57C237.094 119.57 237.094 119.57 237.094 119.57C237.093 119.57 237.093 119.57 237.093 119.57C237.093 119.57 237.093 119.57 237.093 119.57C237.093 119.57 237.092 119.57 237.092 119.57C237.092 119.57 237.092 119.57 237.092 119.57C237.092 119.57 237.091 119.57 237.091 119.57C237.091 119.57 237.091 119.57 237.091 119.57C237.091 119.57 237.091 119.57 237.09 119.57C237.09 119.57 237.09 119.57 237.09 119.57C237.09 119.57 237.09 119.57 237.089 119.57C237.089 119.57 237.089 119.57 237.089 119.57C237.089 119.57 237.089 119.57 237.089 119.57C237.088 119.57 237.088 119.57 237.088 119.57C237.088 119.57 237.088 119.57 237.088 119.57C237.087 119.57 237.087 119.57 237.087 119.57C237.087 119.57 237.087 119.57 237.087 119.57C237.087 119.57 237.086 119.57 237.086 119.57C237.086 119.57 237.086 119.57 237.086 119.57C237.086 119.57 237.085 119.57 237.085 119.57C237.085 119.57 237.085 119.57 237.085 119.57C237.085 119.57 237.084 119.57 237.084 119.57C237.084 119.57 237.084 119.57 237.084 119.57C237.084 119.57 237.084 119.57 237.083 119.57C237.083 119.57 237.083 119.57 237.083 119.57C237.083 119.57 237.083 119.57 237.082 119.57C237.082 119.57 237.082 119.57 237.082 119.57C237.082 119.57 237.082 119.57 237.082 119.57C237.081 119.57 237.081 119.57 237.081 119.57C237.081 119.57 237.081 119.57 237.081 119.57C237.08 119.57 237.08 119.57 237.08 119.57C237.08 119.57 237.08 119.57 237.08 119.57C237.08 119.57 237.079 119.57 237.079 119.57C237.079 119.57 237.079 119.57 237.079 119.57C237.079 119.57 237.078 119.57 237.078 119.57C237.078 119.57 237.078 119.57 237.078 119.57C237.078 119.57 237.078 119.57 237.077 119.57C237.077 119.57 237.077 119.57 237.077 119.57C237.077 119.57 237.077 119.57 237.076 119.57C237.076 119.57 237.076 119.57 237.076 119.57C237.076 119.57 237.076 119.57 237.075 119.57C237.075 119.57 237.075 119.57 237.075 119.57C237.075 119.57 237.075 119.57 237.075 119.57C237.074 119.57 237.074 119.57 237.074 119.57C237.074 119.57 237.074 119.57 237.074 119.57C237.073 119.57 237.073 119.57 237.073 119.57C237.073 119.57 237.073 119.57 237.073 119.57C237.073 119.57 237.072 119.57 237.072 119.57C237.072 119.57 237.072 119.57 237.072 119.57C237.072 119.57 237.071 119.57 237.071 119.57C237.071 119.57 237.071 119.57 237.071 119.57C237.071 119.57 237.07 119.57 237.07 119.57C237.07 119.57 237.07 119.57 237.07 119.57C237.07 119.57 237.07 119.57 237.069 119.57C237.069 119.57 237.069 119.57 237.069 119.57C237.069 119.57 237.069 119.57 237.068 119.57C237.068 119.57 237.068 119.57 237.068 119.57C237.068 119.57 237.068 119.57 237.067 119.57C237.067 119.57 237.067 119.57 237.067 119.57C237.067 119.57 237.067 119.57 237.067 119.57C237.066 119.57 237.066 119.57 237.066 119.57C237.066 119.57 237.066 119.57 237.066 119.57C237.065 119.57 237.065 119.57 237.065 119.57C237.065 119.57 237.065 119.57 237.065 119.57C237.065 119.57 237.064 119.57 237.064 119.57C237.064 119.57 237.064 119.57 237.064 119.57C237.064 119.57 237.063 119.57 237.063 119.57C237.063 119.57 237.063 119.57 237.063 119.57C237.063 119.57 237.062 119.57 237.062 119.57C237.062 119.57 237.062 119.57 237.062 119.57C237.062 119.57 237.062 119.57 237.061 119.57C237.061 119.57 237.061 119.57 237.061 119.57C237.061 119.57 237.061 119.57 237.06 119.57C237.06 119.57 237.06 119.57 237.06 119.57C237.06 119.57 237.06 119.57 237.059 119.57C237.059 119.57 237.059 119.57 237.059 119.57C237.059 119.57 237.059 119.57 237.059 119.57C237.058 119.57 237.058 119.57 237.058 119.57C237.058 119.57 237.058 119.57 237.058 119.57C237.057 119.57 237.057 119.57 237.057 119.57C237.057 119.57 237.057 119.57 237.057 119.57C237.056 119.57 237.056 119.57 237.056 119.57C237.056 119.57 237.056 119.57 237.056 119.57C237.056 119.57 237.055 119.57 237.055 119.57C237.055 119.57 237.055 119.57 237.055 119.57C237.055 119.57 237.054 119.57 237.054 119.57C237.054 119.57 237.054 119.57 237.054 119.57C237.054 119.57 237.053 119.57 237.053 119.57C237.053 119.57 237.053 119.57 237.053 119.57C237.053 119.57 237.053 119.57 237.052 119.57C237.052 119.57 237.052 119.57 237.052 119.57C237.052 119.57 237.052 119.57 237.051 119.57C237.051 119.57 237.051 119.57 237.051 119.57C237.051 119.57 237.051 119.57 237.05 119.57C237.05 119.57 237.05 119.57 237.05 119.57C237.05 119.57 237.05 119.57 237.05 119.57C237.049 119.57 237.049 119.57 237.049 119.57C237.049 119.57 237.049 119.57 237.049 119.57C237.048 119.57 237.048 119.57 237.048 119.57C237.048 119.57 237.048 119.57 237.048 119.57C237.047 119.57 237.047 119.57 237.047 119.57C237.047 119.57 237.047 119.57 237.047 119.57C237.047 119.57 237.046 119.57 237.046 119.57C237.046 119.57 237.046 119.57 237.046 119.57C237.046 119.57 237.045 119.57 237.045 119.57C237.045 119.57 237.045 119.57 237.045 119.57C237.045 119.57 237.044 119.57 237.044 119.57C237.044 119.57 237.044 119.57 237.044 119.57C237.044 119.57 237.044 119.57 237.043 119.57C237.043 119.57 237.043 119.57 237.043 119.57C237.043 119.57 237.043 119.57 237.042 119.57C237.042 119.57 237.042 119.57 237.042 119.57C237.042 119.57 237.042 119.57 237.042 119.57C237.041 119.57 237.041 119.57 237.041 119.57C237.041 119.57 237.041 119.57 237.041 119.57C237.04 119.57 237.04 119.57 237.04 119.57C237.04 119.57 237.04 119.57 237.04 119.57C237.039 119.57 237.039 119.57 237.039 119.57C237.039 119.57 237.039 119.57 237.039 119.57C237.039 119.57 237.038 119.57 237.038 119.57C237.038 119.57 237.038 119.57 237.038 119.57C237.038 119.57 237.037 119.57 237.037 119.57C237.037 119.57 237.037 119.57 237.037 119.57C237.037 119.57 237.036 119.57 237.036 119.57C237.036 119.57 237.036 119.57 237.036 119.57C237.036 119.57 237.036 119.57 237.035 119.57C237.035 119.57 237.035 119.57 237.035 119.57C237.035 119.57 237.035 119.57 237.034 119.57C237.034 119.57 237.034 119.57 237.034 119.57C237.034 119.57 237.034 119.57 237.033 119.57C237.033 119.57 237.033 119.57 237.033 119.57C237.033 119.57 237.033 119.57 237.033 119.57C237.032 119.57 237.032 119.57 237.032 119.57C237.032 119.57 237.032 119.57 237.032 119.57C237.031 119.57 237.031 119.57 237.031 119.57C237.031 119.57 237.031 119.57 237.031 119.57C237.03 119.57 237.03 119.57 237.03 119.57C237.03 119.57 237.03 119.57 237.03 119.57C237.03 119.57 237.029 119.57 237.029 119.57C237.029 119.57 237.029 119.57 237.029 119.57C237.029 119.57 237.028 119.57 237.028 119.57C237.028 119.57 237.028 119.57 237.028 119.57C237.028 119.57 237.028 119.57 237.027 119.57C237.027 119.57 237.027 119.57 237.027 119.57C237.027 119.57 237.027 119.57 237.026 119.57C237.026 119.57 237.026 119.57 237.026 119.57C237.026 119.57 237.026 119.57 237.025 119.57C237.025 119.57 237.025 119.57 237.025 119.57C237.025 119.57 237.025 119.57 237.025 119.57C237.024 119.57 237.024 119.57 237.024 119.57C237.024 119.57 237.024 119.57 237.024 119.57C237.023 119.57 237.023 119.57 237.023 119.57C237.023 119.57 237.023 119.57 237.023 119.57C237.023 119.57 237.022 119.57 237.022 119.57C237.022 119.57 237.022 119.57 237.022 119.57C237.022 119.57 237.021 119.57 237.021 119.57C237.021 119.57 237.021 119.57 237.021 119.57C237.021 119.57 237.02 119.57 237.02 119.57C237.02 119.57 237.02 119.57 237.02 119.57C237.02 119.57 237.02 119.57 237.019 119.57C237.019 119.57 237.019 119.57 237.019 119.57C237.019 119.57 237.019 119.57 237.018 119.57C237.018 119.57 237.018 119.57 237.018 119.57C237.018 119.57 237.018 119.57 237.018 119.57C237.017 119.57 237.017 119.57 237.017 119.57C237.017 119.57 237.017 119.57 237.017 119.57C237.016 119.57 237.016 119.57 237.016 119.57C237.016 119.57 237.016 119.57 237.016 119.57C237.016 119.57 237.015 119.57 237.015 119.57C237.015 119.57 237.015 119.57 237.015 119.57C237.015 119.57 237.014 119.57 237.014 119.57C237.014 119.57 237.014 119.57 237.014 119.57C237.014 119.57 237.014 119.57 237.013 119.57C237.013 119.57 237.013 119.57 237.013 119.57C237.013 119.57 237.013 119.57 237.012 119.57C237.012 119.57 237.012 119.57 237.012 119.57C237.012 119.57 237.012 119.57 237.011 119.57C237.011 119.57 237.011 119.57 237.011 119.57C237.011 119.57 237.011 119.57 237.011 119.57C237.01 119.57 237.01 119.57 237.01 119.57C237.01 119.57 237.01 119.57 237.01 119.57C237.009 119.57 237.009 119.57 237.009 119.57C237.009 119.57 237.009 119.57 237.009 119.57C237.009 119.57 237.008 119.57 237.008 119.57C237.008 119.57 237.008 119.57 237.008 119.57C237.008 119.57 237.007 119.57 237.007 119.57C237.007 119.57 237.007 119.57 237.007 119.57C237.007 119.57 237.007 119.57 237.006 119.57C237.006 119.57 237.006 119.57 237.006 119.57C237.006 119.57 237.006 119.57 237.005 119.57C237.005 119.57 237.005 119.57 237.005 119.57C237.005 119.57 237.005 119.57 237.005 119.57C237.004 119.57 237.004 119.57 237.004 119.57C237.004 119.57 237.004 119.57 237.004 119.57C237.003 119.57 237.003 119.57 237.003 119.57C237.003 119.57 237.003 119.57 237.003 119.57C237.003 119.57 237.002 119.57 237.002 119.57C237.002 119.57 237.002 119.57 237.002 119.57C237.002 119.57 237.002 119.57 237.001 119.57C237.001 119.57 237.001 119.57 237.001 119.57C237.001 119.57 237.001 119.57 237 119.57C237 119.57 237 119.57 237 119.57C237 119.57 237 119.57 237 119.57C236.999 119.57 236.999 119.57 236.999 119.57C236.999 119.57 236.999 119.57 236.999 119.57C236.998 119.57 236.998 119.57 236.998 119.57C236.998 119.57 236.998 119.57 236.998 119.57C236.998 119.57 236.997 119.57 236.997 119.57C236.997 119.57 236.997 119.57 236.997 119.57C236.997 119.57 236.996 119.57 236.996 119.57C236.996 119.57 236.996 119.57 236.996 119.57C236.996 119.57 236.996 119.57 236.995 119.57C236.995 119.57 236.995 119.57 236.995 119.57C236.995 119.57 236.995 119.57 236.995 119.57C236.994 119.57 236.994 119.57 236.994 119.57C236.994 119.57 236.994 119.57 236.994 119.57C236.993 119.57 236.993 119.57 236.993 119.57C236.993 119.57 236.993 119.57 236.993 119.57C236.993 119.57 236.992 119.57 236.992 119.57C236.992 119.57 236.992 119.57 236.992 119.57C236.992 119.57 236.992 119.57 236.991 119.57C236.991 119.57 236.991 119.57 236.991 119.57C236.991 119.57 236.991 119.57 236.99 119.57C236.99 119.57 236.99 119.57 236.99 119.57C236.99 119.57 236.99 119.57 236.99 119.57C236.989 119.57 236.989 119.57 236.989 119.57C236.989 119.57 236.989 119.57 236.989 119.57C236.989 119.57 236.988 119.57 236.988 119.57C236.988 119.57 236.988 119.57 236.988 119.57C236.988 119.57 236.987 119.57 236.987 119.57C236.987 119.57 236.987 119.57 236.987 119.57C236.987 119.57 236.987 119.57 236.986 119.57C236.986 119.57 236.986 119.57 236.986 119.57C236.986 119.57 236.986 119.57 236.986 119.57C236.985 119.57 236.985 119.57 236.985 119.57C236.985 119.57 236.985 119.57 236.985 119.57C236.985 119.57 236.984 119.57 236.984 119.57C236.984 119.57 236.984 119.57 236.984 119.57C236.984 119.57 236.983 119.57 236.983 119.57C236.983 119.57 236.983 119.57 236.983 119.57C236.983 119.57 236.983 119.57 236.982 119.57C236.982 119.57 236.982 119.57 236.982 119.57C236.982 119.57 236.982 119.57 236.982 119.57C236.981 119.57 236.981 119.57 236.981 119.57C236.981 119.57 236.981 119.57 236.981 119.57C236.981 119.57 236.98 119.57 236.98 119.57C236.98 119.57 236.98 119.57 236.98 119.57C236.98 119.57 236.979 119.57 236.979 119.57C236.979 119.57 236.979 119.57 236.979 119.57C236.979 119.57 236.979 119.57 236.978 119.57C236.978 119.57 236.978 119.57 236.978 119.57C236.978 119.57 236.978 119.57 236.978 119.57C236.977 119.57 236.977 119.57 236.977 119.57C236.977 119.57 236.977 119.57 236.977 119.57C236.977 119.57 236.976 119.57 236.976 119.57C236.976 119.57 236.976 119.57 236.976 119.57C236.976 119.57 236.976 119.57 236.975 119.57C236.975 119.57 236.975 119.57 236.975 119.57C236.975 119.57 236.975 119.57 236.975 119.57C236.974 119.57 236.974 119.57 236.974 119.57C236.974 119.57 236.974 119.57 236.974 119.57C236.974 119.57 236.973 119.57 236.973 119.57C236.973 119.57 236.973 119.57 236.973 119.57C236.973 119.57 236.973 119.57 236.972 119.57C236.972 119.57 236.972 119.57 236.972 119.57C236.972 119.57 236.972 119.57 236.972 119.57C236.971 119.57 236.971 119.57 236.971 119.57C236.971 119.57 236.971 119.57 236.971 119.57C236.971 119.57 236.97 119.57 236.97 119.57C236.97 119.57 236.97 119.57 236.97 119.57C236.97 119.57 236.969 119.57 236.969 119.57C236.969 119.57 236.969 119.57 236.969 119.57C236.969 119.57 236.969 119.57 236.969 119.57C236.968 119.57 236.968 119.57 236.968 119.57C236.968 119.57 236.968 119.57 236.968 119.57C236.968 119.57 236.967 119.57 236.967 119.57C236.967 119.57 236.967 119.57 236.967 119.57C236.967 119.57 236.967 119.57 236.966 119.57C236.966 119.57 236.966 119.57 236.966 119.57C236.966 119.57 236.966 119.57 236.966 119.57C236.965 119.57 236.965 119.57 236.965 119.57C236.965 119.57 236.965 119.57 236.965 119.57C236.965 119.57 236.964 119.57 236.964 119.57C236.964 119.57 236.964 119.57 236.964 119.57C236.964 119.57 236.964 119.57 236.963 119.57C236.963 119.57 236.963 119.57 236.963 119.57C236.963 119.57 236.963 119.57 236.963 119.57C236.962 119.57 236.962 119.57 236.962 119.57C236.962 119.57 236.962 119.57 236.962 119.57C236.962 119.57 236.961 119.57 236.961 119.57C236.961 119.57 236.961 119.57 236.961 119.57C236.961 119.57 236.961 119.57 236.96 119.57C236.96 119.57 236.96 119.57 236.96 119.57C236.96 119.57 236.96 119.57 236.96 119.57C236.959 119.57 236.959 119.57 236.959 119.57C236.959 119.57 236.959 119.57 236.959 119.57C236.959 119.57 236.959 119.57 236.958 119.57C236.958 119.57 236.958 119.57 236.958 119.57C236.958 119.57 236.958 119.57 236.958 119.57C236.957 119.57 236.957 119.57 236.957 119.57C236.957 119.57 236.957 119.57 236.957 119.57C236.957 119.57 236.956 119.57 236.956 119.57C236.956 119.57 236.956 119.57 236.956 119.57C236.956 119.57 236.956 119.57 236.956 119.57C236.955 119.57 236.955 119.57 236.955 119.57C236.955 119.57 236.955 119.57 236.955 119.57C236.955 119.57 236.954 119.57 236.954 119.57C236.954 119.57 236.954 119.57 236.954 119.57C236.954 119.57 236.954 119.57 236.953 119.57C236.953 119.57 236.953 119.57 236.953 119.57C236.953 119.57 236.953 119.57 236.953 119.57C236.953 119.57 236.952 119.57 236.952 119.57C236.952 119.57 236.952 119.57 236.952 119.57C236.952 119.57 236.952 119.57 236.951 119.57C236.951 119.57 236.951 119.57 236.951 119.57C236.951 119.57 236.951 119.57 236.951 119.57C236.95 119.57 236.95 119.57 236.95 119.57C236.95 119.57 236.95 119.57 236.95 119.57C236.95 119.57 236.95 119.57 236.949 119.57C236.949 119.57 236.949 119.57 236.949 119.57C236.949 119.57 236.949 119.57 236.949 119.57C236.948 119.57 236.948 119.57 236.948 119.57C236.948 119.57 236.948 119.57 236.948 119.57C236.948 119.57 236.948 119.57 236.947 119.57C236.947 119.57 236.947 119.57 236.947 119.57C236.947 119.57 236.947 119.57 236.947 119.57C236.946 119.57 236.946 119.57 236.946 119.57C236.946 119.57 236.946 119.57 236.946 119.57C236.946 119.57 236.946 119.57 236.945 119.57C236.945 119.57 236.945 119.57 236.945 119.57C236.945 119.57 236.945 119.57 236.945 119.57C236.945 119.57 236.944 119.57 236.944 119.57C236.944 119.57 236.944 119.57 236.944 119.57C236.944 119.57 236.944 119.57 236.943 119.57C236.943 119.57 236.943 119.57 236.943 119.57C236.943 119.57 236.943 119.57 236.943 119.57C236.943 119.57 236.942 119.57 236.942 119.57C236.942 119.57 236.942 119.57 236.942 119.57C236.942 119.57 236.942 119.57 236.942 119.57C236.941 119.57 236.941 119.57 236.941 119.57C236.941 119.57 236.941 119.57 236.941 119.57C236.941 119.57 236.94 119.57 236.94 119.57C236.94 119.57 236.94 119.57 236.94 119.57C236.94 119.57 236.94 119.57 236.94 119.57C236.939 119.57 236.939 119.57 236.939 119.57C236.939 119.57 236.939 119.57 236.939 119.57C236.939 119.57 236.939 119.57 236.938 119.57C236.938 119.57 236.938 119.57 236.938 119.57C236.938 119.57 236.938 119.57 236.938 119.57C236.938 119.57 236.937 119.57 236.937 119.57C236.937 119.57 236.937 119.57 236.937 119.57C236.937 119.57 236.937 119.57 236.937 119.57V120.723C236.937 120.723 236.937 120.723 236.937 120.723C236.937 120.723 236.937 120.723 236.937 120.723C236.937 120.723 236.938 120.723 236.938 120.723C236.938 120.723 236.938 120.723 236.938 120.723C236.938 120.723 236.938 120.723 236.938 120.723C236.939 120.723 236.939 120.723 236.939 120.723C236.939 120.723 236.939 120.723 236.939 120.723C236.939 120.723 236.939 120.723 236.94 120.723C236.94 120.723 236.94 120.723 236.94 120.723C236.94 120.723 236.94 120.723 236.94 120.723C236.94 120.723 236.941 120.723 236.941 120.723C236.941 120.723 236.941 120.723 236.941 120.723C236.941 120.723 236.941 120.723 236.942 120.723C236.942 120.723 236.942 120.723 236.942 120.723C236.942 120.723 236.942 120.723 236.942 120.723C236.942 120.723 236.943 120.723 236.943 120.723C236.943 120.723 236.943 120.723 236.943 120.723C236.943 120.723 236.943 120.723 236.943 120.723C236.944 120.723 236.944 120.723 236.944 120.723C236.944 120.723 236.944 120.723 236.944 120.723C236.944 120.723 236.945 120.723 236.945 120.723C236.945 120.723 236.945 120.723 236.945 120.723C236.945 120.723 236.945 120.723 236.945 120.723C236.946 120.723 236.946 120.723 236.946 120.723C236.946 120.723 236.946 120.723 236.946 120.723C236.946 120.723 236.946 120.723 236.947 120.723C236.947 120.723 236.947 120.723 236.947 120.723C236.947 120.723 236.947 120.723 236.947 120.723C236.948 120.723 236.948 120.723 236.948 120.723C236.948 120.723 236.948 120.723 236.948 120.723C236.948 120.723 236.948 120.723 236.949 120.723C236.949 120.723 236.949 120.723 236.949 120.723C236.949 120.723 236.949 120.723 236.949 120.723C236.95 120.723 236.95 120.723 236.95 120.723C236.95 120.723 236.95 120.723 236.95 120.723C236.95 120.723 236.95 120.723 236.951 120.723C236.951 120.723 236.951 120.723 236.951 120.723C236.951 120.723 236.951 120.723 236.951 120.723C236.952 120.723 236.952 120.723 236.952 120.723C236.952 120.723 236.952 120.723 236.952 120.723C236.952 120.723 236.953 120.723 236.953 120.723C236.953 120.723 236.953 120.723 236.953 120.723C236.953 120.723 236.953 120.723 236.953 120.723C236.954 120.723 236.954 120.723 236.954 120.723C236.954 120.723 236.954 120.723 236.954 120.723C236.954 120.723 236.955 120.723 236.955 120.723C236.955 120.723 236.955 120.723 236.955 120.723C236.955 120.723 236.955 120.723 236.956 120.723C236.956 120.723 236.956 120.723 236.956 120.723C236.956 120.723 236.956 120.723 236.956 120.723C236.956 120.723 236.957 120.723 236.957 120.723C236.957 120.723 236.957 120.723 236.957 120.723C236.957 120.723 236.957 120.723 236.958 120.723C236.958 120.723 236.958 120.723 236.958 120.723C236.958 120.723 236.958 120.723 236.958 120.723C236.959 120.723 236.959 120.723 236.959 120.723C236.959 120.723 236.959 120.723 236.959 120.723C236.959 120.723 236.959 120.723 236.96 120.723C236.96 120.723 236.96 120.723 236.96 120.723C236.96 120.723 236.96 120.723 236.96 120.723C236.961 120.723 236.961 120.723 236.961 120.723C236.961 120.723 236.961 120.723 236.961 120.723C236.961 120.723 236.962 120.723 236.962 120.723C236.962 120.723 236.962 120.723 236.962 120.723C236.962 120.723 236.962 120.723 236.963 120.723C236.963 120.723 236.963 120.723 236.963 120.723C236.963 120.723 236.963 120.723 236.963 120.723C236.964 120.723 236.964 120.723 236.964 120.723C236.964 120.723 236.964 120.723 236.964 120.723C236.964 120.723 236.965 120.723 236.965 120.723C236.965 120.723 236.965 120.723 236.965 120.723C236.965 120.723 236.965 120.723 236.966 120.723C236.966 120.723 236.966 120.723 236.966 120.723C236.966 120.723 236.966 120.723 236.966 120.723C236.967 120.723 236.967 120.723 236.967 120.723C236.967 120.723 236.967 120.723 236.967 120.723C236.967 120.723 236.968 120.723 236.968 120.723C236.968 120.723 236.968 120.723 236.968 120.723C236.968 120.723 236.968 120.723 236.969 120.723C236.969 120.723 236.969 120.723 236.969 120.723C236.969 120.723 236.969 120.723 236.969 120.723C236.969 120.723 236.97 120.723 236.97 120.723C236.97 120.723 236.97 120.723 236.97 120.723C236.97 120.723 236.971 120.723 236.971 120.723C236.971 120.723 236.971 120.723 236.971 120.723C236.971 120.723 236.971 120.723 236.972 120.723C236.972 120.723 236.972 120.723 236.972 120.723C236.972 120.723 236.972 120.723 236.972 120.723C236.973 120.723 236.973 120.723 236.973 120.723C236.973 120.723 236.973 120.723 236.973 120.723C236.973 120.723 236.974 120.723 236.974 120.723C236.974 120.723 236.974 120.723 236.974 120.723C236.974 120.723 236.974 120.723 236.975 120.723C236.975 120.723 236.975 120.723 236.975 120.723C236.975 120.723 236.975 120.723 236.975 120.723C236.976 120.723 236.976 120.723 236.976 120.723C236.976 120.723 236.976 120.723 236.976 120.723C236.976 120.723 236.977 120.723 236.977 120.723C236.977 120.723 236.977 120.723 236.977 120.723C236.977 120.723 236.977 120.723 236.978 120.723C236.978 120.723 236.978 120.723 236.978 120.723C236.978 120.723 236.978 120.723 236.978 120.723C236.979 120.723 236.979 120.723 236.979 120.723C236.979 120.723 236.979 120.723 236.979 120.723C236.979 120.723 236.98 120.723 236.98 120.723C236.98 120.723 236.98 120.723 236.98 120.723C236.98 120.723 236.981 120.723 236.981 120.723C236.981 120.723 236.981 120.723 236.981 120.723C236.981 120.723 236.981 120.723 236.982 120.723C236.982 120.723 236.982 120.723 236.982 120.723C236.982 120.723 236.982 120.723 236.982 120.723C236.983 120.723 236.983 120.723 236.983 120.723C236.983 120.723 236.983 120.723 236.983 120.723C236.983 120.723 236.984 120.723 236.984 120.723C236.984 120.723 236.984 120.723 236.984 120.723C236.984 120.723 236.985 120.723 236.985 120.723C236.985 120.723 236.985 120.723 236.985 120.723C236.985 120.723 236.985 120.723 236.986 120.723C236.986 120.723 236.986 120.723 236.986 120.723C236.986 120.723 236.986 120.723 236.986 120.723C236.987 120.723 236.987 120.723 236.987 120.723C236.987 120.723 236.987 120.723 236.987 120.723C236.987 120.723 236.988 120.723 236.988 120.723C236.988 120.723 236.988 120.723 236.988 120.723C236.988 120.723 236.989 120.723 236.989 120.723C236.989 120.723 236.989 120.723 236.989 120.723C236.989 120.723 236.989 120.723 236.99 120.723C236.99 120.723 236.99 120.723 236.99 120.723C236.99 120.723 236.99 120.723 236.99 120.723C236.991 120.723 236.991 120.723 236.991 120.723C236.991 120.723 236.991 120.723 236.991 120.723C236.992 120.723 236.992 120.723 236.992 120.723C236.992 120.723 236.992 120.723 236.992 120.723C236.992 120.723 236.993 120.723 236.993 120.723C236.993 120.723 236.993 120.723 236.993 120.723C236.993 120.723 236.993 120.723 236.994 120.723C236.994 120.723 236.994 120.723 236.994 120.723C236.994 120.723 236.994 120.723 236.995 120.723C236.995 120.723 236.995 120.723 236.995 120.723C236.995 120.723 236.995 120.723 236.995 120.723C236.996 120.723 236.996 120.723 236.996 120.723C236.996 120.723 236.996 120.723 236.996 120.723C236.996 120.723 236.997 120.723 236.997 120.723C236.997 120.723 236.997 120.723 236.997 120.723C236.997 120.723 236.998 120.723 236.998 120.723C236.998 120.723 236.998 120.723 236.998 120.723C236.998 120.723 236.998 120.723 236.999 120.723C236.999 120.723 236.999 120.723 236.999 120.723C236.999 120.723 236.999 120.723 237 120.723C237 120.723 237 120.723 237 120.723C237 120.723 237 120.723 237 120.723C237.001 120.723 237.001 120.723 237.001 120.723C237.001 120.723 237.001 120.723 237.001 120.723C237.002 120.723 237.002 120.723 237.002 120.723C237.002 120.723 237.002 120.723 237.002 120.723C237.002 120.723 237.003 120.723 237.003 120.723C237.003 120.723 237.003 120.723 237.003 120.723C237.003 120.723 237.003 120.723 237.004 120.723C237.004 120.723 237.004 120.723 237.004 120.723C237.004 120.723 237.004 120.723 237.005 120.723C237.005 120.723 237.005 120.723 237.005 120.723C237.005 120.723 237.005 120.723 237.005 120.723C237.006 120.723 237.006 120.723 237.006 120.723C237.006 120.723 237.006 120.723 237.006 120.723C237.007 120.723 237.007 120.723 237.007 120.723C237.007 120.723 237.007 120.723 237.007 120.723C237.007 120.723 237.008 120.723 237.008 120.723C237.008 120.723 237.008 120.723 237.008 120.723C237.008 120.723 237.009 120.723 237.009 120.723C237.009 120.723 237.009 120.723 237.009 120.723C237.009 120.723 237.009 120.723 237.01 120.723C237.01 120.723 237.01 120.723 237.01 120.723C237.01 120.723 237.01 120.723 237.011 120.723C237.011 120.723 237.011 120.723 237.011 120.723C237.011 120.723 237.011 120.723 237.011 120.723C237.012 120.723 237.012 120.723 237.012 120.723C237.012 120.723 237.012 120.723 237.012 120.723C237.013 120.723 237.013 120.723 237.013 120.723C237.013 120.723 237.013 120.723 237.013 120.723C237.014 120.723 237.014 120.723 237.014 120.723C237.014 120.723 237.014 120.723 237.014 120.723C237.014 120.723 237.015 120.723 237.015 120.723C237.015 120.723 237.015 120.723 237.015 120.723C237.015 120.723 237.016 120.723 237.016 120.723C237.016 120.723 237.016 120.723 237.016 120.723C237.016 120.723 237.016 120.723 237.017 120.723C237.017 120.723 237.017 120.723 237.017 120.723C237.017 120.723 237.017 120.723 237.018 120.723C237.018 120.723 237.018 120.723 237.018 120.723C237.018 120.723 237.018 120.723 237.018 120.723C237.019 120.723 237.019 120.723 237.019 120.723C237.019 120.723 237.019 120.723 237.019 120.723C237.02 120.723 237.02 120.723 237.02 120.723C237.02 120.723 237.02 120.723 237.02 120.723C237.02 120.723 237.021 120.723 237.021 120.723C237.021 120.723 237.021 120.723 237.021 120.723C237.021 120.723 237.022 120.723 237.022 120.723C237.022 120.723 237.022 120.723 237.022 120.723C237.022 120.723 237.023 120.723 237.023 120.723C237.023 120.723 237.023 120.723 237.023 120.723C237.023 120.723 237.023 120.723 237.024 120.723C237.024 120.723 237.024 120.723 237.024 120.723C237.024 120.723 237.024 120.723 237.025 120.723C237.025 120.723 237.025 120.723 237.025 120.723C237.025 120.723 237.025 120.723 237.025 120.723C237.026 120.723 237.026 120.723 237.026 120.723C237.026 120.723 237.026 120.723 237.026 120.723C237.027 120.723 237.027 120.723 237.027 120.723C237.027 120.723 237.027 120.723 237.027 120.723C237.028 120.723 237.028 120.723 237.028 120.723C237.028 120.723 237.028 120.723 237.028 120.723C237.028 120.723 237.029 120.723 237.029 120.723C237.029 120.723 237.029 120.723 237.029 120.723C237.029 120.723 237.03 120.723 237.03 120.723C237.03 120.723 237.03 120.723 237.03 120.723C237.03 120.723 237.03 120.723 237.031 120.723C237.031 120.723 237.031 120.723 237.031 120.723C237.031 120.723 237.031 120.723 237.032 120.723C237.032 120.723 237.032 120.723 237.032 120.723C237.032 120.723 237.032 120.723 237.033 120.723C237.033 120.723 237.033 120.723 237.033 120.723C237.033 120.723 237.033 120.723 237.033 120.723C237.034 120.723 237.034 120.723 237.034 120.723C237.034 120.723 237.034 120.723 237.034 120.723C237.035 120.723 237.035 120.723 237.035 120.723C237.035 120.723 237.035 120.723 237.035 120.723C237.036 120.723 237.036 120.723 237.036 120.723C237.036 120.723 237.036 120.723 237.036 120.723C237.036 120.723 237.037 120.723 237.037 120.723C237.037 120.723 237.037 120.723 237.037 120.723C237.037 120.723 237.038 120.723 237.038 120.723C237.038 120.723 237.038 120.723 237.038 120.723C237.038 120.723 237.039 120.723 237.039 120.723C237.039 120.723 237.039 120.723 237.039 120.723C237.039 120.723 237.039 120.723 237.04 120.723C237.04 120.723 237.04 120.723 237.04 120.723C237.04 120.723 237.04 120.723 237.041 120.723C237.041 120.723 237.041 120.723 237.041 120.723C237.041 120.723 237.041 120.723 237.042 120.723C237.042 120.723 237.042 120.723 237.042 120.723C237.042 120.723 237.042 120.723 237.042 120.723C237.043 120.723 237.043 120.723 237.043 120.723C237.043 120.723 237.043 120.723 237.043 120.723C237.044 120.723 237.044 120.723 237.044 120.723C237.044 120.723 237.044 120.723 237.044 120.723C237.044 120.723 237.045 120.723 237.045 120.723C237.045 120.723 237.045 120.723 237.045 120.723C237.045 120.723 237.046 120.723 237.046 120.723C237.046 120.723 237.046 120.723 237.046 120.723C237.046 120.723 237.047 120.723 237.047 120.723C237.047 120.723 237.047 120.723 237.047 120.723C237.047 120.723 237.047 120.723 237.048 120.723C237.048 120.723 237.048 120.723 237.048 120.723C237.048 120.723 237.048 120.723 237.049 120.723C237.049 120.723 237.049 120.723 237.049 120.723C237.049 120.723 237.049 120.723 237.05 120.723C237.05 120.723 237.05 120.723 237.05 120.723C237.05 120.723 237.05 120.723 237.05 120.723C237.051 120.723 237.051 120.723 237.051 120.723C237.051 120.723 237.051 120.723 237.051 120.723C237.052 120.723 237.052 120.723 237.052 120.723C237.052 120.723 237.052 120.723 237.052 120.723C237.053 120.723 237.053 120.723 237.053 120.723C237.053 120.723 237.053 120.723 237.053 120.723C237.053 120.723 237.054 120.723 237.054 120.723C237.054 120.723 237.054 120.723 237.054 120.723C237.054 120.723 237.055 120.723 237.055 120.723C237.055 120.723 237.055 120.723 237.055 120.723C237.055 120.723 237.056 120.723 237.056 120.723C237.056 120.723 237.056 120.723 237.056 120.723C237.056 120.723 237.056 120.723 237.057 120.723C237.057 120.723 237.057 120.723 237.057 120.723C237.057 120.723 237.057 120.723 237.058 120.723C237.058 120.723 237.058 120.723 237.058 120.723C237.058 120.723 237.058 120.723 237.059 120.723C237.059 120.723 237.059 120.723 237.059 120.723C237.059 120.723 237.059 120.723 237.059 120.723C237.06 120.723 237.06 120.723 237.06 120.723C237.06 120.723 237.06 120.723 237.06 120.723C237.061 120.723 237.061 120.723 237.061 120.723C237.061 120.723 237.061 120.723 237.061 120.723C237.062 120.723 237.062 120.723 237.062 120.723C237.062 120.723 237.062 120.723 237.062 120.723C237.062 120.723 237.063 120.723 237.063 120.723C237.063 120.723 237.063 120.723 237.063 120.723C237.063 120.723 237.064 120.723 237.064 120.723C237.064 120.723 237.064 120.723 237.064 120.723C237.064 120.723 237.065 120.723 237.065 120.723C237.065 120.723 237.065 120.723 237.065 120.723C237.065 120.723 237.065 120.723 237.066 120.723C237.066 120.723 237.066 120.723 237.066 120.723C237.066 120.723 237.066 120.723 237.067 120.723C237.067 120.723 237.067 120.723 237.067 120.723C237.067 120.723 237.067 120.723 237.067 120.723C237.068 120.723 237.068 120.723 237.068 120.723C237.068 120.723 237.068 120.723 237.068 120.723C237.069 120.723 237.069 120.723 237.069 120.723C237.069 120.723 237.069 120.723 237.069 120.723C237.07 120.723 237.07 120.723 237.07 120.723C237.07 120.723 237.07 120.723 237.07 120.723C237.07 120.723 237.071 120.723 237.071 120.723C237.071 120.723 237.071 120.723 237.071 120.723C237.071 120.723 237.072 120.723 237.072 120.723C237.072 120.723 237.072 120.723 237.072 120.723C237.072 120.723 237.073 120.723 237.073 120.723C237.073 120.723 237.073 120.723 237.073 120.723C237.073 120.723 237.073 120.723 237.074 120.723C237.074 120.723 237.074 120.723 237.074 120.723C237.074 120.723 237.074 120.723 237.075 120.723C237.075 120.723 237.075 120.723 237.075 120.723C237.075 120.723 237.075 120.723 237.075 120.723C237.076 120.723 237.076 120.723 237.076 120.723C237.076 120.723 237.076 120.723 237.076 120.723C237.077 120.723 237.077 120.723 237.077 120.723C237.077 120.723 237.077 120.723 237.077 120.723C237.078 120.723 237.078 120.723 237.078 120.723C237.078 120.723 237.078 120.723 237.078 120.723C237.078 120.723 237.079 120.723 237.079 120.723C237.079 120.723 237.079 120.723 237.079 120.723C237.079 120.723 237.08 120.723 237.08 120.723C237.08 120.723 237.08 120.723 237.08 120.723C237.08 120.723 237.08 120.723 237.081 120.723C237.081 120.723 237.081 120.723 237.081 120.723C237.081 120.723 237.081 120.723 237.082 120.723C237.082 120.723 237.082 120.723 237.082 120.723C237.082 120.723 237.082 120.723 237.082 120.723C237.083 120.723 237.083 120.723 237.083 120.723C237.083 120.723 237.083 120.723 237.083 120.723C237.084 120.723 237.084 120.723 237.084 120.723C237.084 120.723 237.084 120.723 237.084 120.723C237.084 120.723 237.085 120.723 237.085 120.723C237.085 120.723 237.085 120.723 237.085 120.723C237.085 120.723 237.086 120.723 237.086 120.723C237.086 120.723 237.086 120.723 237.086 120.723C237.086 120.723 237.087 120.723 237.087 120.723C237.087 120.723 237.087 120.723 237.087 120.723C237.087 120.723 237.087 120.723 237.088 120.723C237.088 120.723 237.088 120.723 237.088 120.723C237.088 120.723 237.088 120.723 237.089 120.723C237.089 120.723 237.089 120.723 237.089 120.723C237.089 120.723 237.089 120.723 237.089 120.723C237.09 120.723 237.09 120.723 237.09 120.723C237.09 120.723 237.09 120.723 237.09 120.723C237.091 120.723 237.091 120.723 237.091 120.723C237.091 120.723 237.091 120.723 237.091 120.723C237.091 120.723 237.092 120.723 237.092 120.723C237.092 120.723 237.092 120.723 237.092 120.723C237.092 120.723 237.093 120.723 237.093 120.723C237.093 120.723 237.093 120.723 237.093 120.723C237.093 120.723 237.093 120.723 237.094 120.723C237.094 120.723 237.094 120.723 237.094 120.723C237.094 120.723 237.094 120.723 237.095 120.723C237.095 120.723 237.095 120.723 237.095 120.723C237.095 120.723 237.095 120.723 237.095 120.723C237.096 120.723 237.096 120.723 237.096 120.723C237.096 120.723 237.096 120.723 237.096 120.723C237.097 120.723 237.097 120.723 237.097 120.723C237.097 120.723 237.097 120.723 237.097 120.723C237.097 120.723 237.098 120.723 237.098 120.723C237.098 120.723 237.098 120.723 237.098 120.723C237.098 120.723 237.098 120.723 237.099 120.723C237.099 120.723 237.099 120.723 237.099 120.723C237.099 120.723 237.099 120.723 237.1 120.723C237.1 120.723 237.1 120.723 237.1 120.723C237.1 120.723 237.1 120.723 237.1 120.723C237.101 120.723 237.101 120.723 237.101 120.723C237.101 120.723 237.101 120.723 237.101 120.723C237.102 120.723 237.102 120.723 237.102 120.723C237.102 120.723 237.102 120.723 237.102 120.723C237.102 120.723 237.103 120.723 237.103 120.723C237.103 120.723 237.103 120.723 237.103 120.723C237.103 120.723 237.103 120.723 237.104 120.723C237.104 120.723 237.104 120.723 237.104 120.723C237.104 120.723 237.104 120.723 237.105 120.723C237.105 120.723 237.105 120.723 237.105 120.723C237.105 120.723 237.105 120.723 237.105 120.723C237.106 120.723 237.106 120.723 237.106 120.723C237.106 120.723 237.106 120.723 237.106 120.723C237.107 120.723 237.107 120.723 237.107 120.723C237.107 120.723 237.107 120.723 237.107 120.723C237.107 120.723 237.108 120.723 237.108 120.723C237.108 120.723 237.108 120.723 237.108 120.723C237.108 120.723 237.108 120.723 237.109 120.723C237.109 120.723 237.109 120.723 237.109 120.723C237.109 120.723 237.109 120.723 237.11 120.723C237.11 120.723 237.11 120.723 237.11 120.723C237.11 120.723 237.11 120.723 237.11 120.723C237.111 120.723 237.111 120.723 237.111 120.723C237.111 120.723 237.111 120.723 237.111 120.723C237.111 120.723 237.112 120.723 237.112 120.723C237.112 120.723 237.112 120.723 237.112 120.723C237.112 120.723 237.113 120.723 237.113 120.723C237.113 120.723 237.113 120.723 237.113 120.723C237.113 120.723 237.113 120.723 237.114 120.723C237.114 120.723 237.114 120.723 237.114 120.723C237.114 120.723 237.114 120.723 237.114 120.723C237.115 120.723 237.115 120.723 237.115 120.723C237.115 120.723 237.115 120.723 237.115 120.723C237.115 120.723 237.116 120.723 237.116 120.723C237.116 120.723 237.116 120.723 237.116 120.723C237.116 120.723 237.117 120.723 237.117 120.723C237.117 120.723 237.117 120.723 237.117 120.723C237.117 120.723 237.117 120.723 237.118 120.723C237.118 120.723 237.118 120.723 237.118 120.723C237.118 120.723 237.118 120.723 237.118 120.723C237.119 120.723 237.119 120.723 237.119 120.723C237.119 120.723 237.119 120.723 237.119 120.723C237.119 120.723 237.12 120.723 237.12 120.723C237.12 120.723 237.12 120.723 237.12 120.723C237.12 120.723 237.12 120.723 237.121 120.723C237.121 120.723 237.121 120.723 237.121 120.723C237.121 120.723 237.121 120.723 237.121 120.723C237.122 120.723 237.122 120.723 237.122 120.723C237.122 120.723 237.122 120.723 237.122 120.723C237.123 120.723 237.123 120.723 237.123 120.723C237.123 120.723 237.123 120.723 237.123 120.723C237.123 120.723 237.124 120.723 237.124 120.723C237.124 120.723 237.124 120.723 237.124 120.723C237.124 120.723 237.124 120.723 237.125 120.723C237.125 120.723 237.125 120.723 237.125 120.723C237.125 120.723 237.125 120.723 237.125 120.723C237.126 120.723 237.126 120.723 237.126 120.723C237.126 120.723 237.126 120.723 237.126 120.723C237.126 120.723 237.127 120.723 237.127 120.723C237.127 120.723 237.127 120.723 237.127 120.723C237.127 120.723 237.127 120.723 237.128 120.723C237.128 120.723 237.128 120.723 237.128 120.723C237.128 120.723 237.128 120.723 237.128 120.723C237.129 120.723 237.129 120.723 237.129 120.723C237.129 120.723 237.129 120.723 237.129 120.723C237.129 120.723 237.13 120.723 237.13 120.723C237.13 120.723 237.13 120.723 237.13 120.723C237.13 120.723 237.13 120.723 237.131 120.723C237.131 120.723 237.131 120.723 237.131 120.723C237.131 120.723 237.131 120.723 237.131 120.723C237.132 120.723 237.132 120.723 237.132 120.723C237.132 120.723 237.132 120.723 237.132 120.723C237.132 120.723 237.133 120.723 237.133 120.723C237.133 120.723 237.133 120.723 237.133 120.723C237.133 120.723 237.133 120.723 237.134 120.723C237.134 120.723 237.134 120.723 237.134 120.723C237.134 120.723 237.134 120.723 237.134 120.723C237.135 120.723 237.135 120.723 237.135 120.723C237.135 120.723 237.135 120.723 237.135 120.723C237.135 120.723 237.136 120.723 237.136 120.723C237.136 120.723 237.136 120.723 237.136 120.723C237.136 120.723 237.136 120.723 237.137 120.723C237.137 120.723 237.137 120.723 237.137 120.723C237.137 120.723 237.137 120.723 237.137 120.723C237.137 120.723 237.138 120.723 237.138 120.723C237.138 120.723 237.138 120.723 237.138 120.723C237.138 120.723 237.138 120.723 237.139 120.723C237.139 120.723 237.139 120.723 237.139 120.723C237.139 120.723 237.139 120.723 237.139 120.723C237.14 120.723 237.14 120.723 237.14 120.723C237.14 120.723 237.14 120.723 237.14 120.723C237.14 120.723 237.141 120.723 237.141 120.723C237.141 120.723 237.141 120.723 237.141 120.723C237.141 120.723 237.141 120.723 237.142 120.723C237.142 120.723 237.142 120.723 237.142 120.723C237.142 120.723 237.142 120.723 237.142 120.723C237.142 120.723 237.143 120.723 237.143 120.723C237.143 120.723 237.143 120.723 237.143 120.723C237.143 120.723 237.143 120.723 237.144 120.723C237.144 120.723 237.144 120.723 237.144 120.723C237.144 120.723 237.144 120.723 237.144 120.723C237.145 120.723 237.145 120.723 237.145 120.723C237.145 120.723 237.145 120.723 237.145 120.723C237.145 120.723 237.145 120.723 237.146 120.723C237.146 120.723 237.146 120.723 237.146 120.723C237.146 120.723 237.146 120.723 237.146 120.723C237.147 120.723 237.147 120.723 237.147 120.723C237.147 120.723 237.147 120.723 237.147 120.723C237.147 120.723 237.148 120.723 237.148 120.723C237.148 120.723 237.148 120.723 237.148 120.723C237.148 120.723 237.148 120.723 237.148 120.723C237.149 120.723 237.149 120.723 237.149 120.723C237.149 120.723 237.149 120.723 237.149 120.723C237.149 120.723 237.15 120.723 237.15 120.723C237.15 120.723 237.15 120.723 237.15 120.723C237.15 120.723 237.15 120.723 237.15 120.723C237.151 120.723 237.151 120.723 237.151 120.723C237.151 120.723 237.151 120.723 237.151 120.723C237.151 120.723 237.152 120.723 237.152 120.723C237.152 120.723 237.152 120.723 237.152 120.723C237.152 120.723 237.152 120.723 237.152 120.723C237.153 120.723 237.153 120.723 237.153 120.723C237.153 120.723 237.153 120.723 237.153 120.723C237.153 120.723 237.154 120.723 237.154 120.723C237.154 120.723 237.154 120.723 237.154 120.723C237.154 120.723 237.154 120.723 237.154 120.723C237.155 120.723 237.155 120.723 237.155 120.723C237.155 120.723 237.155 120.723 237.155 120.723C237.155 120.723 237.155 120.723 237.156 120.723C237.156 120.723 237.156 120.723 237.156 120.723C237.156 120.723 237.156 120.723 237.156 120.723C237.157 120.723 237.157 120.723 237.157 120.723C237.157 120.723 237.157 120.723 237.157 120.723C237.157 120.723 237.157 120.723 237.158 120.723C237.158 120.723 237.158 120.723 237.158 120.723C237.158 120.723 237.158 120.723 237.158 120.723C237.158 120.723 237.159 120.723 237.159 120.723C237.159 120.723 237.159 120.723 237.159 120.723C237.159 120.723 237.159 120.723 237.159 120.723C237.16 120.723 237.16 120.723 237.16 120.723C237.16 120.723 237.16 120.723 237.16 120.723C237.16 120.723 237.161 120.723 237.161 120.723C237.161 120.723 237.161 120.723 237.161 120.723C237.161 120.723 237.161 120.723 237.161 120.723C237.162 120.723 237.162 120.723 237.162 120.723C237.162 120.723 237.162 120.723 237.162 120.723C237.162 120.723 237.162 120.723 237.163 120.723V119.57ZM236.937 119.57C236.779 119.57 236.687 119.52 236.633 119.468C236.578 119.413 236.521 119.315 236.511 119.146L235.36 119.21C235.383 119.622 235.536 120.008 235.827 120.292C236.121 120.579 236.513 120.723 236.937 120.723V119.57ZM236.483 118.995C236.484 119.001 236.483 118.998 236.482 118.984C236.48 118.969 236.48 118.953 236.48 118.919H235.327C235.327 118.98 235.323 119.164 235.389 119.36L236.483 118.995ZM236.48 118.919C236.48 118.745 236.525 118.66 236.561 118.619C236.596 118.581 236.68 118.514 236.897 118.492L236.782 117.345C236.353 117.388 235.97 117.547 235.697 117.856C235.427 118.162 235.327 118.545 235.327 118.919H236.48ZM236.918 118.49C240.019 118.065 244.312 116.988 246.902 115.76L246.407 114.718C243.961 115.879 239.794 116.932 236.762 117.347L236.918 118.49ZM246.974 115.719C247.043 115.673 247.113 115.654 247.236 115.654V114.501C246.971 114.501 246.653 114.547 246.335 114.759L246.974 115.719ZM247.236 115.654C247.424 115.654 247.59 115.742 247.707 116.015L248.766 115.561C248.496 114.929 247.952 114.501 247.236 114.501V115.654ZM247.701 116.002C247.736 116.088 247.757 116.208 247.757 116.304H248.91C248.91 116.078 248.867 115.811 248.772 115.574L247.701 116.002ZM247.757 116.304C247.757 116.54 247.618 116.776 247.333 116.919L247.849 117.95C248.467 117.641 248.91 117.037 248.91 116.304H247.757ZM247.366 116.904C246.327 117.344 244.963 117.821 243.466 118.235L243.773 119.346C245.311 118.921 246.724 118.428 247.816 117.965L247.366 116.904ZM243.043 118.79V124.376H244.196V118.79H243.043ZM243.62 124.952H248.204V123.799H243.62V124.952ZM248.204 124.952C248.302 124.952 248.361 124.986 248.412 125.055C248.475 125.139 248.532 125.292 248.532 125.506H249.685C249.685 125.106 249.58 124.694 249.336 124.366C249.081 124.023 248.688 123.799 248.204 123.799V124.952ZM248.532 125.506C248.532 125.774 248.472 125.906 248.433 125.958C248.411 125.986 248.373 126.027 248.236 126.027V127.18C248.681 127.18 249.079 127.011 249.348 126.659C249.599 126.332 249.685 125.915 249.685 125.506H248.532ZM248.236 126.027H243.62V127.18H248.236V126.027ZM243.043 126.603V131.769H244.196V126.603H243.043ZM243.62 132.346H245.46V131.193H243.62V132.346ZM245.46 132.346C246.295 132.346 246.771 132.509 247.044 132.759C247.306 132.999 247.499 133.428 247.499 134.255H248.652C248.652 133.274 248.425 132.46 247.823 131.909C247.233 131.368 246.401 131.193 245.46 131.193V132.346ZM247.499 134.255V141.422H248.652V134.255H247.499ZM247.499 141.422C247.499 142.281 247.298 142.735 247.019 142.992C246.729 143.258 246.229 143.429 245.363 143.429V144.582C246.338 144.582 247.193 144.397 247.799 143.841C248.416 143.274 248.652 142.436 248.652 141.422H247.499ZM245.363 143.429H239.455V144.582H245.363V143.429ZM239.455 143.429C238.589 143.429 238.089 143.258 237.799 142.992C237.52 142.735 237.319 142.281 237.319 141.422H236.166C236.166 142.436 236.402 143.274 237.019 143.841C237.625 144.397 238.48 144.582 239.455 144.582V143.429ZM237.319 141.422V134.255H236.166V141.422H237.319ZM237.319 134.255C237.319 133.428 237.512 132.999 237.774 132.759C238.047 132.509 238.523 132.346 239.358 132.346V131.193C238.417 131.193 237.585 131.368 236.995 131.909C236.393 132.46 236.166 133.274 236.166 134.255H237.319ZM239.358 132.346H241.295V131.193H239.358V132.346ZM241.872 131.769V126.603H240.719V131.769H241.872ZM241.295 126.027H236.452V127.18H241.295V126.027ZM236.452 126.027C236.328 126.027 236.275 125.987 236.238 125.939C236.187 125.873 236.125 125.729 236.125 125.473H234.972C234.972 125.895 235.071 126.317 235.327 126.646C235.596 126.994 235.995 127.18 236.452 127.18V126.027ZM236.125 125.473C236.125 125.239 236.184 125.104 236.234 125.04C236.272 124.993 236.327 124.952 236.452 124.952V123.799C235.996 123.799 235.6 123.985 235.33 124.325C235.074 124.648 234.972 125.062 234.972 125.473H236.125ZM236.452 124.952H241.295V123.799H236.452V124.952ZM238.555 134.739V140.97H239.708V134.739H238.555ZM238.555 140.97C238.555 141.364 238.643 141.784 238.987 142.073C239.304 142.341 239.718 142.386 240.068 142.386V141.233C239.932 141.233 239.842 141.223 239.784 141.209C239.728 141.196 239.72 141.184 239.729 141.191C239.767 141.223 239.708 141.223 239.708 140.97H238.555ZM240.068 142.386H244.911V141.233H240.068V142.386ZM244.911 142.386C245.239 142.386 245.661 142.345 245.956 142.019C246.234 141.713 246.262 141.295 246.262 140.97H245.109C245.109 141.113 245.1 141.198 245.089 141.246C245.079 141.291 245.074 141.275 245.101 141.245C245.131 141.212 245.157 141.208 245.136 141.214C245.106 141.222 245.04 141.233 244.911 141.233V142.386ZM246.262 140.97V134.739H245.109V140.97H246.262ZM246.262 134.739C246.262 134.408 246.237 133.979 245.95 133.672C245.649 133.35 245.218 133.323 244.911 133.323V134.476C245.046 134.476 245.116 134.486 245.149 134.495C245.174 134.501 245.143 134.497 245.108 134.459C245.075 134.424 245.078 134.403 245.088 134.448C245.1 134.498 245.109 134.587 245.109 134.739H246.262ZM244.911 133.323H240.068V134.476H244.911V133.323ZM240.068 133.323C239.735 133.323 239.316 133.356 238.994 133.619C238.638 133.908 238.555 134.339 238.555 134.739H239.708C239.708 134.462 239.771 134.473 239.722 134.512C239.709 134.523 239.714 134.512 239.772 134.499C239.833 134.486 239.926 134.476 240.068 134.476V133.323ZM250.948 122.734H248.979V123.887H250.948V122.734ZM248.979 122.734C248.892 122.734 248.83 122.702 248.776 122.633C248.713 122.553 248.652 122.403 248.652 122.18H247.499C247.499 122.604 247.615 123.019 247.867 123.342C248.127 123.676 248.517 123.887 248.979 123.887V122.734ZM248.652 122.18C248.652 121.925 248.713 121.791 248.758 121.734C248.789 121.694 248.834 121.659 248.947 121.659V120.506C248.51 120.506 248.119 120.681 247.852 121.021C247.598 121.343 247.499 121.758 247.499 122.18H248.652ZM248.947 121.659H250.948V120.506H248.947V121.659ZM251.525 121.083V116.111H250.372V121.083H251.525ZM251.525 116.111C251.525 116.034 251.54 115.992 251.551 115.969C251.562 115.948 251.579 115.925 251.613 115.901C251.693 115.846 251.866 115.783 252.175 115.783V114.63C251.742 114.63 251.302 114.713 250.953 114.956C250.574 115.22 250.372 115.629 250.372 116.111H251.525ZM252.175 115.783C252.485 115.783 252.658 115.846 252.737 115.901C252.772 115.925 252.789 115.948 252.8 115.969C252.811 115.992 252.826 116.034 252.826 116.111H253.979C253.979 115.629 253.776 115.22 253.397 114.956C253.049 114.713 252.608 114.63 252.175 114.63V115.783ZM252.826 116.111V121.083H253.979V116.111H252.826ZM253.402 121.659H260.44V120.506H253.402V121.659ZM261.017 121.083V116.111H259.864V121.083H261.017ZM261.017 116.111C261.017 116.034 261.032 115.992 261.043 115.969C261.054 115.948 261.071 115.925 261.105 115.901C261.185 115.846 261.357 115.783 261.667 115.783V114.63C261.234 114.63 260.794 114.713 260.445 114.956C260.066 115.22 259.864 115.629 259.864 116.111H261.017ZM261.667 115.783C261.977 115.783 262.15 115.846 262.229 115.901C262.264 115.925 262.281 115.948 262.292 115.969C262.303 115.992 262.318 116.034 262.318 116.111H263.471C263.471 115.629 263.268 115.22 262.889 114.956C262.541 114.713 262.1 114.63 261.667 114.63V115.783ZM262.318 116.111V121.083H263.471V116.111H262.318ZM262.894 121.659H264.767V120.506H262.894V121.659ZM264.767 121.659C264.891 121.659 264.944 121.699 264.981 121.747C265.032 121.813 265.094 121.957 265.094 122.213H266.247C266.247 121.791 266.148 121.369 265.892 121.04C265.622 120.692 265.223 120.506 264.767 120.506V121.659ZM265.094 122.213C265.094 122.447 265.035 122.582 264.985 122.646C264.947 122.693 264.892 122.734 264.767 122.734V123.887C265.223 123.887 265.619 123.702 265.889 123.361C266.145 123.038 266.247 122.624 266.247 122.213H265.094ZM264.767 122.734H262.894V123.887H264.767V122.734ZM262.318 123.31V141.39H263.471V123.31H262.318ZM262.318 141.39C262.318 142.249 262.117 142.703 261.838 142.959C261.548 143.226 261.048 143.397 260.182 143.397V144.55C261.157 144.55 262.012 144.365 262.618 143.808C263.235 143.241 263.471 142.404 263.471 141.39H262.318ZM260.182 143.397H253.628V144.55H260.182V143.397ZM253.628 143.397C252.781 143.397 252.289 143.227 252.002 142.961C251.726 142.704 251.525 142.249 251.525 141.39H250.372C250.372 142.404 250.607 143.24 251.218 143.807C251.82 144.364 252.668 144.55 253.628 144.55V143.397ZM251.525 141.39V123.31H250.372V141.39H251.525ZM252.826 132.931V140.906H253.979V132.931H252.826ZM252.826 140.906C252.826 141.3 252.913 141.719 253.257 142.009C253.575 142.276 253.988 142.322 254.338 142.322V141.169C254.202 141.169 254.112 141.158 254.054 141.144C253.999 141.131 253.991 141.119 254 141.127C254.037 141.158 253.979 141.158 253.979 140.906H252.826ZM254.338 142.322H259.472V141.169H254.338V142.322ZM259.472 142.322C259.824 142.322 260.237 142.275 260.558 142.018C260.913 141.735 261.017 141.317 261.017 140.906H259.864C259.864 141.141 259.807 141.143 259.838 141.118C259.841 141.115 259.826 141.129 259.765 141.144C259.701 141.158 259.608 141.169 259.472 141.169V142.322ZM261.017 140.906V132.931H259.864V140.906H261.017ZM260.44 132.355H253.402V133.508H260.44V132.355ZM261.017 130.736V123.31H259.864V130.736H261.017ZM260.44 122.734H253.402V123.887H260.44V122.734ZM252.826 123.31V130.736H253.979V123.31H252.826ZM253.402 131.312H260.44V130.159H253.402V131.312Z" fill="#59391D" mask="url(#path-9-outside-1_2376_1881)"/>
<ellipse cx="5.76527" cy="5.87352" rx="5.76527" ry="5.87352" transform="matrix(0.999947 -0.0103167 -0.0173517 0.999849 300.915 79.9226)" fill="#59391D"/>
<ellipse cx="5.76527" cy="5.87352" rx="5.76527" ry="5.87352" transform="matrix(0.999947 -0.0103167 -0.0173517 0.999849 353.286 80.8574)" fill="#59391D"/>
<path d="M311.404 110.149C318.018 113.538 325.121 115.103 332.184 114.713C339.423 114.312 346.403 111.869 352.582 107.591C353.771 106.768 354.019 104.927 353.216 103.444C352.31 101.77 350.451 101.209 349.127 102.092C343.803 105.645 337.835 107.674 331.658 108.015C325.525 108.355 319.361 107.021 313.61 104.131C312.071 103.357 310.348 103.94 309.729 105.598C309.113 107.247 309.834 109.344 311.404 110.149Z" fill="#59391D" stroke="#59391D" stroke-width="0.576527"/>
<path d="M115.063 235.526C111.474 235.526 108.257 234.943 105.414 233.778C102.571 232.613 100.287 230.888 98.5619 228.604C96.8838 226.32 95.9982 223.57 95.9049 220.353H108.63C108.817 222.171 109.446 223.57 110.518 224.548C111.59 225.481 112.989 225.947 114.713 225.947C116.484 225.947 117.883 225.551 118.908 224.758C119.934 223.919 120.447 222.777 120.447 221.332C120.447 220.12 120.027 219.118 119.188 218.326C118.396 217.533 117.393 216.881 116.182 216.368C115.016 215.855 113.338 215.273 111.147 214.62C107.978 213.641 105.391 212.662 103.386 211.683C101.382 210.704 99.6573 209.259 98.2123 207.348C96.7673 205.437 96.0448 202.943 96.0448 199.867C96.0448 195.299 97.6995 191.733 101.009 189.169C104.319 186.559 108.63 185.254 113.944 185.254C119.351 185.254 123.709 186.559 127.019 189.169C130.329 191.733 132.1 195.322 132.333 199.937H119.398C119.305 198.352 118.722 197.117 117.65 196.231C116.578 195.299 115.203 194.833 113.525 194.833C112.08 194.833 110.914 195.229 110.029 196.021C109.143 196.767 108.7 197.863 108.7 199.308C108.7 200.892 109.446 202.128 110.938 203.013C112.429 203.899 114.76 204.855 117.929 205.88C121.099 206.952 123.663 207.978 125.621 208.957C127.625 209.935 129.35 211.357 130.795 213.222C132.24 215.086 132.962 217.487 132.962 220.423C132.962 223.22 132.24 225.76 130.795 228.044C129.396 230.328 127.345 232.146 124.642 233.498C121.938 234.85 118.745 235.526 115.063 235.526ZM176.748 196.021V235.036H164.792V229.723C163.58 231.447 161.925 232.846 159.827 233.918C157.777 234.943 155.492 235.456 152.975 235.456C149.992 235.456 147.359 234.803 145.075 233.498C142.791 232.146 141.019 230.212 139.761 227.695C138.502 225.178 137.873 222.218 137.873 218.815V196.021H149.759V217.207C149.759 219.817 150.435 221.845 151.787 223.29C153.139 224.735 154.956 225.457 157.24 225.457C159.571 225.457 161.412 224.735 162.764 223.29C164.116 221.845 164.792 219.817 164.792 217.207V196.021H176.748ZM198.061 195.462C200.811 195.462 203.212 196.021 205.263 197.14C207.361 198.259 208.969 199.727 210.087 201.545V196.021H222.044V234.966C222.044 238.556 221.321 241.795 219.876 244.685C218.478 247.622 216.31 249.952 213.374 251.677C210.484 253.402 206.871 254.264 202.536 254.264C196.756 254.264 192.072 252.889 188.482 250.139C184.893 247.435 182.842 243.753 182.329 239.092H194.146C194.519 240.583 195.404 241.749 196.803 242.588C198.201 243.473 199.926 243.916 201.977 243.916C204.447 243.916 206.405 243.194 207.85 241.749C209.342 240.35 210.087 238.09 210.087 234.966V229.443C208.922 231.261 207.314 232.752 205.263 233.918C203.212 235.036 200.811 235.596 198.061 235.596C194.845 235.596 191.932 234.78 189.321 233.149C186.711 231.47 184.637 229.117 183.099 226.087C181.607 223.01 180.861 219.468 180.861 215.459C180.861 211.45 181.607 207.931 183.099 204.901C184.637 201.871 186.711 199.541 189.321 197.909C191.932 196.278 194.845 195.462 198.061 195.462ZM210.087 215.529C210.087 212.546 209.248 210.192 207.57 208.467C205.939 206.742 203.934 205.88 201.557 205.88C199.18 205.88 197.152 206.742 195.474 208.467C193.843 210.145 193.027 212.476 193.027 215.459C193.027 218.442 193.843 220.819 195.474 222.591C197.152 224.315 199.18 225.178 201.557 225.178C203.934 225.178 205.939 224.315 207.57 222.591C209.248 220.866 210.087 218.512 210.087 215.529ZM226.218 215.459C226.218 211.45 226.964 207.931 228.456 204.901C229.994 201.871 232.068 199.541 234.679 197.909C237.289 196.278 240.202 195.462 243.419 195.462C246.169 195.462 248.569 196.021 250.62 197.14C252.718 198.259 254.326 199.727 255.445 201.545V196.021H267.401V235.036H255.445V229.513C254.279 231.331 252.648 232.799 250.55 233.918C248.499 235.036 246.099 235.596 243.349 235.596C240.179 235.596 237.289 234.78 234.679 233.149C232.068 231.47 229.994 229.117 228.456 226.087C226.964 223.01 226.218 219.468 226.218 215.459ZM255.445 215.529C255.445 212.546 254.606 210.192 252.928 208.467C251.296 206.742 249.292 205.88 246.915 205.88C244.537 205.88 242.51 206.742 240.832 208.467C239.2 210.145 238.384 212.476 238.384 215.459C238.384 218.442 239.2 220.819 240.832 222.591C242.51 224.315 244.537 225.178 246.915 225.178C249.292 225.178 251.296 224.315 252.928 222.591C254.606 220.866 255.445 218.512 255.445 215.529ZM285.909 202.524C287.308 200.38 289.056 198.702 291.153 197.49C293.251 196.231 295.581 195.602 298.145 195.602V208.257H294.859C291.876 208.257 289.638 208.91 288.147 210.215C286.655 211.474 285.909 213.711 285.909 216.927V235.036H273.953V196.021H285.909V202.524ZM307.356 235.596C305.258 235.596 303.534 234.99 302.182 233.778C300.877 232.519 300.224 230.981 300.224 229.163C300.224 227.299 300.877 225.737 302.182 224.479C303.534 223.22 305.258 222.591 307.356 222.591C309.407 222.591 311.085 223.22 312.39 224.479C313.742 225.737 314.418 227.299 314.418 229.163C314.418 230.981 313.742 232.519 312.39 233.778C311.085 234.99 309.407 235.596 307.356 235.596ZM354.707 185.953V195.532H341.702V235.036H329.746V195.532H316.741V185.953H354.707ZM376.369 235.596C372.547 235.596 369.098 234.78 366.021 233.149C362.992 231.517 360.591 229.186 358.82 226.157C357.095 223.127 356.233 219.584 356.233 215.529C356.233 211.52 357.118 208.001 358.89 204.971C360.661 201.895 363.085 199.541 366.161 197.909C369.238 196.278 372.687 195.462 376.509 195.462C380.332 195.462 383.781 196.278 386.857 197.909C389.934 199.541 392.358 201.895 394.129 204.971C395.9 208.001 396.786 211.52 396.786 215.529C396.786 219.538 395.877 223.08 394.059 226.157C392.288 229.186 389.841 231.517 386.717 233.149C383.641 234.78 380.192 235.596 376.369 235.596ZM376.369 225.248C378.653 225.248 380.588 224.409 382.173 222.731C383.804 221.053 384.62 218.652 384.62 215.529C384.62 212.406 383.827 210.005 382.243 208.327C380.704 206.649 378.793 205.81 376.509 205.81C374.179 205.81 372.244 206.649 370.706 208.327C369.168 209.959 368.399 212.359 368.399 215.529C368.399 218.652 369.144 221.053 370.636 222.731C372.174 224.409 374.085 225.248 376.369 225.248ZM412.987 201.545C414.153 199.727 415.761 198.259 417.812 197.14C419.863 196.021 422.263 195.462 425.014 195.462C428.23 195.462 431.143 196.278 433.753 197.909C436.364 199.541 438.415 201.871 439.906 204.901C441.445 207.931 442.214 211.45 442.214 215.459C442.214 219.468 441.445 223.01 439.906 226.087C438.415 229.117 436.364 231.47 433.753 233.149C431.143 234.78 428.23 235.596 425.014 235.596C422.31 235.596 419.909 235.036 417.812 233.918C415.761 232.799 414.153 231.354 412.987 229.583V253.635H401.031V196.021H412.987V201.545ZM430.048 215.459C430.048 212.476 429.209 210.145 427.531 208.467C425.899 206.742 423.872 205.88 421.448 205.88C419.07 205.88 417.043 206.742 415.365 208.467C413.733 210.192 412.918 212.546 412.918 215.529C412.918 218.512 413.733 220.866 415.365 222.591C417.043 224.315 419.07 225.178 421.448 225.178C423.825 225.178 425.853 224.315 427.531 222.591C429.209 220.819 430.048 218.442 430.048 215.459ZM452.402 191.966C450.304 191.966 448.579 191.36 447.228 190.148C445.922 188.89 445.27 187.351 445.27 185.534C445.27 183.669 445.922 182.131 447.228 180.919C448.579 179.66 450.304 179.031 452.402 179.031C454.453 179.031 456.131 179.66 457.436 180.919C458.788 182.131 459.463 183.669 459.463 185.534C459.463 187.351 458.788 188.89 457.436 190.148C456.131 191.36 454.453 191.966 452.402 191.966ZM458.345 196.021V235.036H446.389V196.021H458.345ZM462.534 215.459C462.534 211.45 463.28 207.931 464.772 204.901C466.31 201.871 468.384 199.541 470.995 197.909C473.605 196.278 476.518 195.462 479.735 195.462C482.485 195.462 484.885 196.021 486.936 197.14C489.034 198.259 490.642 199.727 491.761 201.545V196.021H503.717V235.036H491.761V229.513C490.595 231.331 488.964 232.799 486.866 233.918C484.815 235.036 482.415 235.596 479.665 235.596C476.495 235.596 473.605 234.78 470.995 233.149C468.384 231.47 466.31 229.117 464.772 226.087C463.28 223.01 462.534 219.468 462.534 215.459ZM491.761 215.529C491.761 212.546 490.922 210.192 489.244 208.467C487.612 206.742 485.608 205.88 483.231 205.88C480.853 205.88 478.826 206.742 477.148 208.467C475.516 210.145 474.7 212.476 474.7 215.459C474.7 218.442 475.516 220.819 477.148 222.591C478.826 224.315 480.853 225.178 483.231 225.178C485.608 225.178 487.612 224.315 489.244 222.591C490.922 220.866 491.761 218.512 491.761 215.529Z" fill="#59391D"/>
<path d="M171.597 268.754L163.51 284.33V293.19H159.502V284.33L151.38 268.754H155.846L161.506 280.744L167.167 268.754H171.597ZM182.478 293.506C180.649 293.506 178.997 293.096 177.52 292.276C176.043 291.432 174.883 290.26 174.039 288.76C173.196 287.236 172.774 285.478 172.774 283.486C172.774 281.517 173.207 279.771 174.075 278.247C174.942 276.724 176.126 275.552 177.626 274.731C179.126 273.911 180.802 273.501 182.653 273.501C184.505 273.501 186.181 273.911 187.681 274.731C189.181 275.552 190.365 276.724 191.232 278.247C192.1 279.771 192.533 281.517 192.533 283.486C192.533 285.455 192.088 287.201 191.197 288.725C190.306 290.248 189.088 291.432 187.541 292.276C186.017 293.096 184.329 293.506 182.478 293.506ZM182.478 290.026C183.509 290.026 184.47 289.779 185.361 289.287C186.275 288.795 187.013 288.057 187.576 287.072C188.138 286.088 188.42 284.892 188.42 283.486C188.42 282.08 188.15 280.896 187.611 279.935C187.072 278.95 186.357 278.212 185.466 277.72C184.576 277.228 183.614 276.981 182.583 276.981C181.552 276.981 180.591 277.228 179.7 277.72C178.833 278.212 178.141 278.95 177.626 279.935C177.11 280.896 176.852 282.08 176.852 283.486C176.852 285.572 177.38 287.189 178.434 288.338C179.513 289.463 180.86 290.026 182.478 290.026ZM213.337 273.817V293.19H209.329V290.905C208.696 291.702 207.864 292.334 206.832 292.803C205.824 293.249 204.746 293.471 203.598 293.471C202.074 293.471 200.703 293.155 199.484 292.522C198.289 291.889 197.339 290.951 196.636 289.709C195.956 288.467 195.617 286.967 195.617 285.209V273.817H199.59V284.611C199.59 286.346 200.023 287.682 200.89 288.619C201.758 289.533 202.941 289.99 204.442 289.99C205.942 289.99 207.125 289.533 207.993 288.619C208.883 287.682 209.329 286.346 209.329 284.611V273.817H213.337ZM221.93 276.63C222.516 275.645 223.29 274.884 224.251 274.345C225.235 273.782 226.396 273.501 227.732 273.501V277.649H226.712C225.142 277.649 223.946 278.048 223.126 278.845C222.329 279.642 221.93 281.025 221.93 282.994V293.19H217.922V273.817H221.93V276.63ZM247.194 293.436C245.553 293.436 244.077 293.155 242.764 292.592C241.452 292.006 240.42 291.186 239.67 290.131C238.92 289.076 238.545 287.846 238.545 286.439H242.835C242.928 287.494 243.338 288.361 244.065 289.041C244.815 289.721 245.858 290.061 247.194 290.061C248.577 290.061 249.655 289.733 250.429 289.076C251.202 288.397 251.589 287.529 251.589 286.475C251.589 285.654 251.343 284.986 250.851 284.47C250.382 283.955 249.784 283.556 249.058 283.275C248.355 282.994 247.37 282.689 246.104 282.361C244.51 281.939 243.21 281.517 242.202 281.095C241.217 280.65 240.373 279.97 239.67 279.056C238.967 278.142 238.615 276.923 238.615 275.399C238.615 273.993 238.967 272.762 239.67 271.708C240.373 270.653 241.358 269.844 242.624 269.282C243.889 268.719 245.354 268.438 247.018 268.438C249.386 268.438 251.32 269.035 252.82 270.231C254.343 271.403 255.187 273.02 255.351 275.083H250.921C250.851 274.192 250.429 273.43 249.655 272.798C248.882 272.165 247.862 271.848 246.597 271.848C245.448 271.848 244.51 272.141 243.784 272.727C243.057 273.313 242.694 274.157 242.694 275.259C242.694 276.009 242.917 276.63 243.362 277.122C243.831 277.591 244.417 277.966 245.12 278.247C245.823 278.528 246.784 278.833 248.003 279.161C249.62 279.607 250.933 280.052 251.941 280.497C252.972 280.943 253.839 281.634 254.543 282.572C255.269 283.486 255.633 284.717 255.633 286.264C255.633 287.506 255.293 288.678 254.613 289.779C253.957 290.881 252.984 291.772 251.695 292.452C250.429 293.108 248.929 293.436 247.194 293.436ZM285.677 273.817L279.664 293.19H275.445L271.543 278.88L267.64 293.19H263.421L257.373 273.817H261.452L265.495 289.393L269.609 273.817H273.793L277.731 289.322L281.739 273.817H285.677ZM305.724 283.029C305.724 283.756 305.678 284.412 305.584 284.998H290.782C290.899 286.545 291.473 287.787 292.505 288.725C293.536 289.662 294.802 290.131 296.302 290.131C298.458 290.131 299.982 289.229 300.872 287.424H305.197C304.611 289.205 303.545 290.67 301.998 291.819C300.474 292.944 298.575 293.506 296.302 293.506C294.45 293.506 292.786 293.096 291.309 292.276C289.856 291.432 288.707 290.26 287.863 288.76C287.043 287.236 286.633 285.478 286.633 283.486C286.633 281.494 287.031 279.747 287.828 278.247C288.649 276.724 289.786 275.552 291.239 274.731C292.715 273.911 294.403 273.501 296.302 273.501C298.13 273.501 299.759 273.899 301.189 274.696C302.619 275.493 303.732 276.618 304.529 278.071C305.326 279.501 305.724 281.154 305.724 283.029ZM301.54 281.763C301.517 280.286 300.99 279.103 299.958 278.212C298.927 277.321 297.65 276.876 296.126 276.876C294.743 276.876 293.559 277.321 292.575 278.212C291.59 279.079 291.004 280.263 290.817 281.763H301.54ZM326.721 283.029C326.721 283.756 326.674 284.412 326.581 284.998H311.778C311.896 286.545 312.47 287.787 313.501 288.725C314.533 289.662 315.798 290.131 317.298 290.131C319.455 290.131 320.979 289.229 321.869 287.424H326.194C325.608 289.205 324.541 290.67 322.994 291.819C321.471 292.944 319.572 293.506 317.298 293.506C315.447 293.506 313.783 293.096 312.306 292.276C310.853 291.432 309.704 290.26 308.86 288.76C308.04 287.236 307.63 285.478 307.63 283.486C307.63 281.494 308.028 279.747 308.825 278.247C309.645 276.724 310.782 275.552 312.236 274.731C313.712 273.911 315.4 273.501 317.298 273.501C319.127 273.501 320.756 273.899 322.186 274.696C323.615 275.493 324.729 276.618 325.526 278.071C326.323 279.501 326.721 281.154 326.721 283.029ZM322.537 281.763C322.514 280.286 321.986 279.103 320.955 278.212C319.924 277.321 318.646 276.876 317.123 276.876C315.74 276.876 314.556 277.321 313.572 278.212C312.587 279.079 312.001 280.263 311.814 281.763H322.537ZM334.639 277.087V287.811C334.639 288.537 334.803 289.065 335.131 289.393C335.482 289.697 336.068 289.85 336.889 289.85H339.35V293.19H336.186C334.381 293.19 332.998 292.768 332.037 291.924C331.076 291.08 330.595 289.709 330.595 287.811V277.087H328.31V273.817H330.595V269H334.639V273.817H339.35V277.087H334.639ZM368.456 275.786C367.823 274.567 366.944 273.653 365.819 273.044C364.694 272.411 363.393 272.094 361.917 272.094C360.299 272.094 358.858 272.458 357.592 273.184C356.326 273.911 355.33 274.942 354.603 276.278C353.9 277.614 353.549 279.161 353.549 280.919C353.549 282.677 353.9 284.236 354.603 285.596C355.33 286.932 356.326 287.963 357.592 288.69C358.858 289.416 360.299 289.779 361.917 289.779C364.096 289.779 365.866 289.17 367.226 287.951C368.585 286.732 369.417 285.08 369.722 282.994H360.545V279.794H374.011V282.923C373.754 284.822 373.074 286.568 371.972 288.162C370.894 289.756 369.476 291.033 367.718 291.995C365.983 292.932 364.05 293.401 361.917 293.401C359.619 293.401 357.522 292.874 355.623 291.819C353.724 290.741 352.213 289.252 351.087 287.353C349.986 285.455 349.435 283.31 349.435 280.919C349.435 278.528 349.986 276.384 351.087 274.485C352.213 272.587 353.724 271.11 355.623 270.055C357.545 268.977 359.643 268.438 361.917 268.438C364.518 268.438 366.827 269.082 368.843 270.372C370.882 271.637 372.359 273.442 373.273 275.786H368.456ZM394.806 273.817V293.19H390.798V290.905C390.165 291.702 389.333 292.334 388.301 292.803C387.294 293.249 386.215 293.471 385.067 293.471C383.543 293.471 382.172 293.155 380.953 292.522C379.758 291.889 378.808 290.951 378.105 289.709C377.425 288.467 377.086 286.967 377.086 285.209V273.817H381.059V284.611C381.059 286.346 381.492 287.682 382.36 288.619C383.227 289.533 384.41 289.99 385.911 289.99C387.411 289.99 388.594 289.533 389.462 288.619C390.352 287.682 390.798 286.346 390.798 284.611V273.817H394.806ZM401.43 271.25C400.704 271.25 400.094 271.004 399.602 270.512C399.11 270.02 398.864 269.41 398.864 268.684C398.864 267.957 399.11 267.348 399.602 266.856C400.094 266.363 400.704 266.117 401.43 266.117C402.134 266.117 402.731 266.363 403.224 266.856C403.716 267.348 403.962 267.957 403.962 268.684C403.962 269.41 403.716 270.02 403.224 270.512C402.731 271.004 402.134 271.25 401.43 271.25ZM403.399 273.817V293.19H399.391V273.817H403.399ZM406.623 283.416C406.623 281.47 407.021 279.747 407.818 278.247C408.638 276.747 409.74 275.587 411.123 274.766C412.529 273.923 414.088 273.501 415.799 273.501C417.065 273.501 418.307 273.782 419.526 274.345C420.768 274.884 421.753 275.61 422.479 276.524V267.172H426.523V293.19H422.479V290.272C421.823 291.209 420.909 291.983 419.737 292.592C418.588 293.202 417.264 293.506 415.764 293.506C414.076 293.506 412.529 293.084 411.123 292.241C409.74 291.373 408.638 290.178 407.818 288.654C407.021 287.107 406.623 285.361 406.623 283.416ZM422.479 283.486C422.479 282.15 422.198 280.99 421.636 280.005C421.096 279.021 420.382 278.271 419.491 277.755C418.6 277.239 417.639 276.981 416.608 276.981C415.576 276.981 414.615 277.239 413.725 277.755C412.834 278.247 412.107 278.986 411.545 279.97C411.006 280.931 410.736 282.08 410.736 283.416C410.736 284.752 411.006 285.924 411.545 286.932C412.107 287.939 412.834 288.713 413.725 289.252C414.639 289.768 415.6 290.026 416.608 290.026C417.639 290.026 418.6 289.768 419.491 289.252C420.382 288.736 421.096 287.986 421.636 287.002C422.198 285.994 422.479 284.822 422.479 283.486ZM448.84 283.029C448.84 283.756 448.793 284.412 448.699 284.998H433.897C434.014 286.545 434.588 287.787 435.62 288.725C436.651 289.662 437.917 290.131 439.417 290.131C441.573 290.131 443.097 289.229 443.988 287.424H448.312C447.726 289.205 446.66 290.67 445.113 291.819C443.589 292.944 441.691 293.506 439.417 293.506C437.565 293.506 435.901 293.096 434.424 292.276C432.971 291.432 431.822 290.26 430.979 288.76C430.158 287.236 429.748 285.478 429.748 283.486C429.748 281.494 430.147 279.747 430.943 278.247C431.764 276.724 432.901 275.552 434.354 274.731C435.831 273.911 437.518 273.501 439.417 273.501C441.245 273.501 442.874 273.899 444.304 274.696C445.734 275.493 446.847 276.618 447.644 278.071C448.441 279.501 448.84 281.154 448.84 283.029ZM444.656 281.763C444.632 280.286 444.105 279.103 443.073 278.212C442.042 277.321 440.765 276.876 439.241 276.876C437.858 276.876 436.674 277.321 435.69 278.212C434.706 279.079 434.12 280.263 433.932 281.763H444.656Z" fill="#59391D"/>
</svg>
